M48
;Layer_Color=9474304
;FILE_FORMAT=2:4
INCH,TZ
;TYPE=PLATED
T1F00S00C0.0118
T2F00S00C0.0157
T3F00S00C0.0315
T4F00S00C0.0433
%
T01
X16142Y9843
Y10236
Y10630
X17717
Y10236
X19882Y10827
X20276
X20669
X19882Y8268
X19488
X19094
X14370Y12598
X13976
X11614
X11220
X10433Y12992
X10039
X9055
X10630Y11024
X10827Y11220
X11024Y11417
X12205
X12008Y11220
X11811Y11024
Y10236
X12205
X11417
X6496Y10039
X6102
X5709
X9055Y16732
X9449
X9843
X12008Y17126
Y17520
Y17913
X12992Y16535
Y16142
Y15748
X11417Y23031
X11024
X10630
X10236
X9843
X9449
X5512
X5118
X4724
X4331
X3937
X3543
X16732Y13976
X17126
X17520
X19882
X20276
X20669
X22244
X22638
X23819
X24213
X26575Y23031
X26969
X27362
X28740
X29134
T02
X29134Y787
X29724
X30315
X30906
X31496
X32087
X35039Y3543
Y4134
Y4724
Y5315
Y5906
Y6496
X26772Y9646
Y10039
X26378
Y9646
X25984
Y10039
Y10433
X26378
X26772
X24016Y9252
X23425Y9843
X24606Y8661
X18701Y7677
X16968Y7480
X16339
X16654Y7087
X14764Y7677
Y8071
Y8465
X15945Y8858
X13386Y7874
X13780Y12205
X16968Y12795
X19488Y12992
Y12402
Y11811
Y11220
Y3150
X19882
X20276
X20669
X19094
X18701
X11220Y3346
Y3740
Y4134
Y4528
X11319Y8268
X10827Y9646
X10335Y9350
X5217Y10433
X5118Y12402
X2756Y12008
X2362
X1969
Y11024
X2362
X2756
Y12992
X2362
X1969
X787Y7480
Y6693
Y5906
Y5118
Y4331
Y3543
X3346Y787
X3937
X4528
X5118
X5709
X6299
X5118Y15551
X2756Y15945
X2362
X1969
Y16929
X2362
Y14961
X2756
X1969
Y13976
X2362
X2756
X5118Y18701
X8465Y19193
X11220Y16339
X11811Y14370
X12205Y13780
X11614Y13405
X9843Y14764
X5315Y25197
X4724
X4134
X3543
X2953
X2362
X787Y23622
Y23031
Y22441
X19488Y13583
X25984Y14370
Y14764
Y15157
X26378
Y14764
X26772
Y15157
Y14370
X26378
X30512Y25197
X31102
X31693
X32283
X32874
X33465
X35039Y23622
Y23031
Y22441
T03
X29764Y3937
X26772
X14370Y4150
X13370
Y3150
X14370
X12370
Y4150
X8465Y5118
X7465
Y8268
X8465
Y11417
X7465
Y14567
X8465
Y17717
X7465
Y20866
X8465
X13386
X14386
Y17717
X13386
Y14567
X14386
X28051Y20374
Y21374
T04
X34843Y9535
Y10535
Y11535
Y12535
X984Y12520
Y11520
Y10520
Y9520
Y8520
Y13520
Y14520
Y15520
Y16520
Y17520
X34843Y16535
Y15535
Y14535
Y13535
M30
