G04*
G04 #@! TF.GenerationSoftware,Altium Limited,Altium Designer,21.9.2 (33)*
G04*
G04 Layer_Physical_Order=2*
G04 Layer_Color=15238730*
%FSLAX25Y25*%
%MOIN*%
G70*
G04*
G04 #@! TF.SameCoordinates,17C33EC5-3FD8-4D5E-BF76-7BF67F947422*
G04*
G04*
G04 #@! TF.FilePolarity,Positive*
G04*
G01*
G75*
%ADD27C,0.01500*%
%ADD28C,0.02362*%
G04:AMPARAMS|DCode=29|XSize=59.06mil|YSize=59.06mil|CornerRadius=29.53mil|HoleSize=0mil|Usage=FLASHONLY|Rotation=0.000|XOffset=0mil|YOffset=0mil|HoleType=Round|Shape=RoundedRectangle|*
%AMROUNDEDRECTD29*
21,1,0.05906,0.00000,0,0,0.0*
21,1,0.00000,0.05906,0,0,0.0*
1,1,0.05906,0.00000,0.00000*
1,1,0.05906,0.00000,0.00000*
1,1,0.05906,0.00000,0.00000*
1,1,0.05906,0.00000,0.00000*
%
%ADD29ROUNDEDRECTD29*%
%ADD30C,0.06299*%
%ADD31C,0.07087*%
%ADD32C,0.07874*%
%ADD33R,0.07874X0.07874*%
%ADD34O,0.04724X0.05906*%
%ADD35R,0.04724X0.05906*%
%ADD36O,0.05906X0.04724*%
%ADD37R,0.05906X0.04724*%
%ADD38C,0.03150*%
%ADD39C,0.02362*%
%ADD40R,0.03937X0.04921*%
%ADD41R,0.04921X0.03937*%
%ADD42R,0.05512X0.09449*%
%ADD43R,0.04331X0.02362*%
%ADD44R,0.05906X0.05906*%
%ADD45R,0.07874X0.04724*%
G04:AMPARAMS|DCode=46|XSize=15.75mil|YSize=55.12mil|CornerRadius=7.87mil|HoleSize=0mil|Usage=FLASHONLY|Rotation=90.000|XOffset=0mil|YOffset=0mil|HoleType=Round|Shape=RoundedRectangle|*
%AMROUNDEDRECTD46*
21,1,0.01575,0.03937,0,0,90.0*
21,1,0.00000,0.05512,0,0,90.0*
1,1,0.01575,0.01968,0.00000*
1,1,0.01575,0.01968,0.00000*
1,1,0.01575,-0.01968,0.00000*
1,1,0.01575,-0.01968,0.00000*
%
%ADD46ROUNDEDRECTD46*%
G04:AMPARAMS|DCode=47|XSize=15.75mil|YSize=55.12mil|CornerRadius=7.87mil|HoleSize=0mil|Usage=FLASHONLY|Rotation=180.000|XOffset=0mil|YOffset=0mil|HoleType=Round|Shape=RoundedRectangle|*
%AMROUNDEDRECTD47*
21,1,0.01575,0.03937,0,0,180.0*
21,1,0.00000,0.05512,0,0,180.0*
1,1,0.01575,0.00000,0.01968*
1,1,0.01575,0.00000,0.01968*
1,1,0.01575,0.00000,-0.01968*
1,1,0.01575,0.00000,-0.01968*
%
%ADD47ROUNDEDRECTD47*%
%ADD48C,0.03937*%
%ADD49C,0.01968*%
G36*
X354331Y246063D02*
Y13780D01*
X344488Y3937D01*
X13780D01*
X3937Y13780D01*
Y246063D01*
X13780Y255906D01*
X344488D01*
X354331Y246063D01*
D02*
G37*
%LPC*%
G36*
X14427Y250984D02*
X13132D01*
X11880Y250649D01*
X10758Y250001D01*
X9842Y249085D01*
X9194Y247962D01*
X8858Y246711D01*
Y245415D01*
X9194Y244163D01*
X9842Y243041D01*
X10758Y242125D01*
X11880Y241477D01*
X13132Y241142D01*
X14427D01*
X15679Y241477D01*
X16801Y242125D01*
X17718Y243041D01*
X18365Y244163D01*
X18701Y245415D01*
Y246711D01*
X18365Y247962D01*
X17718Y249085D01*
X16801Y250001D01*
X15679Y250649D01*
X14427Y250984D01*
D02*
G37*
G36*
X283472Y227862D02*
X277551D01*
Y222925D01*
X278998D01*
Y216902D01*
X276759D01*
Y210578D01*
X284265D01*
Y216902D01*
X282025D01*
Y222925D01*
X283472D01*
Y227862D01*
D02*
G37*
G36*
X74646Y212441D02*
X73820Y212333D01*
X73051Y212014D01*
X72390Y211507D01*
X71883Y210847D01*
X71565Y210078D01*
X71546Y209936D01*
X61524D01*
Y211622D01*
X56587D01*
Y205701D01*
X61524D01*
Y207387D01*
X71546D01*
X71565Y207245D01*
X71883Y206476D01*
X72390Y205816D01*
X73051Y205309D01*
X73820Y204990D01*
X74646Y204881D01*
X75471Y204990D01*
X76240Y205309D01*
X76901Y205816D01*
X77408Y206476D01*
X77727Y207245D01*
X77835Y208071D01*
Y209252D01*
X77727Y210078D01*
X77408Y210847D01*
X76901Y211507D01*
X76240Y212014D01*
X75471Y212333D01*
X74646Y212441D01*
D02*
G37*
G36*
X134858Y212477D02*
Y209661D01*
X137196D01*
X137134Y210130D01*
X136795Y210948D01*
X136256Y211650D01*
X135554Y212189D01*
X134858Y212477D01*
D02*
G37*
G36*
X132858Y212477D02*
X132163Y212189D01*
X131460Y211650D01*
X130921Y210948D01*
X130583Y210130D01*
X130521Y209661D01*
X132858D01*
Y212477D01*
D02*
G37*
G36*
X147020Y212414D02*
X140696D01*
Y204909D01*
X147020D01*
Y207387D01*
X153043D01*
Y205701D01*
X157980D01*
Y211622D01*
X153043D01*
Y209936D01*
X147020D01*
Y212414D01*
D02*
G37*
G36*
X75787Y236950D02*
X27559D01*
X26903Y236820D01*
X26347Y236448D01*
X8630Y218732D01*
X8259Y218176D01*
X8128Y217520D01*
Y200500D01*
X6587D01*
Y190051D01*
X8128D01*
Y179934D01*
X5105D01*
Y170460D01*
X14580D01*
Y179934D01*
X11557D01*
Y190051D01*
X13098D01*
Y200500D01*
X11557D01*
Y216810D01*
X28269Y233522D01*
X75077D01*
X82932Y225668D01*
Y212414D01*
X81484D01*
Y204909D01*
X87808D01*
Y212414D01*
X86360D01*
Y226378D01*
X86229Y227034D01*
X85858Y227590D01*
X76999Y236448D01*
X76443Y236820D01*
X75787Y236950D01*
D02*
G37*
G36*
X132858Y207661D02*
X130521D01*
X130583Y207193D01*
X130921Y206375D01*
X131460Y205673D01*
X132163Y205134D01*
X132858Y204846D01*
Y207661D01*
D02*
G37*
G36*
X137196D02*
X134858D01*
Y204846D01*
X135554Y205134D01*
X136256Y205673D01*
X136795Y206375D01*
X137134Y207193D01*
X137196Y207661D01*
D02*
G37*
G36*
X281512Y207078D02*
Y204740D01*
X284327D01*
X284039Y205436D01*
X283500Y206138D01*
X282798Y206677D01*
X281980Y207016D01*
X281512Y207078D01*
D02*
G37*
G36*
X279512Y207078D02*
X279044Y207016D01*
X278226Y206677D01*
X277523Y206138D01*
X276984Y205436D01*
X276696Y204740D01*
X279512D01*
Y207078D01*
D02*
G37*
G36*
Y202740D02*
X276696D01*
X276984Y202045D01*
X277523Y201342D01*
X278226Y200803D01*
X279044Y200465D01*
X279512Y200403D01*
Y202740D01*
D02*
G37*
G36*
X284327D02*
X281512D01*
Y200403D01*
X281980Y200465D01*
X282798Y200803D01*
X283500Y201342D01*
X284039Y202045D01*
X284327Y202740D01*
D02*
G37*
G36*
X26197Y201000D02*
X23441D01*
Y196276D01*
X26197D01*
Y201000D01*
D02*
G37*
G36*
X21441D02*
X18685D01*
Y196276D01*
X21441D01*
Y201000D01*
D02*
G37*
G36*
X26197Y194276D02*
X23441D01*
Y189551D01*
X26197D01*
Y194276D01*
D02*
G37*
G36*
X21441D02*
X18685D01*
Y189551D01*
X21441D01*
Y194276D01*
D02*
G37*
G36*
X339583Y186827D02*
X336827D01*
Y182102D01*
X339583D01*
Y186827D01*
D02*
G37*
G36*
X334827D02*
X332071D01*
Y182102D01*
X334827D01*
Y186827D01*
D02*
G37*
G36*
X74646Y180945D02*
X73820Y180837D01*
X73051Y180518D01*
X72390Y180011D01*
X71883Y179351D01*
X71565Y178581D01*
X71546Y178440D01*
X61524D01*
Y180126D01*
X56587D01*
Y174205D01*
X61524D01*
Y175891D01*
X71546D01*
X71565Y175749D01*
X71883Y174980D01*
X72390Y174320D01*
X73051Y173813D01*
X73820Y173494D01*
X74646Y173385D01*
X75471Y173494D01*
X76240Y173813D01*
X76901Y174320D01*
X77408Y174980D01*
X77727Y175749D01*
X77835Y176575D01*
Y177756D01*
X77727Y178581D01*
X77408Y179351D01*
X76901Y180011D01*
X76240Y180518D01*
X75471Y180837D01*
X74646Y180945D01*
D02*
G37*
G36*
X134858Y180981D02*
Y178165D01*
X137196D01*
X137134Y178634D01*
X136795Y179452D01*
X136256Y180154D01*
X135554Y180693D01*
X134858Y180981D01*
D02*
G37*
G36*
X132858Y180981D02*
X132163Y180693D01*
X131460Y180154D01*
X130921Y179452D01*
X130583Y178634D01*
X130521Y178165D01*
X132858D01*
Y180981D01*
D02*
G37*
G36*
X339583Y180102D02*
X336827D01*
Y175378D01*
X339583D01*
Y180102D01*
D02*
G37*
G36*
X334827D02*
X332071D01*
Y175378D01*
X334827D01*
Y180102D01*
D02*
G37*
G36*
X51653Y189383D02*
X50709D01*
X49836Y189021D01*
X49168Y188353D01*
X48806Y187480D01*
Y186536D01*
X49168Y185663D01*
X49836Y184995D01*
X49872Y184980D01*
X49887Y184814D01*
X49890Y184667D01*
X49907Y184629D01*
Y180126D01*
X48713D01*
Y178440D01*
X43307D01*
X42819Y178343D01*
X42406Y178067D01*
X38469Y174129D01*
X38193Y173716D01*
X38096Y173228D01*
Y165882D01*
X28685Y156471D01*
X14405D01*
X14257Y157025D01*
X13633Y158105D01*
X12751Y158987D01*
X11671Y159611D01*
X10466Y159934D01*
X9219D01*
X8014Y159611D01*
X6934Y158987D01*
X6052Y158105D01*
X5428Y157025D01*
X5105Y155821D01*
Y154573D01*
X5428Y153368D01*
X6052Y152288D01*
X6934Y151406D01*
X8014Y150783D01*
X9219Y150460D01*
X10466D01*
X11671Y150783D01*
X12751Y151406D01*
X13633Y152288D01*
X14257Y153368D01*
X14405Y153922D01*
X29213D01*
X29700Y154019D01*
X30114Y154296D01*
X40271Y164453D01*
X40548Y164867D01*
X40645Y165354D01*
Y172700D01*
X43835Y175891D01*
X48713D01*
Y174205D01*
X53650D01*
Y180126D01*
X52456D01*
Y184629D01*
X52472Y184667D01*
X52476Y184821D01*
X52484Y184951D01*
X52487Y184978D01*
X52526Y184995D01*
X53194Y185663D01*
X53556Y186536D01*
Y187480D01*
X53194Y188353D01*
X52526Y189021D01*
X51653Y189383D01*
D02*
G37*
G36*
X147020Y180918D02*
X140696D01*
Y173413D01*
X147020D01*
Y175891D01*
X153043D01*
Y174205D01*
X157980D01*
Y180126D01*
X153043D01*
Y178440D01*
X147020D01*
Y180918D01*
D02*
G37*
G36*
X132858Y176165D02*
X130521D01*
X130583Y175697D01*
X130921Y174879D01*
X131460Y174177D01*
X132163Y173638D01*
X132858Y173350D01*
Y176165D01*
D02*
G37*
G36*
X137196D02*
X134858D01*
Y173350D01*
X135554Y173638D01*
X136256Y174177D01*
X136795Y174879D01*
X137134Y175697D01*
X137196Y176165D01*
D02*
G37*
G36*
X79740Y165862D02*
X77772D01*
Y163402D01*
X79740D01*
Y165862D01*
D02*
G37*
G36*
X75772D02*
X73803D01*
Y163402D01*
X75772D01*
Y165862D01*
D02*
G37*
G36*
X326772Y237753D02*
X280512D01*
X279549Y237561D01*
X278732Y237016D01*
X278186Y236199D01*
X278094Y235736D01*
X277551D01*
Y230799D01*
X280269D01*
X280512Y230751D01*
X281004D01*
X281247Y230799D01*
X283472D01*
Y232719D01*
X325729D01*
X345908Y212540D01*
Y186327D01*
X345169D01*
Y175878D01*
X345908D01*
Y170091D01*
X343688D01*
Y167068D01*
X327756D01*
X327100Y166938D01*
X326544Y166566D01*
X313749Y153771D01*
X313377Y153215D01*
X313247Y152559D01*
Y45001D01*
X309329Y41084D01*
X301209D01*
X300798Y41795D01*
X300063Y42531D01*
X299162Y43051D01*
X298158Y43320D01*
X297118D01*
X296113Y43051D01*
X295213Y42531D01*
X294477Y41795D01*
X294067Y41084D01*
X288386D01*
X287730Y40954D01*
X287174Y40582D01*
X273896Y27305D01*
X251484D01*
Y29043D01*
X244579D01*
Y27305D01*
X174923D01*
X169519Y32708D01*
X168963Y33080D01*
X168307Y33210D01*
X160441D01*
Y33965D01*
X154520D01*
Y33210D01*
X147726D01*
X147176Y34163D01*
X146411Y34928D01*
X146457Y35306D01*
X146490Y35428D01*
X148907D01*
X149395Y35525D01*
X149809Y35802D01*
X152476Y38469D01*
X152752Y38882D01*
X152849Y39370D01*
Y62464D01*
X161137Y70752D01*
X161414Y71166D01*
X161511Y71653D01*
Y72667D01*
X161973Y72858D01*
X162041Y72790D01*
X162913Y72428D01*
X163858D01*
X164165Y72555D01*
X164392Y72337D01*
X164498Y72152D01*
X164161Y71338D01*
Y70394D01*
X164522Y69521D01*
X165190Y68853D01*
X166063Y68491D01*
X167008D01*
X167881Y68853D01*
X168549Y69521D01*
X168910Y70394D01*
Y71338D01*
X168573Y72152D01*
X168679Y72337D01*
X168906Y72555D01*
X169213Y72428D01*
X170157D01*
X171030Y72790D01*
X171698Y73458D01*
X172060Y74331D01*
Y75275D01*
X171698Y76148D01*
X171030Y76816D01*
X170995Y76831D01*
X170979Y76997D01*
X170976Y77144D01*
X170959Y77182D01*
Y80517D01*
X170998Y80709D01*
Y84646D01*
X170898Y85148D01*
X170613Y85574D01*
X170187Y85858D01*
X169685Y85958D01*
X169183Y85858D01*
X168757Y85574D01*
X168472Y85148D01*
X168372Y84646D01*
Y80709D01*
X168411Y80517D01*
Y77232D01*
X168310Y77122D01*
X168174Y77136D01*
X167817Y77386D01*
X167810Y77404D01*
Y80517D01*
X167848Y80709D01*
Y84646D01*
X167748Y85148D01*
X167464Y85574D01*
X167038Y85858D01*
X166535Y85958D01*
X166033Y85858D01*
X165607Y85574D01*
X165323Y85148D01*
X165223Y84646D01*
Y80709D01*
X165261Y80517D01*
Y77406D01*
X165250Y77381D01*
X164903Y77137D01*
X164761Y77122D01*
X164660Y77232D01*
Y80517D01*
X164699Y80709D01*
Y84646D01*
X164599Y85148D01*
X164314Y85574D01*
X163888Y85858D01*
X163386Y85958D01*
X162883Y85858D01*
X162458Y85574D01*
X162173Y85148D01*
X162073Y84646D01*
Y80709D01*
X162111Y80517D01*
Y77232D01*
X162011Y77122D01*
X161875Y77136D01*
X161518Y77386D01*
X161511Y77404D01*
Y80517D01*
X161549Y80709D01*
Y84646D01*
X161449Y85148D01*
X161164Y85574D01*
X160739Y85858D01*
X160236Y85958D01*
X159734Y85858D01*
X159308Y85574D01*
X159023Y85148D01*
X158924Y84646D01*
Y80709D01*
X158962Y80517D01*
Y72181D01*
X150674Y63893D01*
X150397Y63480D01*
X150300Y62992D01*
Y39898D01*
X148380Y37977D01*
X147031D01*
X146824Y38477D01*
X147176Y38829D01*
X147748Y39820D01*
X148044Y40924D01*
Y42068D01*
X147748Y43172D01*
X147176Y44163D01*
X146368Y44972D01*
X145377Y45543D01*
X144975Y45651D01*
Y60496D01*
X157988Y73508D01*
X158264Y73922D01*
X158361Y74410D01*
Y80517D01*
X158399Y80709D01*
Y84646D01*
X158299Y85148D01*
X158015Y85574D01*
X157589Y85858D01*
X157087Y85958D01*
X156584Y85858D01*
X156158Y85574D01*
X155874Y85148D01*
X155774Y84646D01*
Y80709D01*
X155812Y80517D01*
Y74937D01*
X142800Y61925D01*
X142523Y61511D01*
X142426Y61024D01*
Y45651D01*
X142024Y45543D01*
X141034Y44972D01*
X140225Y44163D01*
X139654Y43172D01*
X139357Y42068D01*
Y40924D01*
X139654Y39820D01*
X140225Y38829D01*
X140577Y38477D01*
X140370Y37977D01*
X138908D01*
X138420Y37880D01*
X138006Y37604D01*
X135738Y35335D01*
X135377Y35543D01*
X134273Y35839D01*
X133129D01*
X132024Y35543D01*
X131034Y34972D01*
X130225Y34163D01*
X129654Y33173D01*
X129358Y32068D01*
Y30924D01*
X129654Y29820D01*
X130225Y28829D01*
X131034Y28021D01*
X132024Y27449D01*
X133129Y27153D01*
X134273D01*
X135377Y27449D01*
X136368Y28021D01*
X137176Y28829D01*
X137748Y29820D01*
X138044Y30924D01*
Y32068D01*
X137748Y33173D01*
X137540Y33533D01*
X139435Y35428D01*
X140912D01*
X140944Y35306D01*
X140991Y34928D01*
X140225Y34163D01*
X139654Y33173D01*
X139357Y32068D01*
Y30924D01*
X139654Y29820D01*
X140225Y28829D01*
X141034Y28021D01*
X141987Y27470D01*
Y26300D01*
X139054Y23368D01*
X111931D01*
X108013Y27285D01*
Y56377D01*
X114401Y62764D01*
X114772Y63320D01*
X114903Y63976D01*
Y66921D01*
X115657D01*
Y72843D01*
X114903D01*
Y80963D01*
X125984D01*
X126640Y81094D01*
X127196Y81465D01*
X135553Y89821D01*
X136803D01*
Y89067D01*
X142724D01*
Y90458D01*
X149021D01*
X149213Y90420D01*
X153150D01*
X153341Y90458D01*
X166535D01*
X167023Y90555D01*
X167437Y90831D01*
X170213Y93607D01*
X182879D01*
X183071Y93569D01*
X187008D01*
X187200Y93607D01*
X195858D01*
Y93594D01*
X201780D01*
Y98532D01*
X195858D01*
Y96156D01*
X194188D01*
Y100302D01*
X194091Y100790D01*
X193815Y101204D01*
X192936Y102082D01*
X192522Y102359D01*
X192035Y102456D01*
X188319D01*
X188167Y102956D01*
X188296Y103042D01*
X188489Y103331D01*
X185039D01*
X181589D01*
X181782Y103042D01*
X182211Y102756D01*
X182266Y102255D01*
X182245Y102177D01*
X182143Y102109D01*
X181858Y101683D01*
X181758Y101181D01*
X181858Y100679D01*
X182143Y100253D01*
X182245Y100185D01*
X182266Y100107D01*
X182211Y99606D01*
X181782Y99320D01*
X181589Y99032D01*
X185039D01*
Y97031D01*
X181589D01*
X181782Y96743D01*
X181912Y96656D01*
X181760Y96156D01*
X169685D01*
X169197Y96059D01*
X168784Y95783D01*
X166007Y93007D01*
X153341D01*
X153150Y93045D01*
X149213D01*
X149021Y93007D01*
X142724D01*
Y94004D01*
X136803D01*
Y93249D01*
X134843D01*
X134187Y93119D01*
X133631Y92747D01*
X130929Y90046D01*
X130429Y90253D01*
Y91520D01*
X127969D01*
Y89551D01*
X129727D01*
X129934Y89051D01*
X125274Y84391D01*
X114833D01*
X114534Y84690D01*
X113661Y85052D01*
X112717D01*
X111844Y84690D01*
X111176Y84022D01*
X110814Y83149D01*
Y82205D01*
X111176Y81332D01*
X111475Y81033D01*
Y72843D01*
X110721D01*
Y66921D01*
X111475D01*
Y64686D01*
X105087Y58299D01*
X104716Y57743D01*
X104585Y57087D01*
Y26575D01*
X104716Y25919D01*
X105087Y25363D01*
X110009Y20441D01*
X110565Y20070D01*
X111221Y19940D01*
X139764D01*
X140420Y20070D01*
X140976Y20441D01*
X144913Y24379D01*
X145284Y24935D01*
X145415Y25591D01*
Y27470D01*
X146368Y28021D01*
X147176Y28829D01*
X147726Y29782D01*
X154520D01*
Y29028D01*
X160441D01*
Y29782D01*
X167597D01*
X173001Y24379D01*
X173557Y24007D01*
X174213Y23877D01*
X244579D01*
Y22138D01*
X251484D01*
Y23877D01*
X274606D01*
X275262Y24007D01*
X275818Y24379D01*
X289096Y37656D01*
X294067D01*
X294477Y36945D01*
X295213Y36210D01*
X296113Y35690D01*
X297118Y35421D01*
X298158D01*
X299162Y35690D01*
X300063Y36210D01*
X300798Y36945D01*
X301209Y37656D01*
X310039D01*
X310695Y37786D01*
X311251Y38158D01*
X316173Y43079D01*
X316544Y43635D01*
X316675Y44291D01*
Y151849D01*
X328466Y163640D01*
X343688D01*
Y160617D01*
X353162D01*
Y170091D01*
X350942D01*
Y175878D01*
X351681D01*
Y186327D01*
X350942D01*
Y213583D01*
X350750Y214546D01*
X350205Y215362D01*
X328551Y237016D01*
X327735Y237561D01*
X326772Y237753D01*
D02*
G37*
G36*
X79740Y161402D02*
X77772D01*
Y158941D01*
X79740D01*
Y161402D01*
D02*
G37*
G36*
X75772D02*
X73803D01*
Y158941D01*
X75772D01*
Y161402D01*
D02*
G37*
G36*
X349049Y160091D02*
X347802D01*
X346597Y159768D01*
X345517Y159145D01*
X344635Y158263D01*
X344011Y157183D01*
X343688Y155978D01*
Y154731D01*
X344011Y153526D01*
X344635Y152446D01*
X345517Y151564D01*
X346597Y150940D01*
X347802Y150617D01*
X349049D01*
X350254Y150940D01*
X351334Y151564D01*
X352216Y152446D01*
X352839Y153526D01*
X353162Y154731D01*
Y155978D01*
X352839Y157183D01*
X352216Y158263D01*
X351334Y159145D01*
X350254Y159768D01*
X349049Y160091D01*
D02*
G37*
G36*
X74646Y149449D02*
X73820Y149341D01*
X73051Y149022D01*
X72390Y148515D01*
X71883Y147855D01*
X71565Y147085D01*
X71546Y146944D01*
X61524D01*
Y148630D01*
X56587D01*
Y142709D01*
X61524D01*
Y144395D01*
X71546D01*
X71565Y144253D01*
X71883Y143484D01*
X72390Y142823D01*
X73051Y142317D01*
X73820Y141998D01*
X74646Y141889D01*
X75471Y141998D01*
X76240Y142317D01*
X76901Y142823D01*
X77408Y143484D01*
X77727Y144253D01*
X77835Y145079D01*
Y146260D01*
X77727Y147085D01*
X77408Y147855D01*
X76901Y148515D01*
X76240Y149022D01*
X75471Y149341D01*
X74646Y149449D01*
D02*
G37*
G36*
X134858Y149485D02*
Y146669D01*
X137196D01*
X137134Y147138D01*
X136795Y147956D01*
X136256Y148658D01*
X135554Y149197D01*
X134858Y149485D01*
D02*
G37*
G36*
X132858Y149485D02*
X132163Y149197D01*
X131460Y148658D01*
X130921Y147956D01*
X130583Y147138D01*
X130521Y146669D01*
X132858D01*
Y149485D01*
D02*
G37*
G36*
X51653Y157887D02*
X50709D01*
X49836Y157525D01*
X49168Y156857D01*
X48806Y155984D01*
Y155039D01*
X49168Y154167D01*
X49836Y153499D01*
X49872Y153484D01*
X49887Y153318D01*
X49890Y153171D01*
X49907Y153133D01*
Y148630D01*
X48713D01*
Y146471D01*
X14405D01*
X14257Y147025D01*
X13633Y148105D01*
X12751Y148987D01*
X11671Y149611D01*
X10466Y149934D01*
X9219D01*
X8014Y149611D01*
X6934Y148987D01*
X6052Y148105D01*
X5428Y147025D01*
X5105Y145820D01*
Y144573D01*
X5428Y143368D01*
X6052Y142288D01*
X6934Y141406D01*
X8014Y140783D01*
X9219Y140460D01*
X10466D01*
X11671Y140783D01*
X12751Y141406D01*
X13633Y142288D01*
X14257Y143368D01*
X14405Y143922D01*
X48713D01*
Y142709D01*
X53650D01*
Y148630D01*
X52456D01*
Y153133D01*
X52472Y153171D01*
X52475Y153325D01*
X52484Y153455D01*
X52487Y153482D01*
X52526Y153499D01*
X53194Y154167D01*
X53556Y155039D01*
Y155984D01*
X53194Y156857D01*
X52526Y157525D01*
X51653Y157887D01*
D02*
G37*
G36*
X98898Y150013D02*
X97953D01*
X97080Y149651D01*
X96412Y148983D01*
X96050Y148110D01*
Y147165D01*
X96065Y147130D01*
X95959Y147002D01*
X95857Y146895D01*
X95842Y146857D01*
X93587Y144602D01*
X93311Y144188D01*
X93214Y143701D01*
Y71394D01*
X90023Y68204D01*
X59055D01*
X58567Y68107D01*
X58154Y67830D01*
X50280Y59956D01*
X50004Y59543D01*
X49907Y59055D01*
Y54142D01*
X48713D01*
Y52456D01*
X42851D01*
X39660Y55646D01*
Y86081D01*
X40160Y86130D01*
X40161Y86127D01*
X40437Y85713D01*
X44374Y81776D01*
X44788Y81500D01*
X45276Y81403D01*
X48713D01*
Y79716D01*
X53650D01*
Y85638D01*
X52456D01*
Y101956D01*
X52638D01*
X53511Y102317D01*
X54179Y102986D01*
X54540Y103858D01*
Y104803D01*
X54179Y105676D01*
X53511Y106344D01*
X52638Y106705D01*
X51693D01*
X50820Y106344D01*
X50152Y105676D01*
X49791Y104803D01*
Y103858D01*
X49998Y103358D01*
X49907Y102900D01*
Y85638D01*
X48713D01*
Y83952D01*
X45803D01*
X42613Y87142D01*
Y115364D01*
X43075Y115556D01*
X45359Y113272D01*
X45772Y112996D01*
X46260Y112899D01*
X48713D01*
Y111213D01*
X53650D01*
Y117134D01*
X52456D01*
Y121637D01*
X52472Y121675D01*
X52475Y121829D01*
X52484Y121959D01*
X52487Y121986D01*
X52526Y122002D01*
X53194Y122670D01*
X53556Y123543D01*
Y124488D01*
X53194Y125361D01*
X52526Y126029D01*
X51653Y126391D01*
X50709D01*
X49836Y126029D01*
X49168Y125361D01*
X48806Y124488D01*
Y123543D01*
X49168Y122670D01*
X49836Y122002D01*
X49872Y121988D01*
X49887Y121822D01*
X49890Y121675D01*
X49907Y121637D01*
Y117134D01*
X48713D01*
Y115448D01*
X46788D01*
X44582Y117654D01*
Y125984D01*
X44485Y126472D01*
X44208Y126885D01*
X34996Y136098D01*
X34582Y136374D01*
X34095Y136471D01*
X14405D01*
X14257Y137025D01*
X13633Y138105D01*
X12751Y138987D01*
X11671Y139611D01*
X10466Y139934D01*
X9219D01*
X8014Y139611D01*
X6934Y138987D01*
X6052Y138105D01*
X5428Y137025D01*
X5105Y135820D01*
Y134573D01*
X5428Y133368D01*
X6052Y132288D01*
X6934Y131406D01*
X8014Y130783D01*
X9219Y130460D01*
X10466D01*
X11671Y130783D01*
X12751Y131406D01*
X13633Y132288D01*
X14257Y133368D01*
X14405Y133922D01*
X33567D01*
X42033Y125456D01*
Y117903D01*
X41571Y117712D01*
X33185Y126098D01*
X32771Y126374D01*
X32283Y126471D01*
X14405D01*
X14257Y127025D01*
X13633Y128105D01*
X12751Y128987D01*
X11671Y129611D01*
X10466Y129934D01*
X9219D01*
X8014Y129611D01*
X6934Y128987D01*
X6052Y128105D01*
X5428Y127025D01*
X5105Y125821D01*
Y124573D01*
X5428Y123368D01*
X6052Y122288D01*
X6934Y121406D01*
X8014Y120783D01*
X9219Y120460D01*
X10466D01*
X11671Y120783D01*
X12751Y121406D01*
X13633Y122288D01*
X14257Y123368D01*
X14405Y123922D01*
X31756D01*
X40064Y115614D01*
Y111753D01*
X39564Y111704D01*
X39563Y111708D01*
X39287Y112122D01*
X35311Y116098D01*
X34897Y116374D01*
X34409Y116471D01*
X14405D01*
X14257Y117025D01*
X13633Y118105D01*
X12751Y118987D01*
X11671Y119611D01*
X10466Y119934D01*
X9219D01*
X8014Y119611D01*
X6934Y118987D01*
X6052Y118105D01*
X5428Y117025D01*
X5105Y115821D01*
Y114573D01*
X5428Y113368D01*
X6052Y112288D01*
X6934Y111406D01*
X8014Y110783D01*
X9219Y110460D01*
X10466D01*
X11671Y110783D01*
X12751Y111406D01*
X13633Y112288D01*
X14257Y113368D01*
X14405Y113922D01*
X33882D01*
X37111Y110693D01*
Y55118D01*
X37208Y54630D01*
X37485Y54217D01*
X41422Y50280D01*
X41835Y50004D01*
X42323Y49907D01*
X48713D01*
Y48221D01*
X53650D01*
Y54142D01*
X52456D01*
Y58527D01*
X59583Y65655D01*
X90551D01*
X91039Y65752D01*
X91452Y66028D01*
X95389Y69965D01*
X95666Y70378D01*
X95763Y70866D01*
Y143173D01*
X97644Y145054D01*
X97683Y145070D01*
X97794Y145176D01*
X97892Y145262D01*
X97914Y145279D01*
X97953Y145263D01*
X98898D01*
X99770Y145624D01*
X100438Y146293D01*
X100800Y147165D01*
Y148110D01*
X100438Y148983D01*
X99770Y149651D01*
X98898Y150013D01*
D02*
G37*
G36*
X147020Y149422D02*
X140696D01*
Y141917D01*
X147020D01*
Y144395D01*
X153043D01*
Y142709D01*
X157980D01*
Y148630D01*
X153043D01*
Y146944D01*
X147020D01*
Y149422D01*
D02*
G37*
G36*
X132858Y144669D02*
X130521D01*
X130583Y144201D01*
X130921Y143383D01*
X131460Y142681D01*
X132163Y142142D01*
X132858Y141854D01*
Y144669D01*
D02*
G37*
G36*
X137196D02*
X134858D01*
Y141854D01*
X135554Y142142D01*
X136256Y142681D01*
X136795Y143383D01*
X137134Y144201D01*
X137196Y144669D01*
D02*
G37*
G36*
X349049Y150091D02*
X347802D01*
X346597Y149768D01*
X345517Y149145D01*
X344635Y148263D01*
X344011Y147183D01*
X343688Y145978D01*
Y144731D01*
X344011Y143526D01*
X344635Y142446D01*
X345517Y141564D01*
X346597Y140940D01*
X347802Y140617D01*
X349049D01*
X350254Y140940D01*
X351334Y141564D01*
X352216Y142446D01*
X352839Y143526D01*
X353162Y144731D01*
Y145978D01*
X352839Y147183D01*
X352216Y148263D01*
X351334Y149145D01*
X350254Y149768D01*
X349049Y150091D01*
D02*
G37*
G36*
X195354Y138202D02*
X194410D01*
X193537Y137840D01*
X192869Y137172D01*
X192854Y137136D01*
X192688Y137121D01*
X192541Y137118D01*
X192503Y137101D01*
X185039D01*
X184552Y137004D01*
X184138Y136728D01*
X171933Y124523D01*
X171657Y124110D01*
X171560Y123622D01*
Y118696D01*
X171522Y118504D01*
Y114567D01*
X171622Y114065D01*
X171906Y113639D01*
X172332Y113354D01*
X172835Y113254D01*
X173337Y113354D01*
X173763Y113639D01*
X174047Y114065D01*
X174147Y114567D01*
Y118504D01*
X174109Y118696D01*
Y123094D01*
X185567Y134552D01*
X192503D01*
X192541Y134536D01*
X192695Y134532D01*
X192825Y134524D01*
X192853Y134520D01*
X192869Y134482D01*
X193537Y133814D01*
X194410Y133452D01*
X195354D01*
X196227Y133814D01*
X196895Y134482D01*
X197257Y135354D01*
Y136299D01*
X196895Y137172D01*
X196227Y137840D01*
X195354Y138202D01*
D02*
G37*
G36*
X349049Y140091D02*
X347802D01*
X346597Y139769D01*
X345517Y139145D01*
X344635Y138263D01*
X344011Y137183D01*
X343688Y135978D01*
Y134731D01*
X344011Y133526D01*
X344635Y132446D01*
X345517Y131564D01*
X346597Y130940D01*
X347802Y130617D01*
X349049D01*
X350254Y130940D01*
X351334Y131564D01*
X352216Y132446D01*
X352839Y133526D01*
X353162Y134731D01*
Y135978D01*
X352839Y137183D01*
X352216Y138263D01*
X351334Y139145D01*
X350254Y139769D01*
X349049Y140091D01*
D02*
G37*
G36*
X195354Y132296D02*
X194410D01*
X193537Y131934D01*
X192869Y131266D01*
X192854Y131231D01*
X192688Y131216D01*
X192541Y131212D01*
X192503Y131196D01*
X185039D01*
X184552Y131099D01*
X184138Y130823D01*
X175083Y121767D01*
X174807Y121354D01*
X174710Y120866D01*
Y118696D01*
X174672Y118504D01*
Y114567D01*
X174772Y114065D01*
X175056Y113639D01*
X175482Y113354D01*
X175984Y113254D01*
X176487Y113354D01*
X176912Y113639D01*
X177197Y114065D01*
X177297Y114567D01*
Y118504D01*
X177259Y118696D01*
Y120338D01*
X185567Y128647D01*
X192503D01*
X192541Y128630D01*
X192695Y128627D01*
X192825Y128618D01*
X192853Y128615D01*
X192869Y128576D01*
X193537Y127908D01*
X194410Y127547D01*
X195354D01*
X196227Y127908D01*
X196895Y128576D01*
X197257Y129449D01*
Y130394D01*
X196895Y131266D01*
X196227Y131934D01*
X195354Y132296D01*
D02*
G37*
G36*
Y126391D02*
X194410D01*
X193537Y126029D01*
X192869Y125361D01*
X192854Y125325D01*
X192688Y125310D01*
X192541Y125307D01*
X192503Y125290D01*
X190945D01*
X190457Y125193D01*
X190044Y124917D01*
X182937Y117810D01*
X180447D01*
Y118504D01*
X180347Y119006D01*
X180062Y119432D01*
X179636Y119717D01*
X179134Y119817D01*
X178631Y119717D01*
X178206Y119432D01*
X177921Y119006D01*
X177821Y118504D01*
Y114567D01*
X177921Y114065D01*
X178206Y113639D01*
X178631Y113354D01*
X179134Y113254D01*
X179636Y113354D01*
X180062Y113639D01*
X180347Y114065D01*
X180447Y114567D01*
Y115261D01*
X183465D01*
X183692Y115306D01*
X183992Y114856D01*
X183862Y114661D01*
X183765Y114173D01*
Y111943D01*
X183071D01*
X182569Y111843D01*
X182143Y111558D01*
X181858Y111132D01*
X181758Y110630D01*
X181858Y110128D01*
X182143Y109702D01*
X182569Y109417D01*
X183071Y109317D01*
X187008D01*
X187510Y109417D01*
X187936Y109702D01*
X188221Y110128D01*
X188321Y110630D01*
X188221Y111132D01*
X187936Y111558D01*
X187510Y111843D01*
X187008Y111943D01*
X186314D01*
Y113645D01*
X189504Y116836D01*
X192503D01*
X192541Y116819D01*
X192695Y116816D01*
X192825Y116807D01*
X192853Y116804D01*
X192869Y116765D01*
X193537Y116097D01*
X194410Y115735D01*
X195354D01*
X196227Y116097D01*
X196895Y116765D01*
X197257Y117638D01*
Y118583D01*
X196895Y119456D01*
X196227Y120124D01*
X195354Y120485D01*
X194410D01*
X193537Y120124D01*
X192869Y119456D01*
X192854Y119420D01*
X192688Y119404D01*
X192541Y119401D01*
X192503Y119385D01*
X188976D01*
X188785Y119347D01*
X188539Y119808D01*
X191473Y122741D01*
X192503D01*
X192541Y122725D01*
X192695Y122721D01*
X192825Y122713D01*
X192853Y122709D01*
X192869Y122670D01*
X193537Y122002D01*
X194410Y121641D01*
X195354D01*
X196227Y122002D01*
X196895Y122670D01*
X197257Y123543D01*
Y124488D01*
X196895Y125361D01*
X196227Y126029D01*
X195354Y126391D01*
D02*
G37*
G36*
X349049Y130091D02*
X347802D01*
X346597Y129769D01*
X345517Y129145D01*
X344635Y128263D01*
X344011Y127183D01*
X343688Y125978D01*
Y124731D01*
X344011Y123526D01*
X344635Y122446D01*
X345517Y121564D01*
X346597Y120940D01*
X347802Y120617D01*
X349049D01*
X350254Y120940D01*
X351334Y121564D01*
X352216Y122446D01*
X352839Y123526D01*
X353162Y124731D01*
Y125978D01*
X352839Y127183D01*
X352216Y128263D01*
X351334Y129145D01*
X350254Y129769D01*
X349049Y130091D01*
D02*
G37*
G36*
X74646Y117953D02*
X73820Y117845D01*
X73051Y117526D01*
X72390Y117019D01*
X71883Y116358D01*
X71565Y115589D01*
X71546Y115448D01*
X61524D01*
Y117134D01*
X56587D01*
Y111213D01*
X61524D01*
Y112899D01*
X71546D01*
X71565Y112757D01*
X71883Y111988D01*
X72390Y111327D01*
X73051Y110820D01*
X73820Y110502D01*
X74646Y110393D01*
X75471Y110502D01*
X76240Y110820D01*
X76901Y111327D01*
X77408Y111988D01*
X77727Y112757D01*
X77835Y113583D01*
Y114764D01*
X77727Y115589D01*
X77408Y116358D01*
X76901Y117019D01*
X76240Y117526D01*
X75471Y117845D01*
X74646Y117953D01*
D02*
G37*
G36*
X53650Y211622D02*
X48713D01*
Y209936D01*
X43307D01*
X42819Y209839D01*
X42406Y209563D01*
X32563Y199720D01*
X32287Y199307D01*
X32190Y198819D01*
Y173756D01*
X24905Y166471D01*
X14405D01*
X14257Y167025D01*
X13633Y168105D01*
X12751Y168987D01*
X11671Y169611D01*
X10466Y169934D01*
X9219D01*
X8014Y169611D01*
X6934Y168987D01*
X6052Y168105D01*
X5428Y167025D01*
X5105Y165821D01*
Y164573D01*
X5428Y163368D01*
X6052Y162288D01*
X6934Y161406D01*
X8014Y160783D01*
X9219Y160460D01*
X10466D01*
X11671Y160783D01*
X12751Y161406D01*
X13633Y162288D01*
X14257Y163368D01*
X14405Y163922D01*
X25433D01*
X25921Y164019D01*
X26334Y164296D01*
X34366Y172327D01*
X34642Y172741D01*
X34739Y173228D01*
Y198291D01*
X43835Y207387D01*
X48713D01*
Y205701D01*
X49907D01*
Y202756D01*
X50004Y202268D01*
X50280Y201855D01*
X54217Y197918D01*
X54630Y197641D01*
X55118Y197544D01*
X95929D01*
X106993Y186480D01*
Y122047D01*
X107090Y121560D01*
X107367Y121146D01*
X111303Y117209D01*
X111717Y116933D01*
X112205Y116836D01*
X135299D01*
X145555Y106579D01*
X145969Y106303D01*
X146457Y106206D01*
X149021D01*
X149213Y106168D01*
X153150D01*
X153652Y106268D01*
X154078Y106552D01*
X154362Y106978D01*
X154462Y107480D01*
X154362Y107983D01*
X154078Y108408D01*
X153652Y108693D01*
X153150Y108793D01*
X149213D01*
X149021Y108755D01*
X146985D01*
X136728Y119011D01*
X136314Y119288D01*
X135827Y119385D01*
X112733D01*
X109542Y122575D01*
Y162302D01*
X110042Y162401D01*
X110192Y162041D01*
X110860Y161373D01*
X110895Y161358D01*
X110910Y161192D01*
X110914Y161045D01*
X110930Y161007D01*
Y133071D01*
X111027Y132583D01*
X111303Y132170D01*
X114453Y129020D01*
X114867Y128744D01*
X115354Y128647D01*
X153015D01*
X155812Y125850D01*
Y118696D01*
X155774Y118504D01*
Y114567D01*
X155874Y114065D01*
X156158Y113639D01*
X156584Y113354D01*
X157087Y113254D01*
X157589Y113354D01*
X158015Y113639D01*
X158299Y114065D01*
X158399Y114567D01*
Y118504D01*
X158361Y118696D01*
Y126123D01*
X158846Y126413D01*
X158962Y126343D01*
Y118696D01*
X158924Y118504D01*
Y114567D01*
X159023Y114065D01*
X159308Y113639D01*
X159734Y113354D01*
X160236Y113254D01*
X160739Y113354D01*
X161164Y113639D01*
X161449Y114065D01*
X161549Y114567D01*
Y118504D01*
X161511Y118696D01*
Y126910D01*
X161996Y127201D01*
X162111Y127131D01*
Y118696D01*
X162073Y118504D01*
Y114567D01*
X162173Y114065D01*
X162458Y113639D01*
X162883Y113354D01*
X163386Y113254D01*
X163888Y113354D01*
X164314Y113639D01*
X164599Y114065D01*
X164699Y114567D01*
Y118504D01*
X164660Y118696D01*
Y127698D01*
X165146Y127988D01*
X165261Y127918D01*
Y118696D01*
X165223Y118504D01*
Y114567D01*
X165323Y114065D01*
X165607Y113639D01*
X166033Y113354D01*
X166535Y113254D01*
X167038Y113354D01*
X167464Y113639D01*
X167748Y114065D01*
X167848Y114567D01*
Y118504D01*
X167810Y118696D01*
Y125350D01*
X167821Y125375D01*
X168168Y125619D01*
X168310Y125634D01*
X168411Y125524D01*
Y118696D01*
X168372Y118504D01*
Y114567D01*
X168472Y114065D01*
X168757Y113639D01*
X169183Y113354D01*
X169685Y113254D01*
X170187Y113354D01*
X170613Y113639D01*
X170898Y114065D01*
X170998Y114567D01*
Y118504D01*
X170959Y118696D01*
Y125574D01*
X170976Y125612D01*
X170979Y125766D01*
X170988Y125896D01*
X170992Y125923D01*
X171030Y125940D01*
X171698Y126608D01*
X172060Y127480D01*
Y128425D01*
X171698Y129298D01*
X171030Y129966D01*
X170157Y130328D01*
X169213D01*
X168340Y129966D01*
X168029Y129655D01*
X167437Y129641D01*
X167399Y129679D01*
X156413Y140665D01*
X156000Y140941D01*
X155512Y141038D01*
X154555D01*
X154366Y141076D01*
X130412D01*
X126885Y144602D01*
X126472Y144878D01*
X125984Y144975D01*
X120489D01*
X120451Y144992D01*
X120297Y144995D01*
X120167Y145004D01*
X120140Y145007D01*
X120124Y145046D01*
X119456Y145714D01*
X118583Y146076D01*
X117638D01*
X116765Y145714D01*
X116097Y145046D01*
X115735Y144173D01*
Y143228D01*
X116097Y142356D01*
X116765Y141688D01*
X117638Y141326D01*
X118583D01*
X119456Y141688D01*
X120124Y142356D01*
X120138Y142391D01*
X120304Y142407D01*
X120451Y142410D01*
X120489Y142426D01*
X125456D01*
X128345Y139538D01*
X128153Y139076D01*
X124426D01*
X124388Y139093D01*
X124234Y139096D01*
X124104Y139105D01*
X124077Y139108D01*
X124060Y139147D01*
X123392Y139815D01*
X122520Y140176D01*
X121575D01*
X120702Y139815D01*
X120034Y139147D01*
X119672Y138274D01*
Y137329D01*
X120034Y136456D01*
X120664Y135826D01*
X120646Y135652D01*
X120511Y135326D01*
X118516D01*
X118478Y135343D01*
X118324Y135346D01*
X118194Y135355D01*
X118166Y135358D01*
X118150Y135397D01*
X117482Y136065D01*
X116609Y136426D01*
X115665D01*
X114792Y136065D01*
X114124Y135397D01*
X113979Y135048D01*
X113479Y135147D01*
Y161007D01*
X113496Y161045D01*
X113499Y161199D01*
X113508Y161329D01*
X113511Y161356D01*
X113550Y161373D01*
X114218Y162041D01*
X114579Y162913D01*
Y163858D01*
X114218Y164731D01*
X113550Y165399D01*
X112677Y165761D01*
X111732D01*
X110860Y165399D01*
X110192Y164731D01*
X110042Y164371D01*
X109542Y164470D01*
Y187008D01*
X109445Y187496D01*
X109169Y187909D01*
X97358Y199720D01*
X96944Y199996D01*
X96457Y200093D01*
X55646D01*
X52456Y203284D01*
Y205701D01*
X53650D01*
Y211622D01*
D02*
G37*
G36*
X349049Y120091D02*
X347802D01*
X346597Y119769D01*
X345517Y119145D01*
X344635Y118263D01*
X344011Y117183D01*
X343688Y115978D01*
Y114731D01*
X344011Y113526D01*
X344635Y112446D01*
X345517Y111564D01*
X346597Y110940D01*
X347802Y110617D01*
X349049D01*
X350254Y110940D01*
X351334Y111564D01*
X352216Y112446D01*
X352839Y113526D01*
X353162Y114731D01*
Y115978D01*
X352839Y117183D01*
X352216Y118263D01*
X351334Y119145D01*
X350254Y119769D01*
X349049Y120091D01*
D02*
G37*
G36*
X195354Y114579D02*
X194410D01*
X193537Y114218D01*
X192869Y113550D01*
X192507Y112677D01*
Y111732D01*
X192522Y111697D01*
X192416Y111569D01*
X192314Y111462D01*
X192299Y111424D01*
X189630Y108755D01*
X187200D01*
X187008Y108793D01*
X183071D01*
X182569Y108693D01*
X182143Y108408D01*
X181858Y107983D01*
X181758Y107480D01*
X181858Y106978D01*
X182143Y106552D01*
X182245Y106484D01*
X182266Y106406D01*
X182211Y105905D01*
X181782Y105619D01*
X181589Y105331D01*
X185039D01*
X188489D01*
X188296Y105619D01*
X188167Y105706D01*
X188319Y106206D01*
X190157D01*
X190645Y106303D01*
X191059Y106579D01*
X194101Y109621D01*
X194139Y109636D01*
X194251Y109743D01*
X194349Y109829D01*
X194371Y109846D01*
X194410Y109830D01*
X195354D01*
X196227Y110192D01*
X196895Y110860D01*
X197257Y111732D01*
Y112677D01*
X196895Y113550D01*
X196227Y114218D01*
X195354Y114579D01*
D02*
G37*
G36*
X138268Y124422D02*
X137323D01*
X136450Y124060D01*
X135782Y123392D01*
X135421Y122520D01*
Y121575D01*
X135782Y120702D01*
X136450Y120034D01*
X137323Y119672D01*
X138268D01*
X139140Y120034D01*
X139808Y120702D01*
X139823Y120738D01*
X139989Y120753D01*
X140136Y120756D01*
X140174Y120773D01*
X145141D01*
X149907Y116007D01*
Y111943D01*
X149213D01*
X148710Y111843D01*
X148284Y111558D01*
X148000Y111132D01*
X147900Y110630D01*
X148000Y110128D01*
X148284Y109702D01*
X148710Y109417D01*
X149213Y109317D01*
X153150D01*
X153652Y109417D01*
X154078Y109702D01*
X154362Y110128D01*
X154462Y110630D01*
X154362Y111132D01*
X154078Y111558D01*
X153652Y111843D01*
X153150Y111943D01*
X152456D01*
Y116535D01*
X152359Y117023D01*
X152082Y117437D01*
X146571Y122948D01*
X146157Y123225D01*
X145669Y123322D01*
X140174D01*
X140136Y123338D01*
X139982Y123342D01*
X139852Y123350D01*
X139825Y123354D01*
X139808Y123392D01*
X139140Y124060D01*
X138268Y124422D01*
D02*
G37*
G36*
X223441Y111728D02*
X221472D01*
Y109268D01*
X223441D01*
Y111728D01*
D02*
G37*
G36*
X219472D02*
X217504D01*
Y109268D01*
X219472D01*
Y111728D01*
D02*
G37*
G36*
X202279Y106905D02*
X199819D01*
Y104937D01*
X202279D01*
Y106905D01*
D02*
G37*
G36*
X197819D02*
X195358D01*
Y104937D01*
X197819D01*
Y106905D01*
D02*
G37*
G36*
X223441Y107268D02*
X221472D01*
Y104807D01*
X223441D01*
Y107268D01*
D02*
G37*
G36*
X219472D02*
X217504D01*
Y104807D01*
X219472D01*
Y107268D01*
D02*
G37*
G36*
X141732Y107574D02*
X110236D01*
X109748Y107477D01*
X109335Y107200D01*
X102445Y100311D01*
X102169Y99897D01*
X102072Y99410D01*
Y95883D01*
X102055Y95845D01*
X102052Y95691D01*
X102043Y95561D01*
X102040Y95533D01*
X102001Y95517D01*
X101333Y94849D01*
X100972Y93976D01*
Y93032D01*
X101333Y92159D01*
X102001Y91491D01*
X102874Y91129D01*
X103819D01*
X104692Y91491D01*
X105360Y92159D01*
X105721Y93032D01*
Y93976D01*
X105360Y94849D01*
X104692Y95517D01*
X104656Y95532D01*
X104641Y95698D01*
X104638Y95845D01*
X104621Y95883D01*
Y98882D01*
X110764Y105025D01*
X141204D01*
X142800Y103429D01*
X143213Y103153D01*
X143701Y103056D01*
X147902D01*
X148053Y102556D01*
X147924Y102470D01*
X147731Y102181D01*
X151181D01*
X154631D01*
X154438Y102470D01*
X154010Y102756D01*
X153954Y103257D01*
X153976Y103334D01*
X154078Y103402D01*
X154362Y103828D01*
X154462Y104331D01*
X154362Y104833D01*
X154078Y105259D01*
X153652Y105543D01*
X153150Y105643D01*
X149213D01*
X149021Y105605D01*
X144229D01*
X142633Y107200D01*
X142220Y107477D01*
X141732Y107574D01*
D02*
G37*
G36*
X202279Y102937D02*
X199819D01*
Y100969D01*
X202279D01*
Y102937D01*
D02*
G37*
G36*
X197819D02*
X195358D01*
Y100969D01*
X197819D01*
Y102937D01*
D02*
G37*
G36*
X76787Y101886D02*
X74819D01*
Y99425D01*
X76787D01*
Y101886D01*
D02*
G37*
G36*
X72819D02*
X70850D01*
Y99425D01*
X72819D01*
Y101886D01*
D02*
G37*
G36*
X129929Y102862D02*
X124008D01*
Y98231D01*
X124008Y97925D01*
X123588Y97731D01*
X110647D01*
X110609Y97748D01*
X110454Y97751D01*
X110325Y97760D01*
X110297Y97763D01*
X110281Y97802D01*
X109613Y98470D01*
X108740Y98831D01*
X107795D01*
X106922Y98470D01*
X106254Y97802D01*
X105893Y96929D01*
Y95984D01*
X106254Y95112D01*
X106922Y94443D01*
X107795Y94082D01*
X108740D01*
X109613Y94443D01*
X110281Y95112D01*
X110296Y95147D01*
X110461Y95162D01*
X110609Y95166D01*
X110647Y95182D01*
X123508D01*
Y93520D01*
X126969D01*
X130429D01*
Y95182D01*
X143173D01*
X144374Y93981D01*
X144788Y93704D01*
X145276Y93607D01*
X149021D01*
X149213Y93569D01*
X153150D01*
X153652Y93669D01*
X154078Y93954D01*
X154362Y94380D01*
X154462Y94882D01*
X154362Y95384D01*
X154078Y95810D01*
X153652Y96095D01*
X153150Y96194D01*
X149213D01*
X149021Y96156D01*
X145803D01*
X144602Y97358D01*
X144188Y97634D01*
X143701Y97731D01*
X130349D01*
X129929Y97925D01*
X129929Y98231D01*
Y99119D01*
X144157D01*
X146146Y97130D01*
X146560Y96854D01*
X147047Y96757D01*
X149021D01*
X149213Y96719D01*
X153150D01*
X153652Y96819D01*
X154078Y97103D01*
X154362Y97529D01*
X154462Y98032D01*
X154362Y98534D01*
X154078Y98960D01*
X153976Y99028D01*
X153954Y99106D01*
X154010Y99606D01*
X154438Y99892D01*
X154631Y100181D01*
X151181D01*
X147731D01*
X147831Y100031D01*
X147707Y99590D01*
X147636Y99492D01*
X147425Y99456D01*
X145586Y101295D01*
X145173Y101571D01*
X144685Y101668D01*
X129929D01*
Y102862D01*
D02*
G37*
G36*
X349049Y110091D02*
X347802D01*
X346597Y109768D01*
X345517Y109145D01*
X344635Y108263D01*
X344011Y107183D01*
X343688Y105978D01*
Y104731D01*
X344011Y103526D01*
X344635Y102446D01*
X345517Y101564D01*
X346597Y100940D01*
X347431Y100717D01*
Y100199D01*
X346520Y99955D01*
X345394Y99305D01*
X344475Y98386D01*
X343825Y97260D01*
X343582Y96354D01*
X348425D01*
X353268D01*
X353026Y97260D01*
X352376Y98386D01*
X351457Y99305D01*
X350331Y99955D01*
X349420Y100199D01*
Y100717D01*
X350254Y100940D01*
X351334Y101564D01*
X352216Y102446D01*
X352839Y103526D01*
X353162Y104731D01*
Y105978D01*
X352839Y107183D01*
X352216Y108263D01*
X351334Y109145D01*
X350254Y109768D01*
X349049Y110091D01*
D02*
G37*
G36*
X10466Y109934D02*
X9219D01*
X8014Y109611D01*
X6934Y108987D01*
X6052Y108105D01*
X5428Y107025D01*
X5105Y105821D01*
Y104573D01*
X5428Y103368D01*
X6052Y102288D01*
X6934Y101406D01*
X8014Y100783D01*
X8848Y100559D01*
Y100042D01*
X7937Y99797D01*
X6811Y99147D01*
X5892Y98228D01*
X5242Y97102D01*
X4999Y96197D01*
X9843D01*
X14686D01*
X14443Y97102D01*
X13793Y98228D01*
X12874Y99147D01*
X11748Y99797D01*
X10837Y100042D01*
Y100559D01*
X11671Y100783D01*
X12751Y101406D01*
X13633Y102288D01*
X14257Y103368D01*
X14580Y104573D01*
Y105821D01*
X14257Y107025D01*
X13633Y108105D01*
X12751Y108987D01*
X11671Y109611D01*
X10466Y109934D01*
D02*
G37*
G36*
X165854Y148630D02*
X160917D01*
Y142709D01*
X165854D01*
Y144395D01*
X210496D01*
X232978Y121913D01*
Y100804D01*
X232961Y100766D01*
X232958Y100612D01*
X232949Y100482D01*
X232945Y100454D01*
X232907Y100438D01*
X232239Y99770D01*
X231877Y98898D01*
Y97953D01*
X232239Y97080D01*
X232907Y96412D01*
X233780Y96050D01*
X234724D01*
X235597Y96412D01*
X236265Y97080D01*
X236627Y97953D01*
Y98898D01*
X236265Y99770D01*
X235597Y100438D01*
X235562Y100453D01*
X235546Y100619D01*
X235543Y100766D01*
X235526Y100804D01*
Y122441D01*
X235429Y122929D01*
X235153Y123342D01*
X211925Y146571D01*
X211511Y146847D01*
X211024Y146944D01*
X165854D01*
Y148630D01*
D02*
G37*
G36*
X76787Y97425D02*
X74819D01*
Y94965D01*
X76787D01*
Y97425D01*
D02*
G37*
G36*
X72819D02*
X70850D01*
Y94965D01*
X72819D01*
Y97425D01*
D02*
G37*
G36*
X215067Y111228D02*
X210130D01*
Y105307D01*
X211085D01*
Y101079D01*
X208161D01*
Y95355D01*
X211324D01*
Y94032D01*
X210299Y93007D01*
X187200D01*
X187008Y93045D01*
X183071D01*
X182569Y92945D01*
X182143Y92660D01*
X181858Y92235D01*
X181758Y91732D01*
X181858Y91230D01*
X182143Y90804D01*
X182569Y90520D01*
X183071Y90420D01*
X187008D01*
X187200Y90458D01*
X210827D01*
X211315Y90555D01*
X211728Y90831D01*
X213500Y92603D01*
X213776Y93016D01*
X213873Y93504D01*
Y95355D01*
X217035D01*
Y101079D01*
X214112D01*
Y105307D01*
X215067D01*
Y111228D01*
D02*
G37*
G36*
X353268Y94354D02*
X349425D01*
Y90511D01*
X350331Y90754D01*
X351457Y91404D01*
X352376Y92323D01*
X353026Y93449D01*
X353268Y94354D01*
D02*
G37*
G36*
X347425D02*
X343582D01*
X343825Y93449D01*
X344475Y92323D01*
X345394Y91404D01*
X346520Y90754D01*
X347425Y90511D01*
Y94354D01*
D02*
G37*
G36*
X165854Y180126D02*
X160917D01*
Y174205D01*
X165854D01*
Y175891D01*
X194354D01*
X238883Y131362D01*
Y94898D01*
X238866Y94861D01*
X238863Y94706D01*
X238854Y94577D01*
X238851Y94549D01*
X238812Y94533D01*
X238144Y93865D01*
X237783Y92992D01*
Y92047D01*
X238144Y91175D01*
X238812Y90506D01*
X239685Y90145D01*
X240630D01*
X241503Y90506D01*
X242171Y91175D01*
X242532Y92047D01*
Y92992D01*
X242171Y93865D01*
X241503Y94533D01*
X241467Y94548D01*
X241452Y94713D01*
X241449Y94861D01*
X241432Y94898D01*
Y131890D01*
X241335Y132378D01*
X241059Y132791D01*
X195783Y178067D01*
X195370Y178343D01*
X194882Y178440D01*
X165854D01*
Y180126D01*
D02*
G37*
G36*
X125969Y91520D02*
X123508D01*
Y89551D01*
X125969D01*
Y91520D01*
D02*
G37*
G36*
X14686Y94197D02*
X9843D01*
X4999D01*
X5242Y93291D01*
X5892Y92165D01*
X6811Y91246D01*
X7905Y90615D01*
X7923Y90590D01*
X8124Y90275D01*
X8165Y90197D01*
X8124Y90119D01*
X7923Y89804D01*
X7905Y89779D01*
X6811Y89147D01*
X5892Y88228D01*
X5242Y87103D01*
X4999Y86197D01*
X9843D01*
X14686D01*
X14443Y87103D01*
X13793Y88228D01*
X12874Y89147D01*
X11780Y89779D01*
X11762Y89804D01*
X11561Y90119D01*
X11520Y90197D01*
X11561Y90275D01*
X11762Y90590D01*
X11780Y90615D01*
X12874Y91246D01*
X13793Y92165D01*
X14443Y93291D01*
X14686Y94197D01*
D02*
G37*
G36*
X143224Y86630D02*
X140764D01*
Y84661D01*
X143224D01*
Y86630D01*
D02*
G37*
G36*
X138764D02*
X136303D01*
Y84661D01*
X138764D01*
Y86630D01*
D02*
G37*
G36*
X165854Y211622D02*
X160917D01*
Y205701D01*
X165854D01*
Y207387D01*
X192385D01*
X244789Y154984D01*
Y88993D01*
X244772Y88955D01*
X244769Y88801D01*
X244760Y88671D01*
X244757Y88643D01*
X244718Y88627D01*
X244050Y87959D01*
X243688Y87086D01*
Y86142D01*
X244050Y85269D01*
X244718Y84601D01*
X245591Y84239D01*
X246535D01*
X247408Y84601D01*
X248076Y85269D01*
X248438Y86142D01*
Y87086D01*
X248076Y87959D01*
X247408Y88627D01*
X247373Y88642D01*
X247357Y88808D01*
X247354Y88955D01*
X247338Y88993D01*
Y155512D01*
X247240Y156000D01*
X246964Y156413D01*
X193815Y209563D01*
X193401Y209839D01*
X192913Y209936D01*
X165854D01*
Y211622D01*
D02*
G37*
G36*
X74646Y86457D02*
X73820Y86348D01*
X73051Y86030D01*
X72390Y85523D01*
X71883Y84863D01*
X71565Y84093D01*
X71546Y83952D01*
X61524D01*
Y85638D01*
X56587D01*
Y79716D01*
X61524D01*
Y81403D01*
X71546D01*
X71565Y81261D01*
X71883Y80492D01*
X72390Y79831D01*
X73051Y79324D01*
X73820Y79006D01*
X74646Y78897D01*
X75471Y79006D01*
X76240Y79324D01*
X76901Y79831D01*
X77408Y80492D01*
X77727Y81261D01*
X77835Y82087D01*
Y83268D01*
X77727Y84093D01*
X77408Y84863D01*
X76901Y85523D01*
X76240Y86030D01*
X75471Y86348D01*
X74646Y86457D01*
D02*
G37*
G36*
X143224Y82661D02*
X140764D01*
Y80693D01*
X143224D01*
Y82661D01*
D02*
G37*
G36*
X138764D02*
X136303D01*
Y80693D01*
X138764D01*
Y82661D01*
D02*
G37*
G36*
X8843Y84197D02*
X4999D01*
X5242Y83291D01*
X5892Y82165D01*
X6811Y81246D01*
X7937Y80596D01*
X8843Y80354D01*
Y84197D01*
D02*
G37*
G36*
X14686D02*
X10842D01*
Y80354D01*
X11748Y80596D01*
X12874Y81246D01*
X13793Y82165D01*
X14443Y83291D01*
X14686Y84197D01*
D02*
G37*
G36*
X172835Y85958D02*
X172332Y85858D01*
X171906Y85574D01*
X171622Y85148D01*
X171522Y84646D01*
Y80709D01*
X171622Y80206D01*
X171906Y79781D01*
X172332Y79496D01*
X172835Y79396D01*
X173337Y79496D01*
X173763Y79781D01*
X174047Y80206D01*
X174147Y80709D01*
Y84646D01*
X174047Y85148D01*
X173763Y85574D01*
X173337Y85858D01*
X172835Y85958D01*
D02*
G37*
G36*
X85118Y194304D02*
X84173D01*
X83301Y193942D01*
X82632Y193274D01*
X82271Y192402D01*
Y191457D01*
X82632Y190584D01*
X82932Y190285D01*
Y180918D01*
X81484D01*
Y173413D01*
X82932D01*
Y165362D01*
X82177D01*
Y159441D01*
X82932D01*
Y149422D01*
X81484D01*
Y141917D01*
X82932D01*
Y117926D01*
X81484D01*
Y110421D01*
X82932D01*
Y101386D01*
X79224D01*
Y95465D01*
X82932D01*
Y86430D01*
X81484D01*
Y78924D01*
X87808D01*
Y86430D01*
X86360D01*
Y110421D01*
X87808D01*
Y117926D01*
X86360D01*
Y141917D01*
X87808D01*
Y149422D01*
X86360D01*
Y159441D01*
X87114D01*
Y165362D01*
X86360D01*
Y173413D01*
X87808D01*
Y180918D01*
X86360D01*
Y190285D01*
X86659Y190584D01*
X87020Y191457D01*
Y192402D01*
X86659Y193274D01*
X85991Y193942D01*
X85118Y194304D01*
D02*
G37*
G36*
X134331Y81115D02*
X133386D01*
X132513Y80753D01*
X131845Y80085D01*
X131483Y79212D01*
Y78268D01*
X131498Y78232D01*
X131392Y78104D01*
X131290Y77998D01*
X131275Y77959D01*
X129020Y75704D01*
X128744Y75291D01*
X128647Y74803D01*
Y72843D01*
X126469D01*
Y71156D01*
X123531D01*
Y72843D01*
X118595D01*
Y66921D01*
X118804D01*
Y46152D01*
X118901Y45665D01*
X119177Y45251D01*
X120246Y44183D01*
X120225Y44163D01*
X119653Y43172D01*
X119358Y42068D01*
Y40924D01*
X119653Y39820D01*
X120225Y38829D01*
X121034Y38021D01*
X122024Y37449D01*
X123129Y37153D01*
X124273D01*
X125377Y37449D01*
X126368Y38021D01*
X127176Y38829D01*
X127748Y39820D01*
X128044Y40924D01*
Y42068D01*
X127748Y43172D01*
X127176Y44163D01*
X126368Y44972D01*
X125377Y45543D01*
X124273Y45839D01*
X123129D01*
X122392Y45642D01*
X121353Y46680D01*
Y66921D01*
X123531D01*
Y68607D01*
X126469D01*
Y66921D01*
X131405D01*
Y72843D01*
X131196D01*
Y74275D01*
X133077Y76157D01*
X133116Y76172D01*
X133227Y76279D01*
X133325Y76364D01*
X133347Y76381D01*
X133386Y76365D01*
X134331D01*
X135204Y76727D01*
X135872Y77395D01*
X136233Y78268D01*
Y79212D01*
X135872Y80085D01*
X135204Y80753D01*
X134331Y81115D01*
D02*
G37*
G36*
X179134Y85958D02*
X178631Y85858D01*
X178206Y85574D01*
X177921Y85148D01*
X177821Y84646D01*
Y80709D01*
X177921Y80206D01*
X178206Y79781D01*
X178631Y79496D01*
X179134Y79396D01*
X179636Y79496D01*
X180062Y79781D01*
X180347Y80206D01*
X180447Y80709D01*
Y81403D01*
X184511D01*
X185733Y80181D01*
Y79150D01*
X185717Y79113D01*
X185714Y78958D01*
X185705Y78829D01*
X185701Y78801D01*
X185663Y78785D01*
X184995Y78117D01*
X184633Y77244D01*
Y76299D01*
X184995Y75426D01*
X185663Y74758D01*
X186536Y74397D01*
X187480D01*
X188353Y74758D01*
X189021Y75426D01*
X189383Y76299D01*
Y77244D01*
X189021Y78117D01*
X188353Y78785D01*
X188318Y78800D01*
X188302Y78965D01*
X188299Y79113D01*
X188282Y79150D01*
Y80709D01*
X188185Y81196D01*
X187909Y81610D01*
X185941Y83578D01*
X185527Y83855D01*
X185039Y83952D01*
X180447D01*
Y84646D01*
X180347Y85148D01*
X180062Y85574D01*
X179636Y85858D01*
X179134Y85958D01*
D02*
G37*
G36*
X223441Y74327D02*
X221472D01*
Y71866D01*
X223441D01*
Y74327D01*
D02*
G37*
G36*
X219472D02*
X217504D01*
Y71866D01*
X219472D01*
Y74327D01*
D02*
G37*
G36*
X139779Y73343D02*
X137811D01*
Y70882D01*
X139779D01*
Y73343D01*
D02*
G37*
G36*
X135811D02*
X133843D01*
Y70882D01*
X135811D01*
Y73343D01*
D02*
G37*
G36*
X187008Y89895D02*
X183071D01*
X182569Y89795D01*
X182143Y89511D01*
X181858Y89085D01*
X181758Y88583D01*
X181858Y88080D01*
X182143Y87655D01*
X182569Y87370D01*
X183071Y87270D01*
X187008D01*
X187200Y87308D01*
X210102D01*
X211324Y86086D01*
Y83779D01*
X208161D01*
Y78055D01*
X211085D01*
Y73827D01*
X210130D01*
Y67905D01*
X215067D01*
Y73827D01*
X214112D01*
Y78055D01*
X217035D01*
Y83779D01*
X213873D01*
Y86614D01*
X213776Y87102D01*
X213500Y87515D01*
X211643Y89372D01*
X211576Y89417D01*
X211531Y89484D01*
X211118Y89760D01*
X210630Y89857D01*
X187200D01*
X187008Y89895D01*
D02*
G37*
G36*
X223441Y69866D02*
X221472D01*
Y67405D01*
X223441D01*
Y69866D01*
D02*
G37*
G36*
X219472D02*
X217504D01*
Y67405D01*
X219472D01*
Y69866D01*
D02*
G37*
G36*
X139779Y68882D02*
X137811D01*
Y66421D01*
X139779D01*
Y68882D01*
D02*
G37*
G36*
X135811D02*
X133843D01*
Y66421D01*
X135811D01*
Y68882D01*
D02*
G37*
G36*
X74646Y54961D02*
X73820Y54852D01*
X73051Y54534D01*
X72390Y54027D01*
X71883Y53366D01*
X71565Y52597D01*
X71546Y52456D01*
X61524D01*
Y54142D01*
X56587D01*
Y48221D01*
X61524D01*
Y49907D01*
X71546D01*
X71565Y49765D01*
X71883Y48996D01*
X72390Y48335D01*
X73051Y47828D01*
X73820Y47510D01*
X74646Y47401D01*
X75471Y47510D01*
X76240Y47828D01*
X76901Y48335D01*
X77408Y48996D01*
X77727Y49765D01*
X77835Y50591D01*
Y51772D01*
X77727Y52597D01*
X77408Y53366D01*
X76901Y54027D01*
X76240Y54534D01*
X75471Y54852D01*
X74646Y54961D01*
D02*
G37*
G36*
X242626Y58079D02*
X237689D01*
Y56393D01*
X228346D01*
X227859Y56296D01*
X227445Y56019D01*
X223508Y52082D01*
X223232Y51669D01*
X223135Y51181D01*
Y48531D01*
X221744D01*
Y45169D01*
X227075D01*
Y48531D01*
X225684D01*
Y50653D01*
X228874Y53844D01*
X237689D01*
Y52157D01*
X242626D01*
Y58079D01*
D02*
G37*
G36*
X87808Y54934D02*
X81484D01*
Y47428D01*
X87808D01*
Y54934D01*
D02*
G37*
G36*
X237024Y45291D02*
X234858D01*
Y44110D01*
X237024D01*
Y45291D01*
D02*
G37*
G36*
X232858D02*
X230693D01*
Y44110D01*
X232858D01*
Y45291D01*
D02*
G37*
G36*
X237024Y42110D02*
X234858D01*
Y40929D01*
X237024D01*
Y42110D01*
D02*
G37*
G36*
X232858D02*
X230693D01*
Y40929D01*
X232858D01*
Y42110D01*
D02*
G37*
G36*
X203256Y42331D02*
X198319D01*
Y36409D01*
X203256D01*
Y38096D01*
X221744D01*
Y37689D01*
X227075D01*
Y41051D01*
X221744D01*
Y40645D01*
X203256D01*
Y42331D01*
D02*
G37*
G36*
X153150Y89895D02*
X149213D01*
X148710Y89795D01*
X148284Y89511D01*
X148000Y89085D01*
X147900Y88583D01*
X148000Y88080D01*
X148284Y87655D01*
X148710Y87370D01*
X149213Y87270D01*
X149907D01*
Y74937D01*
X132800Y57830D01*
X132523Y57417D01*
X132426Y56929D01*
Y45651D01*
X132024Y45543D01*
X131034Y44972D01*
X130225Y44163D01*
X129654Y43172D01*
X129358Y42068D01*
Y40924D01*
X129654Y39820D01*
X130225Y38829D01*
X131034Y38021D01*
X132024Y37449D01*
X133129Y37153D01*
X134273D01*
X135377Y37449D01*
X136368Y38021D01*
X137176Y38829D01*
X137748Y39820D01*
X138044Y40924D01*
Y42068D01*
X137748Y43172D01*
X137176Y44163D01*
X136368Y44972D01*
X135377Y45543D01*
X134975Y45651D01*
Y56401D01*
X152082Y73508D01*
X152359Y73922D01*
X152456Y74410D01*
Y87270D01*
X153150D01*
X153652Y87370D01*
X154078Y87655D01*
X154362Y88080D01*
X154462Y88583D01*
X154362Y89085D01*
X154078Y89511D01*
X153652Y89795D01*
X153150Y89895D01*
D02*
G37*
G36*
X175984Y85958D02*
X175482Y85858D01*
X175056Y85574D01*
X174772Y85148D01*
X174672Y84646D01*
Y80709D01*
X174710Y80517D01*
Y48425D01*
X174807Y47938D01*
X175083Y47524D01*
X184138Y38469D01*
X184552Y38193D01*
X185039Y38096D01*
X190445D01*
Y36409D01*
X195382D01*
Y42331D01*
X190445D01*
Y40645D01*
X185567D01*
X177259Y48953D01*
Y80517D01*
X177297Y80709D01*
Y84646D01*
X177197Y85148D01*
X176912Y85574D01*
X176487Y85858D01*
X175984Y85958D01*
D02*
G37*
G36*
X250500Y58079D02*
X245563D01*
Y52157D01*
X246757D01*
Y42823D01*
X244579D01*
Y35917D01*
X251484D01*
Y38096D01*
X263969D01*
X264036Y37846D01*
X264556Y36945D01*
X265291Y36210D01*
X266192Y35690D01*
X267197Y35421D01*
X268236D01*
X269241Y35690D01*
X270142Y36210D01*
X270877Y36945D01*
X271397Y37846D01*
X271666Y38850D01*
Y39890D01*
X271397Y40895D01*
X270877Y41795D01*
X270142Y42531D01*
X269241Y43051D01*
X268236Y43320D01*
X267197D01*
X266192Y43051D01*
X265291Y42531D01*
X264556Y41795D01*
X264036Y40895D01*
X263969Y40645D01*
X251484D01*
Y42823D01*
X249306D01*
Y52157D01*
X250500D01*
Y58079D01*
D02*
G37*
G36*
X124701Y35932D02*
Y32496D01*
X128136D01*
X127935Y33250D01*
X127336Y34286D01*
X126490Y35132D01*
X125454Y35730D01*
X124701Y35932D01*
D02*
G37*
G36*
X122701Y35932D02*
X121947Y35730D01*
X120911Y35132D01*
X120065Y34286D01*
X119467Y33250D01*
X119265Y32496D01*
X122701D01*
Y35932D01*
D02*
G37*
G36*
Y30496D02*
X119265D01*
X119467Y29742D01*
X120065Y28706D01*
X120911Y27861D01*
X121947Y27262D01*
X122701Y27060D01*
Y30496D01*
D02*
G37*
G36*
X128136D02*
X124701D01*
Y27060D01*
X125454Y27262D01*
X126490Y27861D01*
X127336Y28706D01*
X127935Y29742D01*
X128136Y30496D01*
D02*
G37*
G36*
X160941Y26590D02*
X158480D01*
Y24622D01*
X160941D01*
Y26590D01*
D02*
G37*
G36*
X156480D02*
X154020D01*
Y24622D01*
X156480D01*
Y26590D01*
D02*
G37*
G36*
X160941Y22622D02*
X158480D01*
Y20653D01*
X160941D01*
Y22622D01*
D02*
G37*
G36*
X156480D02*
X154020D01*
Y20653D01*
X156480D01*
Y22622D01*
D02*
G37*
G36*
X345136Y18701D02*
X343840D01*
X342589Y18365D01*
X341466Y17718D01*
X340550Y16801D01*
X339902Y15679D01*
X339567Y14427D01*
Y13132D01*
X339902Y11880D01*
X340550Y10758D01*
X341466Y9842D01*
X342589Y9194D01*
X343840Y8858D01*
X345136D01*
X346388Y9194D01*
X347510Y9842D01*
X348426Y10758D01*
X349074Y11880D01*
X349409Y13132D01*
Y14427D01*
X349074Y15679D01*
X348426Y16801D01*
X347510Y17718D01*
X346388Y18365D01*
X345136Y18701D01*
D02*
G37*
G36*
X14427D02*
X13132D01*
X11880Y18365D01*
X10758Y17718D01*
X9842Y16801D01*
X9194Y15679D01*
X8858Y14427D01*
Y13132D01*
X9194Y11880D01*
X9842Y10758D01*
X10758Y9842D01*
X11880Y9194D01*
X13132Y8858D01*
X14427D01*
X15679Y9194D01*
X16801Y9842D01*
X17718Y10758D01*
X18365Y11880D01*
X18701Y13132D01*
Y14427D01*
X18365Y15679D01*
X17718Y16801D01*
X16801Y17718D01*
X15679Y18365D01*
X14427Y18701D01*
D02*
G37*
%LPD*%
G36*
X52217Y185809D02*
X52157Y185724D01*
X52104Y185630D01*
X52058Y185525D01*
X52019Y185409D01*
X51987Y185284D01*
X51963Y185148D01*
X51945Y185002D01*
X51935Y184845D01*
X51931Y184678D01*
X50431Y184678D01*
X50428Y184845D01*
X50399Y185148D01*
X50375Y185284D01*
X50343Y185409D01*
X50304Y185525D01*
X50258Y185630D01*
X50206Y185724D01*
X50146Y185809D01*
X50079Y185883D01*
X52284Y185883D01*
X52217Y185809D01*
D02*
G37*
G36*
X164139Y76966D02*
X164167Y76663D01*
X164192Y76527D01*
X164224Y76402D01*
X164263Y76286D01*
X164309Y76181D01*
X164361Y76086D01*
X164421Y76002D01*
X164488Y75928D01*
X162284D01*
X162350Y76002D01*
X162410Y76086D01*
X162463Y76181D01*
X162509Y76286D01*
X162548Y76402D01*
X162579Y76527D01*
X162604Y76663D01*
X162622Y76810D01*
X162632Y76966D01*
X162636Y77133D01*
X164136D01*
X164139Y76966D01*
D02*
G37*
G36*
X170435Y77133D02*
X170439Y76966D01*
X170467Y76663D01*
X170491Y76527D01*
X170523Y76402D01*
X170562Y76286D01*
X170608Y76181D01*
X170661Y76086D01*
X170721Y76002D01*
X170787Y75928D01*
X168583Y75928D01*
X168650Y76002D01*
X168710Y76086D01*
X168762Y76181D01*
X168808Y76286D01*
X168847Y76402D01*
X168879Y76527D01*
X168903Y76663D01*
X168921Y76810D01*
X168931Y76966D01*
X168935Y77133D01*
X170435Y77133D01*
D02*
G37*
G36*
X167285Y73196D02*
X167289Y73029D01*
X167317Y72726D01*
X167342Y72590D01*
X167374Y72465D01*
X167412Y72349D01*
X167458Y72244D01*
X167511Y72149D01*
X167571Y72065D01*
X167638Y71991D01*
X165433Y71991D01*
X165500Y72065D01*
X165560Y72149D01*
X165613Y72244D01*
X165659Y72349D01*
X165697Y72465D01*
X165729Y72590D01*
X165754Y72726D01*
X165771Y72873D01*
X165782Y73029D01*
X165785Y73196D01*
X167285Y73196D01*
D02*
G37*
G36*
X52217Y154313D02*
X52157Y154228D01*
X52104Y154134D01*
X52058Y154029D01*
X52019Y153913D01*
X51987Y153788D01*
X51963Y153652D01*
X51945Y153506D01*
X51935Y153349D01*
X51931Y153182D01*
X50431D01*
X50428Y153349D01*
X50399Y153652D01*
X50375Y153788D01*
X50343Y153913D01*
X50304Y154029D01*
X50258Y154134D01*
X50206Y154228D01*
X50146Y154313D01*
X50079Y154387D01*
X52284D01*
X52217Y154313D01*
D02*
G37*
G36*
X98409Y146063D02*
X98310Y146058D01*
X98207Y146040D01*
X98103Y146011D01*
X97996Y145969D01*
X97887Y145915D01*
X97776Y145848D01*
X97663Y145770D01*
X97547Y145679D01*
X97429Y145576D01*
X97308Y145460D01*
X96248Y146521D01*
X96363Y146641D01*
X96557Y146875D01*
X96636Y146989D01*
X96702Y147100D01*
X96756Y147209D01*
X96798Y147316D01*
X96828Y147420D01*
X96845Y147522D01*
X96851Y147622D01*
X98409Y146063D01*
D02*
G37*
G36*
X52217Y122817D02*
X52157Y122732D01*
X52104Y122638D01*
X52058Y122532D01*
X52019Y122417D01*
X51987Y122292D01*
X51963Y122156D01*
X51945Y122009D01*
X51935Y121853D01*
X51931Y121686D01*
X50431D01*
X50428Y121853D01*
X50399Y122156D01*
X50375Y122292D01*
X50343Y122417D01*
X50304Y122532D01*
X50258Y122638D01*
X50206Y122732D01*
X50146Y122817D01*
X50079Y122891D01*
X52284D01*
X52217Y122817D01*
D02*
G37*
G36*
X193757Y134724D02*
X193683Y134791D01*
X193598Y134851D01*
X193504Y134904D01*
X193399Y134950D01*
X193283Y134989D01*
X193158Y135020D01*
X193022Y135045D01*
X192876Y135063D01*
X192719Y135073D01*
X192552Y135077D01*
Y136577D01*
X192719Y136580D01*
X193022Y136609D01*
X193158Y136633D01*
X193283Y136665D01*
X193399Y136704D01*
X193504Y136749D01*
X193598Y136802D01*
X193683Y136862D01*
X193757Y136929D01*
Y134724D01*
D02*
G37*
G36*
Y128819D02*
X193683Y128886D01*
X193598Y128946D01*
X193504Y128999D01*
X193399Y129044D01*
X193283Y129083D01*
X193158Y129115D01*
X193022Y129140D01*
X192876Y129157D01*
X192719Y129168D01*
X192552Y129171D01*
Y130671D01*
X192719Y130675D01*
X193022Y130703D01*
X193158Y130728D01*
X193283Y130759D01*
X193399Y130798D01*
X193504Y130844D01*
X193598Y130897D01*
X193683Y130957D01*
X193757Y131024D01*
Y128819D01*
D02*
G37*
G36*
Y122913D02*
X193683Y122980D01*
X193598Y123040D01*
X193504Y123093D01*
X193399Y123139D01*
X193283Y123178D01*
X193158Y123209D01*
X193022Y123234D01*
X192876Y123252D01*
X192719Y123262D01*
X192552Y123266D01*
Y124766D01*
X192719Y124769D01*
X193022Y124797D01*
X193158Y124822D01*
X193283Y124854D01*
X193399Y124893D01*
X193504Y124938D01*
X193598Y124991D01*
X193683Y125051D01*
X193757Y125118D01*
Y122913D01*
D02*
G37*
G36*
Y117008D02*
X193683Y117075D01*
X193598Y117135D01*
X193504Y117188D01*
X193399Y117233D01*
X193283Y117272D01*
X193158Y117304D01*
X193022Y117329D01*
X192876Y117346D01*
X192719Y117357D01*
X192552Y117360D01*
Y118860D01*
X192719Y118864D01*
X193022Y118892D01*
X193158Y118917D01*
X193283Y118948D01*
X193399Y118987D01*
X193504Y119033D01*
X193598Y119086D01*
X193683Y119146D01*
X193757Y119213D01*
Y117008D01*
D02*
G37*
G36*
X113240Y162187D02*
X113180Y162102D01*
X113127Y162008D01*
X113082Y161903D01*
X113043Y161787D01*
X113011Y161662D01*
X112986Y161526D01*
X112969Y161380D01*
X112958Y161223D01*
X112955Y161056D01*
X111455D01*
X111451Y161223D01*
X111423Y161526D01*
X111398Y161662D01*
X111367Y161787D01*
X111328Y161903D01*
X111282Y162008D01*
X111229Y162102D01*
X111169Y162187D01*
X111102Y162261D01*
X113307D01*
X113240Y162187D01*
D02*
G37*
G36*
X119309Y144736D02*
X119394Y144676D01*
X119488Y144623D01*
X119594Y144578D01*
X119709Y144539D01*
X119834Y144507D01*
X119970Y144483D01*
X120117Y144465D01*
X120273Y144454D01*
X120440Y144451D01*
Y142951D01*
X120273Y142947D01*
X119970Y142919D01*
X119834Y142894D01*
X119709Y142863D01*
X119594Y142824D01*
X119488Y142778D01*
X119394Y142725D01*
X119309Y142665D01*
X119235Y142598D01*
Y144803D01*
X119309Y144736D01*
D02*
G37*
G36*
X123246Y138837D02*
X123331Y138777D01*
X123425Y138724D01*
X123530Y138678D01*
X123646Y138640D01*
X123772Y138608D01*
X123907Y138583D01*
X124054Y138566D01*
X124210Y138555D01*
X124377Y138551D01*
Y137051D01*
X124210Y137048D01*
X123907Y137020D01*
X123772Y136995D01*
X123646Y136963D01*
X123530Y136925D01*
X123425Y136879D01*
X123331Y136826D01*
X123246Y136766D01*
X123172Y136699D01*
Y138904D01*
X123246Y138837D01*
D02*
G37*
G36*
X153787Y135749D02*
X153541Y135288D01*
X153350Y135326D01*
X123583D01*
X123449Y135652D01*
X123430Y135826D01*
X124060Y136456D01*
X124075Y136492D01*
X124241Y136507D01*
X124388Y136510D01*
X124426Y136527D01*
X153009D01*
X153787Y135749D01*
D02*
G37*
G36*
X117336Y135087D02*
X117420Y135027D01*
X117515Y134974D01*
X117620Y134928D01*
X117736Y134890D01*
X117861Y134858D01*
X117997Y134833D01*
X118143Y134816D01*
X118300Y134805D01*
X118467Y134801D01*
Y133301D01*
X118300Y133298D01*
X117997Y133270D01*
X117861Y133245D01*
X117736Y133213D01*
X117620Y133175D01*
X117515Y133129D01*
X117420Y133076D01*
X117336Y133016D01*
X117262Y132949D01*
Y135154D01*
X117336Y135087D01*
D02*
G37*
G36*
X153981Y131619D02*
X153734Y131158D01*
X153543Y131196D01*
X116656D01*
X116609Y131677D01*
X117482Y132038D01*
X118150Y132706D01*
X118165Y132742D01*
X118331Y132757D01*
X118478Y132760D01*
X118516Y132777D01*
X152822D01*
X153981Y131619D01*
D02*
G37*
G36*
X170721Y126754D02*
X170661Y126669D01*
X170608Y126575D01*
X170562Y126470D01*
X170523Y126354D01*
X170491Y126228D01*
X170467Y126093D01*
X170449Y125946D01*
X170439Y125790D01*
X170435Y125623D01*
X168935Y125623D01*
X168931Y125790D01*
X168903Y126093D01*
X168879Y126228D01*
X168847Y126354D01*
X168808Y126470D01*
X168762Y126575D01*
X168710Y126669D01*
X168650Y126754D01*
X168583Y126828D01*
X170787Y126828D01*
X170721Y126754D01*
D02*
G37*
G36*
X194866Y110630D02*
X194766Y110625D01*
X194664Y110608D01*
X194560Y110578D01*
X194453Y110536D01*
X194344Y110482D01*
X194233Y110415D01*
X194119Y110337D01*
X194003Y110246D01*
X193885Y110143D01*
X193765Y110027D01*
X192704Y111088D01*
X192820Y111208D01*
X193014Y111442D01*
X193093Y111556D01*
X193159Y111667D01*
X193213Y111776D01*
X193255Y111883D01*
X193285Y111987D01*
X193302Y112089D01*
X193307Y112189D01*
X194866Y110630D01*
D02*
G37*
G36*
X138994Y123083D02*
X139079Y123023D01*
X139173Y122970D01*
X139278Y122924D01*
X139394Y122885D01*
X139520Y122854D01*
X139655Y122829D01*
X139802Y122811D01*
X139958Y122801D01*
X140125Y122797D01*
Y121297D01*
X139958Y121294D01*
X139655Y121265D01*
X139520Y121241D01*
X139394Y121209D01*
X139278Y121170D01*
X139173Y121125D01*
X139079Y121072D01*
X138994Y121012D01*
X138920Y120945D01*
Y123150D01*
X138994Y123083D01*
D02*
G37*
G36*
X104100Y95667D02*
X104128Y95364D01*
X104153Y95228D01*
X104184Y95103D01*
X104223Y94987D01*
X104269Y94882D01*
X104322Y94787D01*
X104382Y94703D01*
X104449Y94629D01*
X102244D01*
X102311Y94703D01*
X102371Y94787D01*
X102424Y94882D01*
X102470Y94987D01*
X102508Y95103D01*
X102540Y95228D01*
X102565Y95364D01*
X102582Y95510D01*
X102593Y95667D01*
X102596Y95834D01*
X104096D01*
X104100Y95667D01*
D02*
G37*
G36*
X109467Y97492D02*
X109551Y97432D01*
X109646Y97379D01*
X109751Y97334D01*
X109866Y97295D01*
X109992Y97263D01*
X110128Y97238D01*
X110274Y97221D01*
X110431Y97210D01*
X110597Y97207D01*
Y95707D01*
X110431Y95703D01*
X110128Y95675D01*
X109992Y95650D01*
X109866Y95619D01*
X109751Y95580D01*
X109646Y95534D01*
X109551Y95481D01*
X109467Y95421D01*
X109392Y95354D01*
Y97559D01*
X109467Y97492D01*
D02*
G37*
G36*
X235005Y100588D02*
X235034Y100285D01*
X235058Y100149D01*
X235090Y100024D01*
X235129Y99908D01*
X235175Y99803D01*
X235227Y99709D01*
X235287Y99624D01*
X235354Y99550D01*
X233150D01*
X233217Y99624D01*
X233277Y99709D01*
X233329Y99803D01*
X233375Y99908D01*
X233414Y100024D01*
X233446Y100149D01*
X233470Y100285D01*
X233488Y100432D01*
X233499Y100588D01*
X233502Y100755D01*
X235002D01*
X235005Y100588D01*
D02*
G37*
G36*
X240911Y94683D02*
X240939Y94380D01*
X240964Y94244D01*
X240996Y94118D01*
X241034Y94003D01*
X241080Y93898D01*
X241133Y93803D01*
X241193Y93718D01*
X241260Y93644D01*
X239055D01*
X239122Y93718D01*
X239182Y93803D01*
X239235Y93898D01*
X239281Y94003D01*
X239319Y94118D01*
X239351Y94244D01*
X239376Y94380D01*
X239393Y94526D01*
X239404Y94683D01*
X239407Y94849D01*
X240908D01*
X240911Y94683D01*
D02*
G37*
G36*
X12217Y91997D02*
X11575Y91252D01*
X11315Y90895D01*
X11094Y90548D01*
X10914Y90212D01*
X10907Y90197D01*
X10914Y90182D01*
X11094Y89845D01*
X11315Y89499D01*
X11575Y89142D01*
X11876Y88774D01*
X12598Y88008D01*
X7087D01*
X7468Y88397D01*
X8110Y89142D01*
X8370Y89499D01*
X8591Y89845D01*
X8772Y90182D01*
X8778Y90197D01*
X8772Y90212D01*
X8591Y90548D01*
X8370Y90895D01*
X8110Y91252D01*
X7809Y91619D01*
X7087Y92385D01*
X12598D01*
X12217Y91997D01*
D02*
G37*
G36*
X246816Y88777D02*
X246845Y88474D01*
X246869Y88338D01*
X246901Y88213D01*
X246940Y88097D01*
X246986Y87992D01*
X247039Y87897D01*
X247098Y87813D01*
X247165Y87739D01*
X244961D01*
X245028Y87813D01*
X245088Y87897D01*
X245140Y87992D01*
X245186Y88097D01*
X245225Y88213D01*
X245257Y88338D01*
X245281Y88474D01*
X245299Y88621D01*
X245309Y88777D01*
X245313Y88944D01*
X246813D01*
X246816Y88777D01*
D02*
G37*
G36*
X133843Y77165D02*
X133743Y77160D01*
X133641Y77143D01*
X133536Y77113D01*
X133430Y77071D01*
X133320Y77017D01*
X133209Y76951D01*
X133096Y76872D01*
X132980Y76781D01*
X132862Y76678D01*
X132741Y76562D01*
X131681Y77623D01*
X131796Y77744D01*
X131990Y77978D01*
X132069Y78091D01*
X132135Y78202D01*
X132190Y78311D01*
X132231Y78418D01*
X132261Y78522D01*
X132278Y78625D01*
X132283Y78724D01*
X133843Y77165D01*
D02*
G37*
G36*
X187761Y78935D02*
X187790Y78632D01*
X187814Y78496D01*
X187846Y78370D01*
X187885Y78255D01*
X187931Y78150D01*
X187983Y78055D01*
X188043Y77970D01*
X188110Y77896D01*
X185906D01*
X185972Y77970D01*
X186032Y78055D01*
X186085Y78150D01*
X186131Y78255D01*
X186170Y78370D01*
X186202Y78496D01*
X186226Y78632D01*
X186244Y78778D01*
X186254Y78935D01*
X186258Y79101D01*
X187758D01*
X187761Y78935D01*
D02*
G37*
D27*
X9843Y85197D02*
Y95197D01*
X197244Y94882D02*
X198819Y96457D01*
X128937Y69882D02*
X129921Y70866D01*
Y74803D01*
X133858Y78740D01*
X120079Y46152D02*
X123701Y42530D01*
X120079Y68898D02*
X121063Y69882D01*
X120079Y46152D02*
Y68898D01*
X121063Y69882D02*
X128937D01*
X123701Y41496D02*
Y42530D01*
X151181Y91732D02*
X166535D01*
X139961D02*
X151181D01*
X139764Y91535D02*
X139961Y91732D01*
X192913Y94882D02*
X197244D01*
X185039D02*
X192913D01*
X169685D02*
X185039D01*
X166535Y91732D02*
X169685Y94882D01*
X126918Y100394D02*
X144685D01*
X147047Y98032D01*
X143701Y96457D02*
X145276Y94882D01*
X108268Y96457D02*
X143701D01*
X145276Y94882D02*
X151181D01*
X147047Y98032D02*
X151181D01*
X94488Y70866D02*
Y143701D01*
X90551Y66929D02*
X94488Y70866D01*
Y143701D02*
X98425Y147638D01*
X143701Y104331D02*
X151181D01*
X110236Y106299D02*
X141732D01*
X143701Y104331D01*
X103347Y99410D02*
X110236Y106299D01*
X103347Y93504D02*
Y99410D01*
X51181Y82677D02*
Y102900D01*
X52165Y103884D01*
Y104331D01*
X112205Y118110D02*
X135827D01*
X146457Y107480D01*
X151181D01*
X51181Y177165D02*
Y187008D01*
X51181Y187008D02*
X51181Y187008D01*
X51181Y145669D02*
Y155512D01*
X112205Y133071D02*
Y163386D01*
X51181Y114173D02*
Y124016D01*
Y51181D02*
Y59055D01*
Y51181D02*
Y51181D01*
X59055Y66929D02*
X90551D01*
X51181Y59055D02*
X59055Y66929D01*
X9843Y115197D02*
X34409D01*
X38386Y111221D01*
Y55118D02*
Y111221D01*
Y55118D02*
X42323Y51181D01*
X51181D01*
X59055D02*
X74803D01*
X9843Y135197D02*
X34095D01*
X43307Y125984D01*
Y117126D02*
Y125984D01*
Y117126D02*
X46260Y114173D01*
X51181D01*
X59055D02*
X74803D01*
X9843Y145197D02*
X50709D01*
X59055Y145669D02*
X74803D01*
X9843Y155197D02*
X29213D01*
X39370Y165354D01*
Y173228D01*
X43307Y177165D01*
X51181D01*
X59055Y177165D02*
X74803D01*
X51181Y202756D02*
Y208661D01*
Y202756D02*
X55118Y198819D01*
X9843Y165197D02*
X25433D01*
X33465Y173228D01*
Y198819D01*
X43307Y208661D01*
X51181D01*
X59055D02*
X74803D01*
X41339Y86614D02*
X45276Y82677D01*
X32283Y125197D02*
X41339Y116142D01*
Y86614D02*
Y116142D01*
X9843Y125197D02*
X32283D01*
X45276Y82677D02*
X51181D01*
X59055D02*
X74803D01*
X192913Y94882D02*
Y100302D01*
X192913Y94882D02*
X192913Y94882D01*
X163386Y208661D02*
X192913D01*
X246063Y155512D01*
Y86614D02*
Y155512D01*
X163386Y177165D02*
X194882D01*
X240158Y131890D01*
Y92520D02*
Y131890D01*
X163386Y145669D02*
X211024D01*
X234252Y122441D01*
Y98425D02*
Y122441D01*
X163386Y74803D02*
Y82677D01*
X169685Y74803D02*
Y82677D01*
X169685Y74803D02*
X169685Y74803D01*
X166535Y70866D02*
Y82677D01*
X166535Y70866D02*
X166535Y70866D01*
X175984Y120866D02*
X185039Y129921D01*
X175984Y116535D02*
Y120866D01*
X185039Y129921D02*
X194882D01*
X148907Y36703D02*
X151575Y39370D01*
Y62992D01*
X160236Y71653D01*
X138908Y36703D02*
X148907D01*
X160236Y71653D02*
Y82677D01*
X133701Y31496D02*
X138908Y36703D01*
X143701Y41496D02*
Y61024D01*
X157087Y74410D02*
Y82677D01*
X143701Y61024D02*
X157087Y74410D01*
X133701Y41496D02*
Y56929D01*
X151181Y74410D02*
Y88583D01*
X133701Y56929D02*
X151181Y74410D01*
X185039Y135827D02*
X194882D01*
X172835Y116535D02*
Y123622D01*
X185039Y135827D01*
X183465Y116535D02*
X190945Y124016D01*
X194882D01*
X188976Y118110D02*
X194882D01*
X179134Y116535D02*
X183465D01*
X185039Y114173D02*
X188976Y118110D01*
X185039Y110630D02*
Y114173D01*
X190157Y107480D02*
X194882Y112205D01*
X185039Y107480D02*
X190157D01*
X192035Y101181D02*
X192913Y100302D01*
X185039Y101181D02*
X192035D01*
X187008Y76772D02*
Y80709D01*
X185039Y82677D02*
X187008Y80709D01*
X179134Y82677D02*
X185039D01*
X96457Y198819D02*
X108268Y187008D01*
Y122047D02*
X112205Y118110D01*
X108268Y122047D02*
Y187008D01*
X115354Y129921D02*
X153543D01*
X112205Y133071D02*
X115354Y129921D01*
X153543D02*
X157087Y126378D01*
Y116535D02*
Y126378D01*
X145669Y122047D02*
X151181Y116535D01*
X137795Y122047D02*
X145669D01*
X151181Y110630D02*
Y116535D01*
X118110Y143701D02*
X125984D01*
X129884Y139802D01*
X154366D01*
X154403Y139764D01*
X155512D01*
X166535Y128740D01*
Y116535D02*
Y128740D01*
X122047Y137802D02*
X153537D01*
X163386Y116535D02*
Y127953D01*
X153537Y137802D02*
X163386Y127953D01*
X160236Y116535D02*
Y127165D01*
X153350Y134052D02*
X160236Y127165D01*
X116137Y134052D02*
X153350D01*
X55118Y198819D02*
X96457D01*
X169685Y116535D02*
Y127953D01*
X169685Y127953D02*
X169685Y127953D01*
X248031Y55118D02*
Y56102D01*
Y39370D02*
Y55118D01*
Y39370D02*
X267717D01*
X143858Y208661D02*
X155512D01*
X143858Y177165D02*
X155512D01*
X143858Y177165D02*
X143858Y177165D01*
X143858Y145669D02*
X143858Y145669D01*
X155512D01*
X224410Y46850D02*
Y51181D01*
X200787Y39370D02*
X224410D01*
X228346Y55118D02*
X240158D01*
X224410Y51181D02*
X228346Y55118D01*
X185039Y39370D02*
X192913D01*
X175984Y48425D02*
Y82677D01*
Y48425D02*
X185039Y39370D01*
X210742Y88471D02*
X212598Y86614D01*
Y80917D02*
Y86614D01*
X185039Y88583D02*
X210630D01*
X212598Y93504D02*
Y98217D01*
X185039Y91732D02*
X210827D01*
X212598Y93504D01*
D28*
X27559Y235236D02*
X75787D01*
X84646Y208661D02*
Y226378D01*
X75787Y235236D02*
X84646Y226378D01*
X111221Y21654D02*
X139764D01*
X106299Y26575D02*
Y57087D01*
Y26575D02*
X111221Y21654D01*
X139764D02*
X143701Y25591D01*
Y31496D01*
X113189Y63976D02*
Y69882D01*
X106299Y57087D02*
X113189Y63976D01*
X9843Y217520D02*
X27559Y235236D01*
X9843Y195276D02*
Y217520D01*
X84646Y82677D02*
Y114173D01*
X113189Y69882D02*
Y82677D01*
X134843Y91535D02*
X139764D01*
X125984Y82677D02*
X134843Y91535D01*
X113189Y82677D02*
X125984D01*
X157480Y31496D02*
X168307D01*
X174213Y25591D01*
X248031D01*
X274606D01*
X288386Y39370D02*
X297638D01*
X274606Y25591D02*
X288386Y39370D01*
X297638D02*
X310039D01*
X314961Y44291D01*
Y152559D01*
X327756Y165354D01*
X348425D01*
X84646Y114173D02*
Y145669D01*
Y162402D01*
Y177165D01*
Y191929D01*
X9843Y175197D02*
Y195276D01*
X143701Y31496D02*
X157480D01*
D29*
X13780Y246063D02*
D03*
Y13780D02*
D03*
X344488D02*
D03*
D30*
X297638Y39370D02*
D03*
X267717D02*
D03*
D31*
X123701Y41496D02*
D03*
X133701D02*
D03*
X143701D02*
D03*
X133701Y31496D02*
D03*
X123701D02*
D03*
X143701D02*
D03*
D32*
X348425Y95354D02*
D03*
Y115354D02*
D03*
Y145354D02*
D03*
Y155354D02*
D03*
Y135354D02*
D03*
Y125354D02*
D03*
Y105354D02*
D03*
X9843Y115197D02*
D03*
Y135197D02*
D03*
Y145197D02*
D03*
Y165197D02*
D03*
Y155197D02*
D03*
Y125197D02*
D03*
Y105197D02*
D03*
Y85197D02*
D03*
Y95197D02*
D03*
D33*
X348425Y165354D02*
D03*
X9843Y175197D02*
D03*
D34*
X74646Y208661D02*
D03*
X133858D02*
D03*
X74646Y177165D02*
D03*
X133858Y177165D02*
D03*
X74646Y145669D02*
D03*
X133858Y145669D02*
D03*
X74646Y114173D02*
D03*
Y82677D02*
D03*
Y51181D02*
D03*
D35*
X84646Y208661D02*
D03*
X143858D02*
D03*
X84646Y177165D02*
D03*
X143858Y177165D02*
D03*
X84646Y145669D02*
D03*
X143858Y145669D02*
D03*
X84646Y114173D02*
D03*
Y82677D02*
D03*
Y51181D02*
D03*
D36*
X280512Y203740D02*
D03*
D37*
Y213740D02*
D03*
D38*
X7874Y236221D02*
D03*
Y230315D02*
D03*
Y224410D02*
D03*
X350394D02*
D03*
Y230315D02*
D03*
Y236221D02*
D03*
X27559Y110236D02*
D03*
X23622D02*
D03*
X19685D02*
D03*
X27559Y120079D02*
D03*
X23622D02*
D03*
X19685D02*
D03*
X27559Y129921D02*
D03*
X23622D02*
D03*
X19685D02*
D03*
X23622Y169291D02*
D03*
X19685D02*
D03*
X27559Y159449D02*
D03*
X23622D02*
D03*
X19685D02*
D03*
X27559Y149606D02*
D03*
X23622D02*
D03*
X19685D02*
D03*
X27559Y139764D02*
D03*
X23622D02*
D03*
X19685D02*
D03*
X263779Y100394D02*
D03*
X267717D02*
D03*
Y96457D02*
D03*
X263779D02*
D03*
X259842D02*
D03*
Y100394D02*
D03*
X267717Y104331D02*
D03*
X263779D02*
D03*
X259842D02*
D03*
X267717Y151575D02*
D03*
X263779D02*
D03*
X259842D02*
D03*
Y147638D02*
D03*
X263779D02*
D03*
X267717D02*
D03*
Y143701D02*
D03*
X263779D02*
D03*
X259842D02*
D03*
X112205Y33465D02*
D03*
Y37402D02*
D03*
Y41339D02*
D03*
Y45276D02*
D03*
X206693Y31496D02*
D03*
X202756D02*
D03*
X198819D02*
D03*
X194882D02*
D03*
X190945D02*
D03*
X187008D02*
D03*
X159449Y88583D02*
D03*
X147638Y76772D02*
D03*
Y80709D02*
D03*
Y84646D02*
D03*
X291339Y7874D02*
D03*
X297244D02*
D03*
X303150D02*
D03*
X309055D02*
D03*
X314961D02*
D03*
X320866D02*
D03*
X7874Y35433D02*
D03*
Y43307D02*
D03*
Y51181D02*
D03*
Y59055D02*
D03*
Y66929D02*
D03*
Y74803D02*
D03*
X62992Y7874D02*
D03*
X57087D02*
D03*
X51181D02*
D03*
X45276D02*
D03*
X39370D02*
D03*
X33465D02*
D03*
X53150Y251969D02*
D03*
X47244D02*
D03*
X41339D02*
D03*
X35433D02*
D03*
X29528D02*
D03*
X23622D02*
D03*
X305118D02*
D03*
X311024D02*
D03*
X316929D02*
D03*
X322835D02*
D03*
X328740D02*
D03*
X334646D02*
D03*
X350394Y35433D02*
D03*
Y41339D02*
D03*
Y47244D02*
D03*
Y53150D02*
D03*
Y59055D02*
D03*
Y64961D02*
D03*
X133858Y78740D02*
D03*
X113189Y82677D02*
D03*
X84646Y191929D02*
D03*
X108268Y96457D02*
D03*
X103347Y93504D02*
D03*
X52165Y104331D02*
D03*
X51181Y187008D02*
D03*
Y155512D02*
D03*
X112205Y163386D02*
D03*
X51181Y124016D02*
D03*
X240158Y92520D02*
D03*
X234252Y98425D02*
D03*
X246063Y86614D02*
D03*
X163386Y74803D02*
D03*
X169685D02*
D03*
X166535Y70866D02*
D03*
X194882Y135827D02*
D03*
Y129921D02*
D03*
Y124016D02*
D03*
Y118110D02*
D03*
Y112205D02*
D03*
X187008Y76772D02*
D03*
X118110Y143701D02*
D03*
X98425Y147638D02*
D03*
X122047Y137802D02*
D03*
X116137Y134052D02*
D03*
X137795Y122047D02*
D03*
X169685Y127953D02*
D03*
D39*
X116142Y125984D02*
D03*
X112205D02*
D03*
X139764D02*
D03*
X143701D02*
D03*
X175197Y139764D02*
D03*
X171260D02*
D03*
X167323D02*
D03*
X287402Y230315D02*
D03*
X291339D02*
D03*
X265748D02*
D03*
X269685D02*
D03*
X273622D02*
D03*
X114173D02*
D03*
X110236D02*
D03*
X106299D02*
D03*
X102362D02*
D03*
X98425D02*
D03*
X94488D02*
D03*
X55118D02*
D03*
X51181D02*
D03*
X47244D02*
D03*
X43307D02*
D03*
X39370D02*
D03*
X35433D02*
D03*
X64961Y100394D02*
D03*
X61024D02*
D03*
X57087D02*
D03*
X122047Y114173D02*
D03*
X120079Y112205D02*
D03*
X118110Y110236D02*
D03*
X106299D02*
D03*
X108268Y112205D02*
D03*
X110236Y114173D02*
D03*
X129921Y157480D02*
D03*
Y161417D02*
D03*
Y165354D02*
D03*
X90551Y129921D02*
D03*
X100394D02*
D03*
X104331D02*
D03*
X120079Y171260D02*
D03*
Y175197D02*
D03*
Y179134D02*
D03*
X98425Y167323D02*
D03*
X94488D02*
D03*
X90551D02*
D03*
X198819Y82677D02*
D03*
X194882D02*
D03*
X190945D02*
D03*
X206693Y108268D02*
D03*
X202756D02*
D03*
X198819D02*
D03*
X242126Y139764D02*
D03*
X238189D02*
D03*
X226378D02*
D03*
X222441D02*
D03*
X206693D02*
D03*
X202756D02*
D03*
X198819D02*
D03*
X177165Y102362D02*
D03*
Y106299D02*
D03*
X161417Y98425D02*
D03*
Y102362D02*
D03*
Y106299D02*
D03*
X114173Y102362D02*
D03*
X118110D02*
D03*
X122047D02*
D03*
D40*
X81693Y98425D02*
D03*
X73819D02*
D03*
X113189Y69882D02*
D03*
X121063D02*
D03*
X128937D02*
D03*
X136811D02*
D03*
X84646Y162402D02*
D03*
X76772D02*
D03*
X51181Y51181D02*
D03*
X59055D02*
D03*
X51181Y114173D02*
D03*
X59055D02*
D03*
X51181Y145669D02*
D03*
X59055D02*
D03*
X51181Y177165D02*
D03*
X59055D02*
D03*
X51181Y208661D02*
D03*
X59055D02*
D03*
X51181Y82677D02*
D03*
X59055D02*
D03*
X155512Y208661D02*
D03*
X163386D02*
D03*
X155512Y177165D02*
D03*
X163386D02*
D03*
X155512Y145669D02*
D03*
X163386D02*
D03*
X240158Y55118D02*
D03*
X248031D02*
D03*
X192913Y39370D02*
D03*
X200787D02*
D03*
X212598Y108268D02*
D03*
X220472D02*
D03*
X212598Y70866D02*
D03*
X220472D02*
D03*
D41*
X157480Y23622D02*
D03*
Y31496D02*
D03*
X280512Y233268D02*
D03*
Y225394D02*
D03*
X139764Y91535D02*
D03*
Y83661D02*
D03*
X126969Y92520D02*
D03*
Y100394D02*
D03*
X198819Y103937D02*
D03*
Y96063D02*
D03*
D42*
X348425Y181102D02*
D03*
X335827D02*
D03*
X9843Y195276D02*
D03*
X22441D02*
D03*
D43*
X224410Y39370D02*
D03*
Y46850D02*
D03*
X233858Y43110D02*
D03*
D44*
X248031Y39370D02*
D03*
Y25591D02*
D03*
D45*
X212598Y80917D02*
D03*
Y98217D02*
D03*
D46*
X185039Y110630D02*
D03*
Y107480D02*
D03*
Y104331D02*
D03*
Y101181D02*
D03*
Y98032D02*
D03*
Y94882D02*
D03*
Y91732D02*
D03*
Y88583D02*
D03*
X151181D02*
D03*
Y91732D02*
D03*
Y94882D02*
D03*
Y98032D02*
D03*
Y101181D02*
D03*
Y104331D02*
D03*
Y107480D02*
D03*
Y110630D02*
D03*
D47*
X179134Y82677D02*
D03*
X175984D02*
D03*
X172835D02*
D03*
X169685D02*
D03*
X166535D02*
D03*
X163386D02*
D03*
X160236D02*
D03*
X157087D02*
D03*
Y116535D02*
D03*
X160236D02*
D03*
X163386D02*
D03*
X166535D02*
D03*
X169685D02*
D03*
X172835D02*
D03*
X175984D02*
D03*
X179134D02*
D03*
D48*
X280512Y235236D02*
X326772D01*
X348425Y181102D02*
Y213583D01*
X326772Y235236D02*
X348425Y213583D01*
X280512Y233268D02*
X281004D01*
X348425Y165354D02*
Y181102D01*
D49*
X280512Y213740D02*
Y225394D01*
X212598Y98217D02*
Y109252D01*
Y69882D02*
Y80917D01*
M02*
