G04*
G04 #@! TF.GenerationSoftware,Altium Limited,Altium Designer,21.9.2 (33)*
G04*
G04 Layer_Color=16711935*
%FSLAX25Y25*%
%MOIN*%
G70*
G04*
G04 #@! TF.SameCoordinates,17C33EC5-3FD8-4D5E-BF76-7BF67F947422*
G04*
G04*
G04 #@! TF.FilePolarity,Positive*
G04*
G01*
G75*
%ADD12C,0.01968*%
%ADD59C,0.00394*%
%ADD60C,0.00197*%
G36*
X137358Y200295D02*
X135358Y200799D01*
X133858Y201575D01*
X132569Y202707D01*
X131664Y203839D01*
X130498Y206299D01*
X130197Y208661D01*
X130498Y210925D01*
X131094Y212500D01*
X131792Y213667D01*
X133858Y215734D01*
X135858Y216799D01*
X137358Y217299D01*
Y200295D01*
D02*
G37*
G36*
X78146D02*
X76146Y200799D01*
X74646Y201575D01*
X73356Y202707D01*
X72451Y203839D01*
X71285Y206299D01*
X70984Y208661D01*
X71285Y210925D01*
X71881Y212500D01*
X72579Y213667D01*
X74646Y215734D01*
X76646Y216799D01*
X78146Y217299D01*
Y200295D01*
D02*
G37*
G36*
X288374Y205240D02*
X287598Y203740D01*
X286467Y202450D01*
X285335Y201546D01*
X282874Y200380D01*
X280512Y200079D01*
X278248Y200380D01*
X276673Y200976D01*
X275506Y201674D01*
X273439Y203740D01*
X272374Y205740D01*
X271874Y207240D01*
X288878D01*
X288374Y205240D01*
D02*
G37*
G36*
X137358Y168799D02*
X135358Y169303D01*
X133858Y170079D01*
X132569Y171211D01*
X131664Y172343D01*
X130498Y174803D01*
X130197Y177165D01*
X130498Y179429D01*
X131094Y181004D01*
X131792Y182171D01*
X133858Y184238D01*
X135858Y185303D01*
X137358Y185803D01*
Y168799D01*
D02*
G37*
G36*
X78146Y168799D02*
X76146Y169303D01*
X74646Y170079D01*
X73356Y171211D01*
X72451Y172343D01*
X71285Y174803D01*
X70984Y177165D01*
X71285Y179429D01*
X71881Y181004D01*
X72579Y182171D01*
X74646Y184238D01*
X76646Y185303D01*
X78146Y185803D01*
Y168799D01*
D02*
G37*
G36*
X137358Y137303D02*
X135358Y137807D01*
X133858Y138583D01*
X132569Y139715D01*
X131664Y140847D01*
X130498Y143307D01*
X130197Y145669D01*
X130498Y147933D01*
X131094Y149508D01*
X131792Y150675D01*
X133858Y152742D01*
X135858Y153807D01*
X137358Y154307D01*
Y137303D01*
D02*
G37*
G36*
X78146Y137303D02*
X76146Y137807D01*
X74646Y138583D01*
X73356Y139715D01*
X72451Y140847D01*
X71285Y143307D01*
X70984Y145669D01*
X71285Y147933D01*
X71881Y149508D01*
X72579Y150675D01*
X74646Y152742D01*
X76646Y153807D01*
X78146Y154307D01*
Y137303D01*
D02*
G37*
G36*
Y105807D02*
X76146Y106311D01*
X74646Y107087D01*
X73356Y108219D01*
X72451Y109350D01*
X71285Y111811D01*
X70984Y114173D01*
X71285Y116437D01*
X71881Y118012D01*
X72579Y119179D01*
X74646Y121246D01*
X76646Y122311D01*
X78146Y122811D01*
Y105807D01*
D02*
G37*
G36*
Y74311D02*
X76146Y74815D01*
X74646Y75591D01*
X73356Y76723D01*
X72451Y77854D01*
X71285Y80315D01*
X70984Y82677D01*
X71285Y84941D01*
X71881Y86516D01*
X72579Y87683D01*
X74646Y89750D01*
X76646Y90815D01*
X78146Y91315D01*
Y74311D01*
D02*
G37*
G36*
Y42815D02*
X76146Y43319D01*
X74646Y44094D01*
X73356Y45226D01*
X72451Y46358D01*
X71285Y48819D01*
X70984Y51181D01*
X71285Y53445D01*
X71881Y55020D01*
X72579Y56187D01*
X74646Y58254D01*
X76646Y59319D01*
X78146Y59819D01*
Y42815D01*
D02*
G37*
D12*
X151701Y41496D02*
D03*
D59*
X88307Y208661D02*
X88248Y209667D01*
X88074Y210659D01*
X87785Y211624D01*
X87386Y212549D01*
X86882Y213421D01*
X86281Y214229D01*
X85589Y214962D01*
X84818Y215609D01*
X83976Y216162D01*
X83076Y216615D01*
X82130Y216959D01*
X81150Y217191D01*
X80149Y217308D01*
X79142D01*
X78142Y217191D01*
X77162Y216959D01*
X76215Y216615D01*
X75315Y216162D01*
X74473Y215609D01*
X73702Y214962D01*
X73011Y214229D01*
X72409Y213421D01*
X71905Y212549D01*
X71507Y211624D01*
X71218Y210659D01*
X71043Y209667D01*
X70984Y208661D01*
X71043Y207656D01*
X71218Y206664D01*
X71507Y205699D01*
X71905Y204774D01*
X72409Y203902D01*
X73011Y203094D01*
X73702Y202361D01*
X74473Y201714D01*
X75315Y201160D01*
X76215Y200708D01*
X77162Y200364D01*
X78142Y200132D01*
X79142Y200015D01*
X80149D01*
X81150Y200132D01*
X82130Y200364D01*
X83076Y200708D01*
X83976Y201160D01*
X84818Y201714D01*
X85589Y202361D01*
X86281Y203094D01*
X86882Y203902D01*
X87386Y204774D01*
X87785Y205699D01*
X88074Y206664D01*
X88248Y207656D01*
X88307Y208661D01*
X147520Y208661D02*
X147461Y209667D01*
X147286Y210659D01*
X146997Y211624D01*
X146598Y212549D01*
X146095Y213421D01*
X145493Y214229D01*
X144802Y214962D01*
X144030Y215609D01*
X143189Y216162D01*
X142289Y216615D01*
X141342Y216959D01*
X140362Y217191D01*
X139362Y217308D01*
X138355D01*
X137354Y217191D01*
X136374Y216959D01*
X135428Y216615D01*
X134528Y216162D01*
X133686Y215609D01*
X132914Y214962D01*
X132223Y214229D01*
X131622Y213421D01*
X131118Y212549D01*
X130719Y211624D01*
X130430Y210659D01*
X130255Y209667D01*
X130197Y208661D01*
X130255Y207656D01*
X130430Y206664D01*
X130719Y205699D01*
X131118Y204774D01*
X131622Y203902D01*
X132223Y203094D01*
X132914Y202361D01*
X133686Y201714D01*
X134528Y201160D01*
X135428Y200708D01*
X136374Y200364D01*
X137354Y200132D01*
X138355Y200015D01*
X139362D01*
X140362Y200132D01*
X141342Y200364D01*
X142289Y200708D01*
X143189Y201160D01*
X144030Y201714D01*
X144802Y202361D01*
X145493Y203094D01*
X146095Y203902D01*
X146598Y204774D01*
X146997Y205699D01*
X147286Y206664D01*
X147461Y207656D01*
X147520Y208661D01*
X88307Y177165D02*
X88248Y178171D01*
X88074Y179163D01*
X87785Y180128D01*
X87386Y181053D01*
X86882Y181925D01*
X86281Y182733D01*
X85589Y183465D01*
X84818Y184113D01*
X83976Y184666D01*
X83076Y185118D01*
X82130Y185463D01*
X81150Y185695D01*
X80149Y185812D01*
X79142D01*
X78142Y185695D01*
X77162Y185463D01*
X76215Y185118D01*
X75315Y184666D01*
X74473Y184113D01*
X73702Y183465D01*
X73011Y182733D01*
X72409Y181925D01*
X71905Y181053D01*
X71507Y180128D01*
X71218Y179163D01*
X71043Y178171D01*
X70984Y177165D01*
X71043Y176160D01*
X71218Y175168D01*
X71507Y174203D01*
X71905Y173278D01*
X72409Y172406D01*
X73011Y171598D01*
X73702Y170865D01*
X74473Y170218D01*
X75315Y169664D01*
X76215Y169212D01*
X77162Y168868D01*
X78142Y168635D01*
X79142Y168519D01*
X80149D01*
X81150Y168635D01*
X82130Y168868D01*
X83076Y169212D01*
X83976Y169664D01*
X84818Y170218D01*
X85589Y170865D01*
X86281Y171598D01*
X86882Y172406D01*
X87386Y173278D01*
X87785Y174203D01*
X88074Y175168D01*
X88248Y176160D01*
X88307Y177165D01*
X147520Y177165D02*
X147461Y178171D01*
X147286Y179163D01*
X146997Y180128D01*
X146598Y181053D01*
X146095Y181925D01*
X145493Y182733D01*
X144802Y183466D01*
X144030Y184113D01*
X143189Y184666D01*
X142289Y185118D01*
X141342Y185463D01*
X140362Y185695D01*
X139362Y185812D01*
X138355D01*
X137354Y185695D01*
X136374Y185463D01*
X135428Y185118D01*
X134528Y184666D01*
X133686Y184113D01*
X132914Y183466D01*
X132223Y182733D01*
X131622Y181925D01*
X131118Y181053D01*
X130719Y180128D01*
X130430Y179163D01*
X130255Y178171D01*
X130197Y177165D01*
X130255Y176160D01*
X130430Y175168D01*
X130719Y174203D01*
X131118Y173278D01*
X131622Y172406D01*
X132223Y171598D01*
X132914Y170865D01*
X133686Y170218D01*
X134528Y169664D01*
X135428Y169212D01*
X136374Y168868D01*
X137354Y168635D01*
X138355Y168519D01*
X139362D01*
X140362Y168635D01*
X141342Y168868D01*
X142289Y169212D01*
X143189Y169664D01*
X144030Y170218D01*
X144802Y170865D01*
X145493Y171598D01*
X146095Y172406D01*
X146598Y173278D01*
X146997Y174203D01*
X147286Y175168D01*
X147461Y176160D01*
X147520Y177165D01*
X88307Y145669D02*
X88248Y146675D01*
X88074Y147667D01*
X87785Y148632D01*
X87386Y149557D01*
X86882Y150429D01*
X86281Y151237D01*
X85589Y151969D01*
X84818Y152617D01*
X83976Y153170D01*
X83076Y153622D01*
X82130Y153967D01*
X81150Y154199D01*
X80149Y154316D01*
X79142D01*
X78142Y154199D01*
X77162Y153967D01*
X76215Y153622D01*
X75315Y153170D01*
X74473Y152617D01*
X73702Y151969D01*
X73011Y151237D01*
X72409Y150429D01*
X71905Y149557D01*
X71507Y148632D01*
X71218Y147667D01*
X71043Y146675D01*
X70984Y145669D01*
X71043Y144664D01*
X71218Y143672D01*
X71507Y142707D01*
X71905Y141782D01*
X72409Y140910D01*
X73011Y140102D01*
X73702Y139369D01*
X74473Y138722D01*
X75315Y138168D01*
X76215Y137716D01*
X77162Y137372D01*
X78142Y137139D01*
X79142Y137022D01*
X80149D01*
X81150Y137139D01*
X82130Y137372D01*
X83076Y137716D01*
X83976Y138168D01*
X84818Y138722D01*
X85589Y139369D01*
X86281Y140102D01*
X86882Y140910D01*
X87386Y141782D01*
X87785Y142707D01*
X88074Y143672D01*
X88248Y144664D01*
X88307Y145669D01*
X289173Y208740D02*
X289115Y209746D01*
X288940Y210738D01*
X288651Y211702D01*
X288252Y212627D01*
X287748Y213500D01*
X287147Y214308D01*
X286456Y215040D01*
X285684Y215688D01*
X284842Y216241D01*
X283942Y216693D01*
X282996Y217038D01*
X282016Y217270D01*
X281015Y217387D01*
X280008D01*
X279008Y217270D01*
X278028Y217038D01*
X277081Y216693D01*
X276181Y216241D01*
X275340Y215688D01*
X274568Y215040D01*
X273877Y214308D01*
X273275Y213500D01*
X272772Y212627D01*
X272373Y211702D01*
X272084Y210738D01*
X271909Y209746D01*
X271850Y208740D01*
X271909Y207735D01*
X272084Y206743D01*
X272373Y205778D01*
X272772Y204853D01*
X273275Y203981D01*
X273877Y203173D01*
X274568Y202440D01*
X275340Y201793D01*
X276181Y201239D01*
X277081Y200787D01*
X278028Y200443D01*
X279008Y200210D01*
X280008Y200093D01*
X281015D01*
X282016Y200210D01*
X282996Y200443D01*
X283942Y200787D01*
X284842Y201239D01*
X285684Y201793D01*
X286456Y202440D01*
X287147Y203173D01*
X287748Y203981D01*
X288252Y204853D01*
X288651Y205778D01*
X288940Y206743D01*
X289115Y207735D01*
X289173Y208740D01*
X147520Y145669D02*
X147461Y146675D01*
X147286Y147667D01*
X146997Y148632D01*
X146598Y149557D01*
X146095Y150429D01*
X145493Y151237D01*
X144802Y151969D01*
X144030Y152617D01*
X143189Y153170D01*
X142289Y153622D01*
X141342Y153967D01*
X140362Y154199D01*
X139362Y154316D01*
X138355D01*
X137354Y154199D01*
X136374Y153967D01*
X135428Y153622D01*
X134528Y153170D01*
X133686Y152617D01*
X132914Y151969D01*
X132223Y151237D01*
X131622Y150429D01*
X131118Y149557D01*
X130719Y148632D01*
X130430Y147667D01*
X130255Y146675D01*
X130197Y145669D01*
X130255Y144664D01*
X130430Y143672D01*
X130719Y142707D01*
X131118Y141782D01*
X131622Y140910D01*
X132223Y140102D01*
X132914Y139369D01*
X133686Y138722D01*
X134528Y138168D01*
X135428Y137716D01*
X136374Y137372D01*
X137354Y137139D01*
X138355Y137022D01*
X139362D01*
X140362Y137139D01*
X141342Y137372D01*
X142289Y137716D01*
X143189Y138168D01*
X144030Y138722D01*
X144802Y139369D01*
X145493Y140102D01*
X146095Y140910D01*
X146598Y141782D01*
X146997Y142707D01*
X147286Y143672D01*
X147461Y144664D01*
X147520Y145669D01*
X88307Y114173D02*
X88248Y115179D01*
X88074Y116171D01*
X87785Y117136D01*
X87386Y118061D01*
X86882Y118933D01*
X86281Y119741D01*
X85589Y120473D01*
X84818Y121121D01*
X83976Y121674D01*
X83076Y122126D01*
X82130Y122471D01*
X81150Y122703D01*
X80149Y122820D01*
X79142D01*
X78142Y122703D01*
X77162Y122471D01*
X76215Y122126D01*
X75315Y121674D01*
X74473Y121121D01*
X73702Y120473D01*
X73011Y119741D01*
X72409Y118933D01*
X71905Y118061D01*
X71507Y117136D01*
X71218Y116171D01*
X71043Y115179D01*
X70984Y114173D01*
X71043Y113168D01*
X71218Y112176D01*
X71507Y111211D01*
X71905Y110286D01*
X72409Y109414D01*
X73011Y108606D01*
X73702Y107873D01*
X74473Y107226D01*
X75315Y106672D01*
X76215Y106220D01*
X77162Y105876D01*
X78142Y105643D01*
X79142Y105526D01*
X80149D01*
X81150Y105643D01*
X82130Y105876D01*
X83076Y106220D01*
X83976Y106672D01*
X84818Y107226D01*
X85589Y107873D01*
X86281Y108606D01*
X86882Y109414D01*
X87386Y110286D01*
X87785Y111211D01*
X88074Y112176D01*
X88248Y113168D01*
X88307Y114173D01*
Y82677D02*
X88248Y83683D01*
X88074Y84675D01*
X87785Y85640D01*
X87386Y86564D01*
X86882Y87437D01*
X86281Y88245D01*
X85589Y88977D01*
X84818Y89625D01*
X83976Y90178D01*
X83076Y90630D01*
X82130Y90975D01*
X81150Y91207D01*
X80149Y91324D01*
X79142D01*
X78142Y91207D01*
X77162Y90975D01*
X76215Y90630D01*
X75315Y90178D01*
X74473Y89625D01*
X73702Y88977D01*
X73011Y88245D01*
X72409Y87437D01*
X71905Y86564D01*
X71507Y85640D01*
X71218Y84675D01*
X71043Y83683D01*
X70984Y82677D01*
X71043Y81672D01*
X71218Y80680D01*
X71507Y79715D01*
X71905Y78790D01*
X72409Y77918D01*
X73011Y77110D01*
X73702Y76377D01*
X74473Y75730D01*
X75315Y75176D01*
X76215Y74724D01*
X77162Y74380D01*
X78142Y74147D01*
X79142Y74030D01*
X80149D01*
X81150Y74147D01*
X82130Y74380D01*
X83076Y74724D01*
X83976Y75176D01*
X84818Y75730D01*
X85589Y76377D01*
X86281Y77110D01*
X86882Y77918D01*
X87386Y78790D01*
X87785Y79715D01*
X88074Y80680D01*
X88248Y81672D01*
X88307Y82677D01*
Y51181D02*
X88248Y52187D01*
X88074Y53179D01*
X87785Y54144D01*
X87386Y55068D01*
X86882Y55941D01*
X86281Y56749D01*
X85589Y57481D01*
X84818Y58129D01*
X83976Y58682D01*
X83076Y59134D01*
X82130Y59479D01*
X81150Y59711D01*
X80149Y59828D01*
X79142D01*
X78142Y59711D01*
X77162Y59479D01*
X76215Y59134D01*
X75315Y58682D01*
X74473Y58129D01*
X73702Y57481D01*
X73011Y56749D01*
X72409Y55941D01*
X71905Y55068D01*
X71507Y54144D01*
X71218Y53179D01*
X71043Y52187D01*
X70984Y51181D01*
X71043Y50176D01*
X71218Y49184D01*
X71507Y48219D01*
X71905Y47294D01*
X72409Y46422D01*
X73011Y45614D01*
X73702Y44881D01*
X74473Y44234D01*
X75315Y43680D01*
X76215Y43228D01*
X77162Y42884D01*
X78142Y42651D01*
X79142Y42534D01*
X80149D01*
X81150Y42651D01*
X82130Y42884D01*
X83076Y43228D01*
X83976Y43680D01*
X84818Y44234D01*
X85589Y44881D01*
X86281Y45614D01*
X86882Y46422D01*
X87386Y47294D01*
X87785Y48219D01*
X88074Y49184D01*
X88248Y50176D01*
X88307Y51181D01*
X149701Y25496D02*
Y47496D01*
X117701D02*
X149701D01*
X117701Y25496D02*
Y47496D01*
Y25496D02*
X149701D01*
X350925Y110354D02*
X353425Y107854D01*
Y102854D02*
Y107854D01*
X350925Y100354D02*
X353425Y102854D01*
X345925Y100354D02*
X350925D01*
X343425Y102854D02*
X345925Y100354D01*
X343425Y102854D02*
Y107854D01*
X345925Y110354D01*
X350925Y130354D02*
X353425Y127854D01*
Y122854D02*
Y127854D01*
X350925Y120354D02*
X353425Y122854D01*
X345925Y120354D02*
X350925D01*
X343425Y122854D02*
X345925Y120354D01*
X343425Y122854D02*
Y127854D01*
X345925Y130354D01*
X343425Y137854D02*
X345925Y140354D01*
X343425Y132854D02*
Y137854D01*
Y132854D02*
X345925Y130354D01*
X350925D01*
X353425Y132854D01*
Y137854D01*
X350925Y140354D02*
X353425Y137854D01*
X350925Y150354D02*
X353425Y147854D01*
Y142854D02*
Y147854D01*
X350925Y140354D02*
X353425Y142854D01*
X345925Y140354D02*
X350925D01*
X343425Y142854D02*
X345925Y140354D01*
X343425Y142854D02*
Y147854D01*
X345925Y150354D01*
X343425Y160354D02*
Y170354D01*
Y157854D02*
X345925Y160354D01*
X343425Y152854D02*
Y157854D01*
Y152854D02*
X345925Y150354D01*
X350925D01*
X353425Y152854D01*
Y157854D01*
X350925Y160354D02*
X353425Y157854D01*
X343425Y170354D02*
X353425D01*
X343425Y160354D02*
X353425D01*
Y170354D01*
X343425Y117854D02*
X345925Y120354D01*
X343425Y112854D02*
Y117854D01*
Y112854D02*
X345925Y110354D01*
X350925D01*
X353425Y112854D01*
Y117854D01*
X350925Y120354D02*
X353425Y117854D01*
X343425Y97854D02*
X345925Y100354D01*
X343425Y92854D02*
Y97854D01*
Y92854D02*
X345925Y90354D01*
X350925D01*
X353425Y92854D01*
Y97854D01*
X350925Y100354D02*
X353425Y97854D01*
X4843Y87697D02*
X7343Y90197D01*
X4843Y82697D02*
Y87697D01*
Y82697D02*
X7343Y80197D01*
X12342D01*
X14842Y82697D01*
Y87697D01*
X12342Y90197D02*
X14842Y87697D01*
X4843Y97697D02*
X7343Y100197D01*
X4843Y92697D02*
Y97697D01*
Y92697D02*
X7343Y90197D01*
X12342D01*
X14842Y92697D01*
Y97697D01*
X12342Y100197D02*
X14842Y97697D01*
X12342Y110197D02*
X14842Y107697D01*
Y102697D02*
Y107697D01*
X12342Y100197D02*
X14842Y102697D01*
X7343Y100197D02*
X12342D01*
X4843Y102697D02*
X7343Y100197D01*
X4843Y102697D02*
Y107697D01*
X7343Y110197D01*
X12342Y130197D02*
X14842Y127697D01*
Y122697D02*
Y127697D01*
X12342Y120197D02*
X14842Y122697D01*
X7343Y120197D02*
X12342D01*
X4843Y122697D02*
X7343Y120197D01*
X4843Y122697D02*
Y127697D01*
X7343Y130197D01*
X14842Y170197D02*
Y180197D01*
X4843Y170197D02*
X14842D01*
X4843Y180197D02*
X14842D01*
X12342Y170197D02*
X14842Y167697D01*
Y162697D02*
Y167697D01*
X12342Y160197D02*
X14842Y162697D01*
X7343Y160197D02*
X12342D01*
X4843Y162697D02*
X7343Y160197D01*
X4843Y162697D02*
Y167697D01*
X7343Y170197D01*
X4843D02*
Y180197D01*
Y157697D02*
X7343Y160197D01*
X4843Y152697D02*
Y157697D01*
Y152697D02*
X7343Y150197D01*
X12342D01*
X14842Y152697D01*
Y157697D01*
X12342Y160197D02*
X14842Y157697D01*
X12342Y150197D02*
X14842Y147697D01*
Y142697D02*
Y147697D01*
X12342Y140197D02*
X14842Y142697D01*
X7343Y140197D02*
X12342D01*
X4843Y142697D02*
X7343Y140197D01*
X4843Y142697D02*
Y147697D01*
X7343Y150197D01*
X4843Y137697D02*
X7343Y140197D01*
X4843Y132697D02*
Y137697D01*
Y132697D02*
X7343Y130197D01*
X12342D01*
X14842Y132697D01*
Y137697D01*
X12342Y140197D02*
X14842Y137697D01*
X4843Y117697D02*
X7343Y120197D01*
X4843Y112697D02*
Y117697D01*
Y112697D02*
X7343Y110197D01*
X12342D01*
X14842Y112697D01*
Y117697D01*
X12342Y120197D02*
X14842Y117697D01*
D60*
X236221Y226378D02*
X259843D01*
X236221Y190945D02*
Y226378D01*
Y190945D02*
X259843D01*
Y226378D01*
M02*
