G04*
G04 #@! TF.GenerationSoftware,Altium Limited,Altium Designer,21.9.2 (33)*
G04*
G04 Layer_Physical_Order=1*
G04 Layer_Color=6711008*
%FSLAX25Y25*%
%MOIN*%
G70*
G04*
G04 #@! TF.SameCoordinates,17C33EC5-3FD8-4D5E-BF76-7BF67F947422*
G04*
G04*
G04 #@! TF.FilePolarity,Positive*
G04*
G01*
G75*
%ADD25R,0.03937X0.01968*%
%ADD26R,0.05512X0.08268*%
%ADD27C,0.01500*%
%ADD28C,0.02362*%
G04:AMPARAMS|DCode=29|XSize=59.06mil|YSize=59.06mil|CornerRadius=29.53mil|HoleSize=0mil|Usage=FLASHONLY|Rotation=0.000|XOffset=0mil|YOffset=0mil|HoleType=Round|Shape=RoundedRectangle|*
%AMROUNDEDRECTD29*
21,1,0.05906,0.00000,0,0,0.0*
21,1,0.00000,0.05906,0,0,0.0*
1,1,0.05906,0.00000,0.00000*
1,1,0.05906,0.00000,0.00000*
1,1,0.05906,0.00000,0.00000*
1,1,0.05906,0.00000,0.00000*
%
%ADD29ROUNDEDRECTD29*%
%ADD30C,0.06299*%
%ADD31C,0.07087*%
%ADD32C,0.07874*%
%ADD33R,0.07874X0.07874*%
%ADD34O,0.04724X0.05906*%
%ADD35R,0.04724X0.05906*%
%ADD36O,0.05906X0.04724*%
%ADD37R,0.05906X0.04724*%
%ADD38C,0.03150*%
%ADD39C,0.02362*%
G36*
X354331Y246063D02*
Y13780D01*
X344488Y3937D01*
X13780D01*
X3937Y13780D01*
Y246063D01*
X13780Y255906D01*
X344488D01*
X354331Y246063D01*
D02*
G37*
%LPC*%
G36*
X14427Y250984D02*
X13132D01*
X11880Y250649D01*
X10758Y250001D01*
X9842Y249085D01*
X9194Y247962D01*
X8858Y246711D01*
Y245415D01*
X9194Y244163D01*
X9842Y243041D01*
X10758Y242125D01*
X11880Y241477D01*
X13132Y241142D01*
X14427D01*
X15679Y241477D01*
X16801Y242125D01*
X17718Y243041D01*
X18365Y244163D01*
X18701Y245415D01*
Y246711D01*
X18365Y247962D01*
X17718Y249085D01*
X16801Y250001D01*
X15679Y250649D01*
X14427Y250984D01*
D02*
G37*
G36*
X242929Y231512D02*
X240173D01*
Y227378D01*
X242929D01*
Y231512D01*
D02*
G37*
G36*
X238173D02*
X235417D01*
Y227378D01*
X238173D01*
Y231512D01*
D02*
G37*
G36*
X242929Y225378D02*
X240173D01*
Y221244D01*
X242929D01*
Y225378D01*
D02*
G37*
G36*
X238173D02*
X235417D01*
Y221244D01*
X238173D01*
Y225378D01*
D02*
G37*
G36*
X284465Y217102D02*
X276559D01*
Y210378D01*
X284465D01*
Y217102D01*
D02*
G37*
G36*
X134858Y212477D02*
Y209661D01*
X137196D01*
X137134Y210130D01*
X136795Y210948D01*
X136256Y211650D01*
X135554Y212189D01*
X134858Y212477D01*
D02*
G37*
G36*
X132858Y212477D02*
X132163Y212189D01*
X131460Y211650D01*
X130921Y210948D01*
X130583Y210130D01*
X130521Y209661D01*
X132858D01*
Y212477D01*
D02*
G37*
G36*
Y207661D02*
X130521D01*
X130583Y207193D01*
X130921Y206375D01*
X131460Y205673D01*
X132163Y205134D01*
X132858Y204846D01*
Y207661D01*
D02*
G37*
G36*
X137196D02*
X134858D01*
Y204846D01*
X135554Y205134D01*
X136256Y205673D01*
X136795Y206375D01*
X137134Y207193D01*
X137196Y207661D01*
D02*
G37*
G36*
X281512Y207078D02*
Y204740D01*
X284327D01*
X284039Y205436D01*
X283500Y206138D01*
X282798Y206677D01*
X281980Y207016D01*
X281512Y207078D01*
D02*
G37*
G36*
X279512Y207078D02*
X279044Y207016D01*
X278226Y206677D01*
X277523Y206138D01*
X276984Y205436D01*
X276696Y204740D01*
X279512D01*
Y207078D01*
D02*
G37*
G36*
X147221Y212614D02*
X140496D01*
Y204709D01*
X147221D01*
Y212614D01*
D02*
G37*
G36*
X88008D02*
X81283D01*
Y204709D01*
X88008D01*
Y212614D01*
D02*
G37*
G36*
X74646Y212643D02*
X73768Y212528D01*
X72950Y212189D01*
X72248Y211650D01*
X71709Y210948D01*
X71370Y210130D01*
X71254Y209252D01*
Y208071D01*
X71370Y207193D01*
X71709Y206375D01*
X72248Y205673D01*
X72950Y205134D01*
X73768Y204795D01*
X74646Y204680D01*
X75523Y204795D01*
X76341Y205134D01*
X77044Y205673D01*
X77583Y206375D01*
X77921Y207193D01*
X78037Y208071D01*
Y209252D01*
X77921Y210130D01*
X77583Y210948D01*
X77044Y211650D01*
X76341Y212189D01*
X75523Y212528D01*
X74646Y212643D01*
D02*
G37*
G36*
X279512Y202740D02*
X276696D01*
X276984Y202045D01*
X277523Y201342D01*
X278226Y200803D01*
X279044Y200465D01*
X279512Y200403D01*
Y202740D01*
D02*
G37*
G36*
X284327D02*
X281512D01*
Y200403D01*
X281980Y200465D01*
X282798Y200803D01*
X283500Y201342D01*
X284039Y202045D01*
X284327Y202740D01*
D02*
G37*
G36*
X84985Y194504D02*
X84307D01*
X83652Y194328D01*
X83348Y194153D01*
X43307D01*
X43307Y194153D01*
X42456Y193984D01*
X41735Y193502D01*
X41735Y193502D01*
X25654Y177421D01*
X14780D01*
Y180134D01*
X4905D01*
Y170260D01*
X7527D01*
X7591Y170175D01*
X7458Y169521D01*
X6811Y169147D01*
X5892Y168228D01*
X5242Y167103D01*
X4905Y165847D01*
Y164547D01*
X5242Y163291D01*
X5892Y162165D01*
X6811Y161246D01*
X7937Y160596D01*
X8462Y160456D01*
Y159938D01*
X7937Y159797D01*
X6811Y159147D01*
X5892Y158228D01*
X5242Y157103D01*
X4905Y155847D01*
Y154547D01*
X5242Y153291D01*
X5892Y152165D01*
X6811Y151246D01*
X7937Y150596D01*
X8462Y150456D01*
Y149938D01*
X7937Y149797D01*
X6811Y149147D01*
X5892Y148228D01*
X5242Y147102D01*
X4905Y145847D01*
Y144547D01*
X5242Y143291D01*
X5892Y142166D01*
X6811Y141246D01*
X7937Y140596D01*
X8462Y140456D01*
Y139938D01*
X7937Y139797D01*
X6811Y139147D01*
X5892Y138228D01*
X5242Y137102D01*
X4905Y135847D01*
Y134547D01*
X5242Y133291D01*
X5892Y132166D01*
X6811Y131246D01*
X7937Y130596D01*
X8462Y130456D01*
Y129938D01*
X7937Y129797D01*
X6811Y129147D01*
X5892Y128228D01*
X5242Y127102D01*
X4905Y125847D01*
Y124547D01*
X5242Y123291D01*
X5892Y122166D01*
X6811Y121246D01*
X7937Y120596D01*
X8462Y120456D01*
Y119938D01*
X7937Y119797D01*
X6811Y119147D01*
X5892Y118228D01*
X5242Y117103D01*
X4905Y115847D01*
Y114547D01*
X5242Y113291D01*
X5892Y112165D01*
X6811Y111246D01*
X7937Y110596D01*
X8462Y110456D01*
Y109938D01*
X7937Y109797D01*
X6811Y109147D01*
X5892Y108228D01*
X5242Y107103D01*
X4905Y105847D01*
Y104547D01*
X5242Y103291D01*
X5892Y102165D01*
X6811Y101246D01*
X7937Y100596D01*
X8462Y100456D01*
Y99938D01*
X7937Y99797D01*
X6811Y99147D01*
X5892Y98228D01*
X5242Y97102D01*
X4999Y96197D01*
X9843D01*
X14686D01*
X14443Y97102D01*
X13793Y98228D01*
X12874Y99147D01*
X11748Y99797D01*
X11223Y99938D01*
Y100456D01*
X11748Y100596D01*
X12874Y101246D01*
X13793Y102165D01*
X14443Y103291D01*
X14476Y103413D01*
X21638D01*
Y100378D01*
X22822D01*
Y99410D01*
X22958Y98727D01*
X23345Y98148D01*
X29250Y92242D01*
X29250Y92242D01*
X29829Y91856D01*
X30512Y91720D01*
X101489D01*
X101766Y91444D01*
X102353Y91105D01*
X103007Y90929D01*
X103685D01*
X104340Y91105D01*
X104927Y91444D01*
X105407Y91923D01*
X105746Y92510D01*
X105921Y93165D01*
Y93843D01*
X105885Y93979D01*
X106213Y94436D01*
X106619Y94464D01*
X106687Y94396D01*
X107274Y94057D01*
X107929Y93882D01*
X108607D01*
X109262Y94057D01*
X109849Y94396D01*
X110328Y94876D01*
X110667Y95463D01*
X110843Y96118D01*
Y96796D01*
X110667Y97451D01*
X110328Y98038D01*
X109849Y98517D01*
X109262Y98856D01*
X108607Y99032D01*
X107929D01*
X107274Y98856D01*
X106687Y98517D01*
X106411Y98241D01*
X36172D01*
X34535Y99878D01*
X34742Y100378D01*
X35449D01*
Y103134D01*
Y107102D01*
X29512D01*
Y106902D01*
X27575D01*
Y107102D01*
X21638D01*
Y106981D01*
X14476D01*
X14443Y107103D01*
X13793Y108228D01*
X12874Y109147D01*
X11748Y109797D01*
X11223Y109938D01*
Y110456D01*
X11748Y110596D01*
X12874Y111246D01*
X13793Y112165D01*
X14443Y113291D01*
X14780Y114547D01*
Y115847D01*
X14443Y117103D01*
X13793Y118228D01*
X12874Y119147D01*
X11748Y119797D01*
X11223Y119938D01*
Y120456D01*
X11748Y120596D01*
X12874Y121246D01*
X13793Y122166D01*
X14443Y123291D01*
X14780Y124547D01*
Y125847D01*
X14443Y127102D01*
X13793Y128228D01*
X12874Y129147D01*
X11748Y129797D01*
X11223Y129938D01*
Y130456D01*
X11748Y130596D01*
X12874Y131246D01*
X13793Y132166D01*
X14443Y133291D01*
X14780Y134547D01*
Y135847D01*
X14443Y137102D01*
X13793Y138228D01*
X12874Y139147D01*
X11748Y139797D01*
X11223Y139938D01*
Y140456D01*
X11748Y140596D01*
X12874Y141246D01*
X13793Y142166D01*
X14443Y143291D01*
X14780Y144547D01*
Y145847D01*
X14443Y147102D01*
X13793Y148228D01*
X12874Y149147D01*
X11748Y149797D01*
X11223Y149938D01*
Y150456D01*
X11748Y150596D01*
X12874Y151246D01*
X13793Y152165D01*
X14443Y153291D01*
X14780Y154547D01*
Y155847D01*
X14443Y157103D01*
X13793Y158228D01*
X12874Y159147D01*
X11748Y159797D01*
X11223Y159938D01*
Y160456D01*
X11748Y160596D01*
X12874Y161246D01*
X13793Y162165D01*
X14443Y163291D01*
X14780Y164547D01*
Y165847D01*
X14443Y167103D01*
X13793Y168228D01*
X12874Y169147D01*
X12227Y169521D01*
X12094Y170175D01*
X12158Y170260D01*
X14780D01*
Y172973D01*
X26575D01*
X26575Y172973D01*
X27426Y173142D01*
X28147Y173624D01*
X44228Y189705D01*
X49704D01*
X49837Y189205D01*
X49600Y189068D01*
X49121Y188589D01*
X48782Y188002D01*
X48606Y187347D01*
Y186669D01*
X48782Y186014D01*
X49121Y185427D01*
X49600Y184948D01*
X50187Y184608D01*
X50842Y184433D01*
X51520D01*
X52175Y184608D01*
X52762Y184948D01*
X53038Y185224D01*
X119340D01*
X124200Y180363D01*
Y139997D01*
X123700Y139790D01*
X123628Y139862D01*
X123041Y140201D01*
X122386Y140376D01*
X121708D01*
X121053Y140201D01*
X120466Y139862D01*
X119987Y139382D01*
X119648Y138795D01*
X119472Y138140D01*
Y137462D01*
X119648Y136808D01*
X119987Y136221D01*
X120263Y135944D01*
Y120818D01*
X105560Y106115D01*
X54022D01*
X53746Y106391D01*
X53159Y106730D01*
X52504Y106905D01*
X51826D01*
X51171Y106730D01*
X50584Y106391D01*
X50105Y105912D01*
X49766Y105324D01*
X49591Y104670D01*
Y103992D01*
X49766Y103337D01*
X50105Y102750D01*
X50584Y102270D01*
X51171Y101931D01*
X51826Y101756D01*
X52504D01*
X53159Y101931D01*
X53746Y102270D01*
X54022Y102546D01*
X106299D01*
X106982Y102682D01*
X107561Y103069D01*
X123309Y118817D01*
X123309Y118817D01*
X123696Y119396D01*
X123831Y120079D01*
X123831Y120079D01*
Y125274D01*
X124331Y125323D01*
X124336Y125301D01*
X124723Y124723D01*
X128660Y120786D01*
X128660Y120786D01*
X129238Y120399D01*
X129921Y120263D01*
X135938D01*
X136214Y119987D01*
X136801Y119648D01*
X137456Y119472D01*
X138134D01*
X138789Y119648D01*
X139376Y119987D01*
X139856Y120466D01*
X140195Y121053D01*
X140370Y121708D01*
Y122386D01*
X140195Y123041D01*
X139856Y123628D01*
X139376Y124108D01*
X138789Y124447D01*
X138134Y124622D01*
X137456D01*
X136801Y124447D01*
X136214Y124108D01*
X135938Y123831D01*
X130660D01*
X127769Y126723D01*
Y181102D01*
X127633Y181785D01*
X127246Y182364D01*
X127246Y182364D01*
X121340Y188270D01*
X120762Y188656D01*
X120079Y188792D01*
X53038D01*
X52762Y189068D01*
X52525Y189205D01*
X52659Y189705D01*
X83348D01*
X83652Y189530D01*
X84307Y189354D01*
X84985D01*
X85640Y189530D01*
X86227Y189869D01*
X86706Y190348D01*
X87045Y190935D01*
X87221Y191590D01*
Y192268D01*
X87045Y192923D01*
X86706Y193510D01*
X86227Y193990D01*
X85640Y194328D01*
X84985Y194504D01*
D02*
G37*
G36*
X242929Y196079D02*
X240173D01*
Y191945D01*
X242929D01*
Y196079D01*
D02*
G37*
G36*
X238173D02*
X235417D01*
Y191945D01*
X238173D01*
Y196079D01*
D02*
G37*
G36*
X242929Y189945D02*
X240173D01*
Y185811D01*
X242929D01*
Y189945D01*
D02*
G37*
G36*
X238173D02*
X235417D01*
Y185811D01*
X238173D01*
Y189945D01*
D02*
G37*
G36*
X134858Y180981D02*
Y178165D01*
X137196D01*
X137134Y178634D01*
X136795Y179452D01*
X136256Y180154D01*
X135554Y180693D01*
X134858Y180981D01*
D02*
G37*
G36*
X132858Y180981D02*
X132163Y180693D01*
X131460Y180154D01*
X130921Y179452D01*
X130583Y178634D01*
X130521Y178165D01*
X132858D01*
Y180981D01*
D02*
G37*
G36*
Y176165D02*
X130521D01*
X130583Y175697D01*
X130921Y174879D01*
X131460Y174177D01*
X132163Y173638D01*
X132858Y173350D01*
Y176165D01*
D02*
G37*
G36*
X137196D02*
X134858D01*
Y173350D01*
X135554Y173638D01*
X136256Y174177D01*
X136795Y174879D01*
X137134Y175697D01*
X137196Y176165D01*
D02*
G37*
G36*
X147221Y181118D02*
X140496D01*
Y173213D01*
X147221D01*
Y181118D01*
D02*
G37*
G36*
X88008Y181118D02*
X81283D01*
Y173213D01*
X88008D01*
Y181118D01*
D02*
G37*
G36*
X74646Y181147D02*
X73768Y181032D01*
X72950Y180693D01*
X72248Y180154D01*
X71709Y179452D01*
X71370Y178634D01*
X71254Y177756D01*
Y176575D01*
X71370Y175697D01*
X71709Y174879D01*
X72248Y174177D01*
X72950Y173638D01*
X73768Y173299D01*
X74646Y173184D01*
X75523Y173299D01*
X76341Y173638D01*
X77044Y174177D01*
X77583Y174879D01*
X77921Y175697D01*
X78037Y176575D01*
Y177756D01*
X77921Y178634D01*
X77583Y179452D01*
X77044Y180154D01*
X76341Y180693D01*
X75523Y181032D01*
X74646Y181147D01*
D02*
G37*
G36*
X112544Y165961D02*
X111866D01*
X111211Y165785D01*
X110624Y165446D01*
X110348Y165170D01*
X57087D01*
X57087Y165170D01*
X56404Y165034D01*
X55825Y164647D01*
X55825Y164647D01*
X49919Y158742D01*
X49533Y158163D01*
X49397Y157480D01*
Y157369D01*
X49121Y157093D01*
X48782Y156506D01*
X48606Y155851D01*
Y155173D01*
X48782Y154518D01*
X49121Y153931D01*
X49600Y153452D01*
X50187Y153112D01*
X50842Y152937D01*
X51520D01*
X52175Y153112D01*
X52762Y153452D01*
X53241Y153931D01*
X53580Y154518D01*
X53756Y155173D01*
Y155851D01*
X53580Y156506D01*
X53269Y157045D01*
X57826Y161601D01*
X110348D01*
X110624Y161326D01*
X111211Y160986D01*
X111866Y160811D01*
X112544D01*
X113199Y160986D01*
X113786Y161326D01*
X114265Y161805D01*
X114604Y162392D01*
X114779Y163047D01*
Y163725D01*
X114604Y164380D01*
X114265Y164967D01*
X113786Y165446D01*
X113199Y165785D01*
X112544Y165961D01*
D02*
G37*
G36*
X260646Y231512D02*
X253134D01*
Y221244D01*
X255105D01*
Y196079D01*
X253134D01*
Y185811D01*
X255105D01*
Y174952D01*
X227607Y147454D01*
X196850D01*
X196850Y147454D01*
X196168Y147318D01*
X195589Y146931D01*
X195589Y146931D01*
X178395Y129737D01*
X171542D01*
X171266Y130013D01*
X170679Y130352D01*
X170024Y130528D01*
X169346D01*
X168691Y130352D01*
X168104Y130013D01*
X167828Y129737D01*
X151575D01*
X150892Y129601D01*
X150313Y129214D01*
X132597Y111498D01*
X132210Y110919D01*
X132074Y110236D01*
Y80597D01*
X131798Y80321D01*
X131459Y79734D01*
X131283Y79079D01*
Y78401D01*
X131459Y77746D01*
X131798Y77159D01*
X132277Y76680D01*
X132864Y76341D01*
X133519Y76165D01*
X134197D01*
X134852Y76341D01*
X135439Y76680D01*
X135919Y77159D01*
X136258Y77746D01*
X136433Y78401D01*
Y79079D01*
X136258Y79734D01*
X135919Y80321D01*
X135643Y80597D01*
Y109497D01*
X152314Y126169D01*
X167828D01*
X168104Y125892D01*
X168691Y125553D01*
X169346Y125378D01*
X170024D01*
X170679Y125553D01*
X171266Y125892D01*
X171542Y126169D01*
X179134D01*
X179817Y126304D01*
X180395Y126691D01*
X197590Y143885D01*
X228346D01*
X229029Y144021D01*
X229608Y144408D01*
X258152Y172951D01*
X258538Y173530D01*
X258674Y174213D01*
Y185811D01*
X260646D01*
Y196079D01*
X258674D01*
Y221244D01*
X260646D01*
Y231512D01*
D02*
G37*
G36*
X353362Y170291D02*
X343488D01*
Y160417D01*
X346110D01*
X346174Y160333D01*
X346041Y159678D01*
X345394Y159305D01*
X344475Y158386D01*
X343825Y157260D01*
X343792Y157139D01*
X340394D01*
X339711Y157003D01*
X339132Y156616D01*
X320127Y137611D01*
X196739D01*
X196463Y137887D01*
X195876Y138226D01*
X195221Y138402D01*
X194543D01*
X193888Y138226D01*
X193301Y137887D01*
X192822Y137408D01*
X192483Y136821D01*
X192307Y136166D01*
Y135488D01*
X192483Y134833D01*
X192822Y134246D01*
X193301Y133766D01*
X193888Y133427D01*
X194543Y133252D01*
X195221D01*
X195876Y133427D01*
X196463Y133766D01*
X196739Y134043D01*
X320866D01*
X321549Y134178D01*
X322128Y134565D01*
X341133Y153570D01*
X343792D01*
X343825Y153449D01*
X344475Y152323D01*
X345394Y151404D01*
X346520Y150754D01*
X347044Y150613D01*
Y150095D01*
X346520Y149955D01*
X345394Y149305D01*
X344475Y148386D01*
X343825Y147260D01*
X343792Y147139D01*
X338268D01*
X338268Y147139D01*
X337585Y147003D01*
X337006Y146616D01*
X337006Y146616D01*
X322096Y131705D01*
X196739D01*
X196463Y131982D01*
X195876Y132321D01*
X195221Y132496D01*
X194543D01*
X193888Y132321D01*
X193301Y131982D01*
X192822Y131502D01*
X192483Y130915D01*
X192307Y130260D01*
Y129582D01*
X192483Y128927D01*
X192822Y128340D01*
X193301Y127861D01*
X193888Y127522D01*
X194543Y127347D01*
X195221D01*
X195876Y127522D01*
X196463Y127861D01*
X196739Y128137D01*
X322835D01*
X323517Y128273D01*
X324096Y128660D01*
X339007Y143570D01*
X343792D01*
X343825Y143449D01*
X344475Y142323D01*
X345394Y141404D01*
X346520Y140754D01*
X347044Y140613D01*
Y140095D01*
X346520Y139955D01*
X345394Y139305D01*
X344475Y138386D01*
X343825Y137260D01*
X343792Y137139D01*
X336142D01*
X335459Y137003D01*
X334880Y136616D01*
X334880Y136616D01*
X324064Y125800D01*
X196739D01*
X196463Y126076D01*
X195876Y126415D01*
X195221Y126591D01*
X194543D01*
X193888Y126415D01*
X193301Y126076D01*
X192822Y125597D01*
X192483Y125010D01*
X192307Y124355D01*
Y123677D01*
X192483Y123022D01*
X192822Y122435D01*
X193301Y121955D01*
X193888Y121616D01*
X194543Y121441D01*
X195221D01*
X195876Y121616D01*
X196463Y121955D01*
X196739Y122231D01*
X324803D01*
X325486Y122367D01*
X326065Y122754D01*
X336881Y133570D01*
X343792D01*
X343825Y133449D01*
X344475Y132323D01*
X345394Y131404D01*
X346520Y130754D01*
X347044Y130613D01*
Y130096D01*
X346520Y129955D01*
X345394Y129305D01*
X344475Y128386D01*
X343825Y127260D01*
X343792Y127139D01*
X334016D01*
X333333Y127003D01*
X332754Y126616D01*
X326033Y119895D01*
X196739D01*
X196463Y120171D01*
X195876Y120510D01*
X195221Y120685D01*
X194543D01*
X193888Y120510D01*
X193301Y120171D01*
X192822Y119691D01*
X192483Y119104D01*
X192307Y118449D01*
Y117771D01*
X192483Y117116D01*
X192822Y116529D01*
X193301Y116050D01*
X193888Y115711D01*
X194543Y115535D01*
X195221D01*
X195876Y115711D01*
X196463Y116050D01*
X196739Y116326D01*
X326772D01*
X327454Y116462D01*
X328033Y116849D01*
X334755Y123570D01*
X343792D01*
X343825Y123449D01*
X344475Y122323D01*
X345394Y121404D01*
X346520Y120754D01*
X347044Y120613D01*
Y120096D01*
X346520Y119955D01*
X345394Y119305D01*
X344475Y118386D01*
X343825Y117260D01*
X343792Y117139D01*
X331890D01*
X331207Y117003D01*
X330628Y116616D01*
X328001Y113989D01*
X196739D01*
X196463Y114265D01*
X195876Y114604D01*
X195221Y114779D01*
X194543D01*
X193888Y114604D01*
X193301Y114265D01*
X192822Y113786D01*
X192483Y113199D01*
X192307Y112544D01*
Y111866D01*
X192483Y111211D01*
X192822Y110624D01*
X193301Y110144D01*
X193888Y109805D01*
X194543Y109630D01*
X195221D01*
X195876Y109805D01*
X196463Y110144D01*
X196739Y110420D01*
X328740D01*
X329423Y110556D01*
X330002Y110943D01*
X332629Y113570D01*
X343792D01*
X343825Y113449D01*
X344475Y112323D01*
X345394Y111404D01*
X346520Y110754D01*
X347044Y110613D01*
Y110096D01*
X346520Y109955D01*
X345394Y109305D01*
X344475Y108386D01*
X343825Y107260D01*
X343792Y107139D01*
X317953D01*
X317270Y107003D01*
X316691Y106616D01*
X316691Y106616D01*
X288631Y78556D01*
X188865D01*
X188589Y78832D01*
X188002Y79171D01*
X187347Y79347D01*
X186669D01*
X186014Y79171D01*
X185427Y78832D01*
X184948Y78353D01*
X184608Y77766D01*
X184433Y77111D01*
Y76433D01*
X184608Y75778D01*
X184948Y75191D01*
X185427Y74711D01*
X186014Y74372D01*
X186669Y74197D01*
X187347D01*
X188002Y74372D01*
X188589Y74711D01*
X188865Y74987D01*
X289370D01*
X290053Y75123D01*
X290632Y75510D01*
X318692Y103570D01*
X343792D01*
X343825Y103449D01*
X344475Y102323D01*
X345394Y101404D01*
X346520Y100754D01*
X347044Y100613D01*
Y100095D01*
X346520Y99955D01*
X345394Y99305D01*
X344475Y98386D01*
X343825Y97260D01*
X343582Y96354D01*
X348425D01*
X353268D01*
X353026Y97260D01*
X352376Y98386D01*
X351457Y99305D01*
X350331Y99955D01*
X349806Y100095D01*
Y100613D01*
X350331Y100754D01*
X351457Y101404D01*
X352376Y102323D01*
X353026Y103449D01*
X353362Y104704D01*
Y106004D01*
X353026Y107260D01*
X352376Y108386D01*
X351457Y109305D01*
X350331Y109955D01*
X349806Y110096D01*
Y110613D01*
X350331Y110754D01*
X351457Y111404D01*
X352376Y112323D01*
X353026Y113449D01*
X353362Y114704D01*
Y116004D01*
X353026Y117260D01*
X352376Y118386D01*
X351457Y119305D01*
X350331Y119955D01*
X349806Y120096D01*
Y120613D01*
X350331Y120754D01*
X351457Y121404D01*
X352376Y122323D01*
X353026Y123449D01*
X353362Y124704D01*
Y126004D01*
X353026Y127260D01*
X352376Y128386D01*
X351457Y129305D01*
X350331Y129955D01*
X349806Y130096D01*
Y130613D01*
X350331Y130754D01*
X351457Y131404D01*
X352376Y132323D01*
X353026Y133449D01*
X353362Y134704D01*
Y136004D01*
X353026Y137260D01*
X352376Y138386D01*
X351457Y139305D01*
X350331Y139955D01*
X349806Y140095D01*
Y140613D01*
X350331Y140754D01*
X351457Y141404D01*
X352376Y142323D01*
X353026Y143449D01*
X353362Y144704D01*
Y146004D01*
X353026Y147260D01*
X352376Y148386D01*
X351457Y149305D01*
X350331Y149955D01*
X349806Y150095D01*
Y150613D01*
X350331Y150754D01*
X351457Y151404D01*
X352376Y152323D01*
X353026Y153449D01*
X353362Y154704D01*
Y156004D01*
X353026Y157260D01*
X352376Y158386D01*
X351457Y159305D01*
X350810Y159678D01*
X350677Y160333D01*
X350741Y160417D01*
X353362D01*
Y170291D01*
D02*
G37*
G36*
X134858Y149485D02*
Y146669D01*
X137196D01*
X137134Y147138D01*
X136795Y147956D01*
X136256Y148658D01*
X135554Y149197D01*
X134858Y149485D01*
D02*
G37*
G36*
X132858Y149485D02*
X132163Y149197D01*
X131460Y148658D01*
X130921Y147956D01*
X130583Y147138D01*
X130521Y146669D01*
X132858D01*
Y149485D01*
D02*
G37*
G36*
Y144669D02*
X130521D01*
X130583Y144201D01*
X130921Y143383D01*
X131460Y142681D01*
X132163Y142142D01*
X132858Y141854D01*
Y144669D01*
D02*
G37*
G36*
X137196D02*
X134858D01*
Y141854D01*
X135554Y142142D01*
X136256Y142681D01*
X136795Y143383D01*
X137134Y144201D01*
X137196Y144669D01*
D02*
G37*
G36*
X147221Y149622D02*
X140496D01*
Y141717D01*
X147221D01*
Y149622D01*
D02*
G37*
G36*
X88008Y149622D02*
X81283D01*
Y141717D01*
X88008D01*
Y149622D01*
D02*
G37*
G36*
X74646Y149651D02*
X73768Y149536D01*
X72950Y149197D01*
X72248Y148658D01*
X71709Y147955D01*
X71370Y147138D01*
X71254Y146260D01*
Y145079D01*
X71370Y144201D01*
X71709Y143383D01*
X72248Y142681D01*
X72950Y142142D01*
X73768Y141803D01*
X74646Y141688D01*
X75523Y141803D01*
X76341Y142142D01*
X77044Y142681D01*
X77583Y143383D01*
X77921Y144201D01*
X78037Y145079D01*
Y146260D01*
X77921Y147138D01*
X77583Y147955D01*
X77044Y148658D01*
X76341Y149197D01*
X75523Y149536D01*
X74646Y149651D01*
D02*
G37*
G36*
X98764Y150213D02*
X98086D01*
X97431Y150037D01*
X96844Y149698D01*
X96365Y149219D01*
X96026Y148632D01*
X95850Y147977D01*
Y147299D01*
X96026Y146644D01*
X96365Y146057D01*
X96844Y145577D01*
X97431Y145238D01*
X98086Y145063D01*
X98764D01*
X99419Y145238D01*
X100006Y145577D01*
X100282Y145853D01*
X113434D01*
X115535Y143752D01*
Y143362D01*
X115711Y142707D01*
X116050Y142120D01*
X116529Y141640D01*
X117116Y141302D01*
X117771Y141126D01*
X118449D01*
X119104Y141302D01*
X119691Y141640D01*
X120171Y142120D01*
X120510Y142707D01*
X120685Y143362D01*
Y144040D01*
X120510Y144695D01*
X120171Y145282D01*
X119691Y145761D01*
X119104Y146100D01*
X118449Y146276D01*
X118059D01*
X115435Y148899D01*
X114856Y149286D01*
X114173Y149422D01*
X100282D01*
X100006Y149698D01*
X99419Y150037D01*
X98764Y150213D01*
D02*
G37*
G36*
X116476Y136626D02*
X115798D01*
X115143Y136451D01*
X114556Y136112D01*
X114280Y135836D01*
X57280D01*
X57280Y135836D01*
X56597Y135700D01*
X56018Y135313D01*
X49919Y129214D01*
X49533Y128636D01*
X49397Y127953D01*
Y125873D01*
X49121Y125597D01*
X48782Y125010D01*
X48606Y124355D01*
Y123677D01*
X48782Y123022D01*
X49121Y122435D01*
X49600Y121955D01*
X50187Y121616D01*
X50842Y121441D01*
X51520D01*
X52175Y121616D01*
X52762Y121955D01*
X53241Y122435D01*
X53580Y123022D01*
X53756Y123677D01*
Y124355D01*
X53580Y125010D01*
X53241Y125597D01*
X52965Y125873D01*
Y127214D01*
X58019Y132267D01*
X114280D01*
X114556Y131991D01*
X115143Y131652D01*
X115798Y131477D01*
X116476D01*
X117131Y131652D01*
X117718Y131991D01*
X118197Y132471D01*
X118536Y133058D01*
X118712Y133712D01*
Y134390D01*
X118536Y135045D01*
X118197Y135632D01*
X117718Y136112D01*
X117131Y136451D01*
X116476Y136626D01*
D02*
G37*
G36*
X88008Y118126D02*
X81283D01*
Y110221D01*
X88008D01*
Y118126D01*
D02*
G37*
G36*
X74646Y118155D02*
X73768Y118039D01*
X72950Y117701D01*
X72248Y117162D01*
X71709Y116459D01*
X71370Y115641D01*
X71254Y114764D01*
Y113583D01*
X71370Y112705D01*
X71709Y111887D01*
X72248Y111185D01*
X72950Y110646D01*
X73768Y110307D01*
X74646Y110192D01*
X75523Y110307D01*
X76341Y110646D01*
X77044Y111185D01*
X77583Y111887D01*
X77921Y112705D01*
X78037Y113583D01*
Y114764D01*
X77921Y115641D01*
X77583Y116459D01*
X77044Y117162D01*
X76341Y117701D01*
X75523Y118039D01*
X74646Y118155D01*
D02*
G37*
G36*
X234591Y101000D02*
X233913D01*
X233258Y100824D01*
X232671Y100486D01*
X232395Y100209D01*
X174213D01*
X173530Y100074D01*
X172951Y99687D01*
X172951Y99687D01*
X162124Y88860D01*
X161737Y88281D01*
X161601Y87598D01*
Y76660D01*
X161326Y76384D01*
X160986Y75797D01*
X160811Y75142D01*
Y74464D01*
X160986Y73809D01*
X161326Y73222D01*
X161805Y72743D01*
X162392Y72404D01*
X163047Y72228D01*
X163725D01*
X163780Y72243D01*
X164042Y71962D01*
X164125Y71818D01*
X163961Y71205D01*
Y70527D01*
X164136Y69872D01*
X164475Y69285D01*
X164954Y68806D01*
X165542Y68467D01*
X166197Y68291D01*
X166874D01*
X167529Y68467D01*
X168116Y68806D01*
X168596Y69285D01*
X168935Y69872D01*
X169110Y70527D01*
Y71205D01*
X168946Y71818D01*
X169029Y71962D01*
X169291Y72243D01*
X169346Y72228D01*
X170024D01*
X170679Y72404D01*
X171266Y72743D01*
X171745Y73222D01*
X172084Y73809D01*
X172260Y74464D01*
Y75142D01*
X172084Y75797D01*
X171745Y76384D01*
X171469Y76660D01*
Y83316D01*
X172983Y84830D01*
X244206D01*
X244482Y84554D01*
X245069Y84215D01*
X245724Y84039D01*
X246402D01*
X247057Y84215D01*
X247644Y84554D01*
X248123Y85033D01*
X248462Y85620D01*
X248638Y86275D01*
Y86953D01*
X248462Y87608D01*
X248123Y88195D01*
X247644Y88674D01*
X247057Y89013D01*
X246402Y89189D01*
X245724D01*
X245069Y89013D01*
X244482Y88674D01*
X244206Y88398D01*
X172338D01*
X172184Y88622D01*
X172115Y88882D01*
X173967Y90735D01*
X238300D01*
X238577Y90459D01*
X239164Y90120D01*
X239819Y89945D01*
X240496D01*
X241151Y90120D01*
X241739Y90459D01*
X242218Y90939D01*
X242557Y91526D01*
X242732Y92181D01*
Y92859D01*
X242557Y93514D01*
X242218Y94101D01*
X241739Y94580D01*
X241151Y94919D01*
X240496Y95095D01*
X239819D01*
X239164Y94919D01*
X238577Y94580D01*
X238300Y94304D01*
X173322D01*
X173168Y94528D01*
X173099Y94788D01*
X174952Y96641D01*
X232395D01*
X232671Y96365D01*
X233258Y96026D01*
X233913Y95850D01*
X234591D01*
X235246Y96026D01*
X235833Y96365D01*
X236312Y96844D01*
X236651Y97431D01*
X236827Y98086D01*
Y98764D01*
X236651Y99419D01*
X236312Y100006D01*
X235833Y100486D01*
X235246Y100824D01*
X234591Y101000D01*
D02*
G37*
G36*
X353268Y94354D02*
X349425D01*
Y90511D01*
X350331Y90754D01*
X351457Y91404D01*
X352376Y92323D01*
X353026Y93449D01*
X353268Y94354D01*
D02*
G37*
G36*
X347425D02*
X343582D01*
X343825Y93449D01*
X344475Y92323D01*
X345394Y91404D01*
X346520Y90754D01*
X347425Y90511D01*
Y94354D01*
D02*
G37*
G36*
X14686Y94197D02*
X9843D01*
X4999D01*
X5242Y93291D01*
X5892Y92165D01*
X6811Y91246D01*
X7283Y90974D01*
X7464Y90753D01*
X7696Y90435D01*
X7848Y90197D01*
X7696Y89959D01*
X7470Y89649D01*
X7263Y89408D01*
X6811Y89147D01*
X5892Y88228D01*
X5242Y87103D01*
X4999Y86197D01*
X9843D01*
X14686D01*
X14443Y87103D01*
X13793Y88228D01*
X12874Y89147D01*
X12402Y89420D01*
X12221Y89641D01*
X11989Y89959D01*
X11837Y90197D01*
X11989Y90435D01*
X12215Y90745D01*
X12422Y90986D01*
X12874Y91246D01*
X13793Y92165D01*
X14443Y93291D01*
X14686Y94197D01*
D02*
G37*
G36*
X8843Y84197D02*
X4999D01*
X5242Y83291D01*
X5892Y82165D01*
X6811Y81246D01*
X7937Y80596D01*
X8843Y80354D01*
Y84197D01*
D02*
G37*
G36*
X14686D02*
X10842D01*
Y80354D01*
X11748Y80596D01*
X12874Y81246D01*
X13793Y82165D01*
X14443Y83291D01*
X14686Y84197D01*
D02*
G37*
G36*
X88008Y86630D02*
X81283D01*
Y78724D01*
X82422D01*
Y55134D01*
X81283D01*
Y47228D01*
X88008D01*
Y55134D01*
X86870D01*
Y78724D01*
X88008D01*
Y80453D01*
X111891D01*
X112195Y80278D01*
X112850Y80102D01*
X113528D01*
X114183Y80278D01*
X114770Y80617D01*
X115249Y81096D01*
X115588Y81683D01*
X115764Y82338D01*
Y83016D01*
X115588Y83671D01*
X115249Y84258D01*
X114770Y84737D01*
X114183Y85076D01*
X113528Y85252D01*
X112850D01*
X112195Y85076D01*
X111891Y84901D01*
X88008D01*
Y86630D01*
D02*
G37*
G36*
X74646Y86659D02*
X73768Y86543D01*
X72950Y86205D01*
X72248Y85666D01*
X71709Y84963D01*
X71370Y84145D01*
X71254Y83268D01*
Y82087D01*
X71370Y81209D01*
X71709Y80391D01*
X72248Y79689D01*
X72950Y79150D01*
X73768Y78811D01*
X74646Y78695D01*
X75523Y78811D01*
X76341Y79150D01*
X77044Y79689D01*
X77583Y80391D01*
X77921Y81209D01*
X78037Y82087D01*
Y83268D01*
X77921Y84145D01*
X77583Y84963D01*
X77044Y85666D01*
X76341Y86205D01*
X75523Y86543D01*
X74646Y86659D01*
D02*
G37*
G36*
Y55163D02*
X73768Y55047D01*
X72950Y54708D01*
X72248Y54170D01*
X71709Y53467D01*
X71370Y52649D01*
X71254Y51772D01*
Y50591D01*
X71370Y49713D01*
X71709Y48895D01*
X72248Y48193D01*
X72950Y47654D01*
X73768Y47315D01*
X74646Y47199D01*
X75523Y47315D01*
X76341Y47654D01*
X77044Y48193D01*
X77583Y48895D01*
X77921Y49713D01*
X78037Y50591D01*
Y51772D01*
X77921Y52649D01*
X77583Y53467D01*
X77044Y54170D01*
X76341Y54708D01*
X75523Y55047D01*
X74646Y55163D01*
D02*
G37*
G36*
X144299Y46039D02*
X143103D01*
X141947Y45730D01*
X140911Y45132D01*
X140065Y44286D01*
X139467Y43250D01*
X139157Y42094D01*
Y40898D01*
X139467Y39742D01*
X140065Y38706D01*
X140911Y37861D01*
X141947Y37262D01*
X143103Y36953D01*
X144299D01*
X145454Y37262D01*
X146490Y37861D01*
X147336Y38706D01*
X147934Y39742D01*
X148244Y40898D01*
Y42094D01*
X147934Y43250D01*
X147336Y44286D01*
X146490Y45132D01*
X145454Y45730D01*
X144299Y46039D01*
D02*
G37*
G36*
X134299D02*
X133103D01*
X131947Y45730D01*
X130911Y45132D01*
X130065Y44286D01*
X129467Y43250D01*
X129157Y42094D01*
Y40898D01*
X129467Y39742D01*
X130065Y38706D01*
X130911Y37861D01*
X131947Y37262D01*
X133103Y36953D01*
X134299D01*
X135454Y37262D01*
X136490Y37861D01*
X137336Y38706D01*
X137935Y39742D01*
X138244Y40898D01*
Y42094D01*
X137935Y43250D01*
X137336Y44286D01*
X136490Y45132D01*
X135454Y45730D01*
X134299Y46039D01*
D02*
G37*
G36*
X124299D02*
X123103D01*
X121947Y45730D01*
X120911Y45132D01*
X120065Y44286D01*
X119467Y43250D01*
X119158Y42094D01*
Y40898D01*
X119467Y39742D01*
X120065Y38706D01*
X120911Y37861D01*
X121947Y37262D01*
X123103Y36953D01*
X124299D01*
X125454Y37262D01*
X126490Y37861D01*
X127336Y38706D01*
X127935Y39742D01*
X128244Y40898D01*
Y42094D01*
X127935Y43250D01*
X127336Y44286D01*
X126490Y45132D01*
X125454Y45730D01*
X124299Y46039D01*
D02*
G37*
G36*
X298184Y43520D02*
X297092D01*
X296036Y43237D01*
X295090Y42691D01*
X294317Y41918D01*
X293771Y40972D01*
X293488Y39916D01*
Y38824D01*
X293771Y37768D01*
X294317Y36822D01*
X295090Y36050D01*
X296036Y35503D01*
X297092Y35221D01*
X298184D01*
X299239Y35503D01*
X300186Y36050D01*
X300958Y36822D01*
X301505Y37768D01*
X301787Y38824D01*
Y39916D01*
X301505Y40972D01*
X300958Y41918D01*
X300186Y42691D01*
X299239Y43237D01*
X298184Y43520D01*
D02*
G37*
G36*
X268263D02*
X267170D01*
X266115Y43237D01*
X265169Y42691D01*
X264396Y41918D01*
X263850Y40972D01*
X263567Y39916D01*
Y38824D01*
X263850Y37768D01*
X264396Y36822D01*
X265169Y36050D01*
X266115Y35503D01*
X267170Y35221D01*
X268263D01*
X269318Y35503D01*
X270265Y36050D01*
X271037Y36822D01*
X271583Y37768D01*
X271866Y38824D01*
Y39916D01*
X271583Y40972D01*
X271037Y41918D01*
X270265Y42691D01*
X269318Y43237D01*
X268263Y43520D01*
D02*
G37*
G36*
X124701Y35932D02*
Y32496D01*
X128136D01*
X127935Y33250D01*
X127336Y34286D01*
X126490Y35132D01*
X125454Y35730D01*
X124701Y35932D01*
D02*
G37*
G36*
X122701Y35932D02*
X121947Y35730D01*
X120911Y35132D01*
X120065Y34286D01*
X119467Y33250D01*
X119265Y32496D01*
X122701D01*
Y35932D01*
D02*
G37*
G36*
Y30496D02*
X119265D01*
X119467Y29742D01*
X120065Y28706D01*
X120911Y27861D01*
X121947Y27262D01*
X122701Y27060D01*
Y30496D01*
D02*
G37*
G36*
X128136D02*
X124701D01*
Y27060D01*
X125454Y27262D01*
X126490Y27861D01*
X127336Y28706D01*
X127935Y29742D01*
X128136Y30496D01*
D02*
G37*
G36*
X144299Y36039D02*
X143103D01*
X141947Y35730D01*
X140911Y35132D01*
X140065Y34286D01*
X139467Y33250D01*
X139157Y32094D01*
Y30898D01*
X139467Y29742D01*
X140065Y28706D01*
X140911Y27861D01*
X141947Y27262D01*
X143103Y26953D01*
X144299D01*
X145454Y27262D01*
X146490Y27861D01*
X147336Y28706D01*
X147934Y29742D01*
X148244Y30898D01*
Y32094D01*
X147934Y33250D01*
X147336Y34286D01*
X146490Y35132D01*
X145454Y35730D01*
X144299Y36039D01*
D02*
G37*
G36*
X134299D02*
X133103D01*
X131947Y35730D01*
X130911Y35132D01*
X130065Y34286D01*
X129467Y33250D01*
X129157Y32094D01*
Y30898D01*
X129467Y29742D01*
X130065Y28706D01*
X130911Y27861D01*
X131947Y27262D01*
X133103Y26953D01*
X134299D01*
X135454Y27262D01*
X136490Y27861D01*
X137336Y28706D01*
X137935Y29742D01*
X138244Y30898D01*
Y32094D01*
X137935Y33250D01*
X137336Y34286D01*
X136490Y35132D01*
X135454Y35730D01*
X134299Y36039D01*
D02*
G37*
G36*
X345136Y18701D02*
X343840D01*
X342589Y18365D01*
X341466Y17718D01*
X340550Y16801D01*
X339902Y15679D01*
X339567Y14427D01*
Y13132D01*
X339902Y11880D01*
X340550Y10758D01*
X341466Y9842D01*
X342589Y9194D01*
X343840Y8858D01*
X345136D01*
X346388Y9194D01*
X347510Y9842D01*
X348426Y10758D01*
X349074Y11880D01*
X349409Y13132D01*
Y14427D01*
X349074Y15679D01*
X348426Y16801D01*
X347510Y17718D01*
X346388Y18365D01*
X345136Y18701D01*
D02*
G37*
G36*
X14427D02*
X13132D01*
X11880Y18365D01*
X10758Y17718D01*
X9842Y16801D01*
X9194Y15679D01*
X8858Y14427D01*
Y13132D01*
X9194Y11880D01*
X9842Y10758D01*
X10758Y9842D01*
X11880Y9194D01*
X13132Y8858D01*
X14427D01*
X15679Y9194D01*
X16801Y9842D01*
X17718Y10758D01*
X18365Y11880D01*
X18701Y13132D01*
Y14427D01*
X18365Y15679D01*
X17718Y16801D01*
X16801Y17718D01*
X15679Y18365D01*
X14427Y18701D01*
D02*
G37*
%LPD*%
G36*
X52380Y188043D02*
X52464Y187983D01*
X52559Y187931D01*
X52664Y187885D01*
X52780Y187846D01*
X52905Y187814D01*
X53041Y187790D01*
X53188Y187772D01*
X53344Y187761D01*
X53511Y187758D01*
Y186258D01*
X53344Y186254D01*
X53041Y186226D01*
X52905Y186202D01*
X52780Y186170D01*
X52664Y186131D01*
X52559Y186085D01*
X52464Y186032D01*
X52380Y185972D01*
X52306Y185906D01*
Y188110D01*
X52380Y188043D01*
D02*
G37*
G36*
X13779Y177335D02*
X13850Y177134D01*
X13969Y176957D01*
X14135Y176803D01*
X14349Y176673D01*
X14610Y176567D01*
X14919Y176484D01*
X15275Y176425D01*
X15679Y176390D01*
X16130Y176378D01*
Y174016D01*
X15679Y174004D01*
X15275Y173969D01*
X14919Y173909D01*
X14610Y173827D01*
X14349Y173721D01*
X14135Y173591D01*
X13969Y173437D01*
X13850Y173260D01*
X13779Y173059D01*
X13756Y172835D01*
Y177559D01*
X13779Y177335D01*
D02*
G37*
G36*
X123083Y136603D02*
X123023Y136518D01*
X122970Y136423D01*
X122924Y136318D01*
X122885Y136203D01*
X122854Y136077D01*
X122829Y135941D01*
X122811Y135795D01*
X122801Y135639D01*
X122797Y135472D01*
X121297D01*
X121294Y135639D01*
X121265Y135941D01*
X121241Y136077D01*
X121209Y136203D01*
X121170Y136318D01*
X121125Y136423D01*
X121072Y136518D01*
X121012Y136603D01*
X120945Y136677D01*
X123150D01*
X123083Y136603D01*
D02*
G37*
G36*
X136671Y120945D02*
X136596Y121012D01*
X136512Y121072D01*
X136417Y121125D01*
X136312Y121170D01*
X136197Y121209D01*
X136071Y121241D01*
X135935Y121265D01*
X135789Y121283D01*
X135632Y121294D01*
X135466Y121297D01*
Y122797D01*
X135632Y122801D01*
X135935Y122829D01*
X136071Y122854D01*
X136197Y122885D01*
X136312Y122924D01*
X136417Y122970D01*
X136512Y123023D01*
X136596Y123083D01*
X136671Y123150D01*
Y120945D01*
D02*
G37*
G36*
X53364Y105366D02*
X53449Y105306D01*
X53544Y105253D01*
X53649Y105208D01*
X53764Y105169D01*
X53890Y105137D01*
X54026Y105112D01*
X54172Y105095D01*
X54328Y105084D01*
X54495Y105081D01*
Y103581D01*
X54328Y103577D01*
X54026Y103549D01*
X53890Y103524D01*
X53764Y103493D01*
X53649Y103454D01*
X53544Y103408D01*
X53449Y103355D01*
X53364Y103295D01*
X53290Y103228D01*
Y105433D01*
X53364Y105366D01*
D02*
G37*
G36*
X107143Y95354D02*
X107069Y95421D01*
X106984Y95481D01*
X106890Y95534D01*
X106784Y95580D01*
X106669Y95619D01*
X106544Y95650D01*
X106408Y95675D01*
X106261Y95693D01*
X106105Y95703D01*
X105938Y95707D01*
Y97207D01*
X106105Y97210D01*
X106408Y97238D01*
X106544Y97263D01*
X106669Y97295D01*
X106784Y97334D01*
X106890Y97379D01*
X106984Y97432D01*
X107069Y97492D01*
X107143Y97559D01*
Y95354D01*
D02*
G37*
G36*
X102222Y92402D02*
X102148Y92469D01*
X102063Y92528D01*
X101968Y92581D01*
X101863Y92627D01*
X101748Y92666D01*
X101622Y92698D01*
X101486Y92722D01*
X101340Y92740D01*
X101184Y92750D01*
X101017Y92754D01*
Y94254D01*
X101184Y94257D01*
X101486Y94286D01*
X101622Y94310D01*
X101748Y94342D01*
X101863Y94381D01*
X101968Y94427D01*
X102063Y94479D01*
X102148Y94539D01*
X102222Y94606D01*
Y92402D01*
D02*
G37*
G36*
X111080Y162284D02*
X111006Y162350D01*
X110921Y162410D01*
X110827Y162463D01*
X110722Y162509D01*
X110606Y162548D01*
X110480Y162579D01*
X110345Y162604D01*
X110198Y162622D01*
X110042Y162632D01*
X109875Y162636D01*
Y164136D01*
X110042Y164139D01*
X110345Y164167D01*
X110480Y164192D01*
X110606Y164224D01*
X110722Y164263D01*
X110827Y164309D01*
X110921Y164361D01*
X111006Y164421D01*
X111080Y164488D01*
Y162284D01*
D02*
G37*
G36*
X170884Y128988D02*
X170968Y128928D01*
X171063Y128875D01*
X171168Y128830D01*
X171284Y128791D01*
X171409Y128759D01*
X171545Y128735D01*
X171691Y128717D01*
X171848Y128706D01*
X172015Y128703D01*
Y127203D01*
X171848Y127199D01*
X171545Y127171D01*
X171409Y127146D01*
X171284Y127115D01*
X171168Y127076D01*
X171063Y127030D01*
X170968Y126977D01*
X170884Y126917D01*
X170810Y126850D01*
Y129055D01*
X170884Y128988D01*
D02*
G37*
G36*
X168560Y126850D02*
X168486Y126917D01*
X168402Y126977D01*
X168307Y127030D01*
X168202Y127076D01*
X168087Y127115D01*
X167961Y127146D01*
X167825Y127171D01*
X167679Y127189D01*
X167522Y127199D01*
X167355Y127203D01*
Y128703D01*
X167522Y128706D01*
X167825Y128735D01*
X167961Y128759D01*
X168087Y128791D01*
X168202Y128830D01*
X168307Y128875D01*
X168402Y128928D01*
X168486Y128988D01*
X168560Y129055D01*
Y126850D01*
D02*
G37*
G36*
X134612Y80903D02*
X134640Y80600D01*
X134665Y80464D01*
X134696Y80339D01*
X134735Y80223D01*
X134781Y80118D01*
X134834Y80023D01*
X134894Y79939D01*
X134961Y79865D01*
X132756D01*
X132823Y79939D01*
X132883Y80023D01*
X132936Y80118D01*
X132981Y80223D01*
X133020Y80339D01*
X133052Y80464D01*
X133077Y80600D01*
X133094Y80747D01*
X133105Y80903D01*
X133108Y81070D01*
X134608D01*
X134612Y80903D01*
D02*
G37*
G36*
X196081Y136862D02*
X196165Y136802D01*
X196260Y136749D01*
X196365Y136704D01*
X196481Y136665D01*
X196606Y136633D01*
X196742Y136609D01*
X196888Y136591D01*
X197045Y136580D01*
X197212Y136577D01*
Y135077D01*
X197045Y135073D01*
X196742Y135045D01*
X196606Y135020D01*
X196481Y134989D01*
X196365Y134950D01*
X196260Y134904D01*
X196165Y134851D01*
X196081Y134791D01*
X196007Y134724D01*
Y136929D01*
X196081Y136862D01*
D02*
G37*
G36*
Y130957D02*
X196165Y130897D01*
X196260Y130844D01*
X196365Y130798D01*
X196481Y130759D01*
X196606Y130728D01*
X196742Y130703D01*
X196888Y130685D01*
X197045Y130675D01*
X197212Y130671D01*
Y129171D01*
X197045Y129168D01*
X196742Y129140D01*
X196606Y129115D01*
X196481Y129083D01*
X196365Y129044D01*
X196260Y128999D01*
X196165Y128946D01*
X196081Y128886D01*
X196007Y128819D01*
Y131024D01*
X196081Y130957D01*
D02*
G37*
G36*
Y125051D02*
X196165Y124991D01*
X196260Y124938D01*
X196365Y124893D01*
X196481Y124854D01*
X196606Y124822D01*
X196742Y124797D01*
X196888Y124780D01*
X197045Y124769D01*
X197212Y124766D01*
Y123266D01*
X197045Y123262D01*
X196742Y123234D01*
X196606Y123209D01*
X196481Y123178D01*
X196365Y123139D01*
X196260Y123093D01*
X196165Y123040D01*
X196081Y122980D01*
X196007Y122913D01*
Y125118D01*
X196081Y125051D01*
D02*
G37*
G36*
Y119146D02*
X196165Y119086D01*
X196260Y119033D01*
X196365Y118987D01*
X196481Y118948D01*
X196606Y118917D01*
X196742Y118892D01*
X196888Y118874D01*
X197045Y118864D01*
X197212Y118860D01*
Y117360D01*
X197045Y117357D01*
X196742Y117329D01*
X196606Y117304D01*
X196481Y117272D01*
X196365Y117233D01*
X196260Y117188D01*
X196165Y117135D01*
X196081Y117075D01*
X196007Y117008D01*
Y119213D01*
X196081Y119146D01*
D02*
G37*
G36*
Y113240D02*
X196165Y113180D01*
X196260Y113127D01*
X196365Y113082D01*
X196481Y113043D01*
X196606Y113011D01*
X196742Y112986D01*
X196888Y112969D01*
X197045Y112958D01*
X197212Y112955D01*
Y111455D01*
X197045Y111451D01*
X196742Y111423D01*
X196606Y111398D01*
X196481Y111367D01*
X196365Y111328D01*
X196260Y111282D01*
X196165Y111229D01*
X196081Y111169D01*
X196007Y111102D01*
Y113307D01*
X196081Y113240D01*
D02*
G37*
G36*
X188207Y77807D02*
X188291Y77747D01*
X188386Y77694D01*
X188491Y77649D01*
X188606Y77610D01*
X188732Y77578D01*
X188868Y77553D01*
X189014Y77536D01*
X189171Y77525D01*
X189338Y77522D01*
Y76022D01*
X189171Y76018D01*
X188868Y75990D01*
X188732Y75965D01*
X188606Y75934D01*
X188491Y75895D01*
X188386Y75849D01*
X188291Y75796D01*
X188207Y75736D01*
X188133Y75669D01*
Y77874D01*
X188207Y77807D01*
D02*
G37*
G36*
X99624Y148673D02*
X99709Y148613D01*
X99803Y148561D01*
X99908Y148515D01*
X100024Y148476D01*
X100149Y148444D01*
X100285Y148419D01*
X100432Y148402D01*
X100588Y148391D01*
X100755Y148388D01*
Y146888D01*
X100588Y146884D01*
X100285Y146856D01*
X100149Y146831D01*
X100024Y146800D01*
X99908Y146761D01*
X99803Y146715D01*
X99709Y146662D01*
X99624Y146602D01*
X99550Y146535D01*
Y148740D01*
X99624Y148673D01*
D02*
G37*
G36*
X117114Y145763D02*
X117348Y145569D01*
X117461Y145490D01*
X117572Y145424D01*
X117682Y145370D01*
X117788Y145328D01*
X117893Y145298D01*
X117995Y145281D01*
X118095Y145275D01*
X116535Y143717D01*
X116530Y143816D01*
X116513Y143919D01*
X116483Y144023D01*
X116441Y144130D01*
X116387Y144238D01*
X116321Y144350D01*
X116242Y144463D01*
X116151Y144579D01*
X116048Y144697D01*
X115933Y144818D01*
X116993Y145878D01*
X117114Y145763D01*
D02*
G37*
G36*
X115012Y132949D02*
X114938Y133016D01*
X114854Y133076D01*
X114759Y133129D01*
X114654Y133175D01*
X114538Y133213D01*
X114413Y133245D01*
X114277Y133270D01*
X114131Y133287D01*
X113974Y133298D01*
X113807Y133301D01*
Y134801D01*
X113974Y134805D01*
X114277Y134833D01*
X114413Y134858D01*
X114538Y134890D01*
X114654Y134928D01*
X114759Y134974D01*
X114854Y135027D01*
X114938Y135087D01*
X115012Y135154D01*
Y132949D01*
D02*
G37*
G36*
X51935Y126179D02*
X51963Y125876D01*
X51987Y125740D01*
X52019Y125614D01*
X52058Y125499D01*
X52104Y125394D01*
X52157Y125299D01*
X52217Y125215D01*
X52284Y125140D01*
X50079D01*
X50146Y125215D01*
X50206Y125299D01*
X50258Y125394D01*
X50304Y125499D01*
X50343Y125614D01*
X50375Y125740D01*
X50399Y125876D01*
X50417Y126022D01*
X50428Y126179D01*
X50431Y126345D01*
X51931D01*
X51935Y126179D01*
D02*
G37*
G36*
X233127Y97323D02*
X233053Y97390D01*
X232969Y97450D01*
X232874Y97502D01*
X232769Y97548D01*
X232653Y97587D01*
X232528Y97619D01*
X232392Y97644D01*
X232246Y97661D01*
X232089Y97672D01*
X231922Y97675D01*
Y99175D01*
X232089Y99179D01*
X232392Y99207D01*
X232528Y99232D01*
X232653Y99263D01*
X232769Y99302D01*
X232874Y99348D01*
X232969Y99401D01*
X233053Y99461D01*
X233127Y99528D01*
Y97323D01*
D02*
G37*
G36*
X239033Y91417D02*
X238959Y91484D01*
X238874Y91544D01*
X238779Y91597D01*
X238674Y91643D01*
X238559Y91682D01*
X238433Y91713D01*
X238297Y91738D01*
X238151Y91756D01*
X237995Y91766D01*
X237828Y91770D01*
Y93270D01*
X237995Y93273D01*
X238297Y93301D01*
X238433Y93326D01*
X238559Y93358D01*
X238674Y93397D01*
X238779Y93442D01*
X238874Y93495D01*
X238959Y93555D01*
X239033Y93622D01*
Y91417D01*
D02*
G37*
G36*
X244938Y85512D02*
X244864Y85579D01*
X244780Y85639D01*
X244685Y85691D01*
X244580Y85737D01*
X244464Y85776D01*
X244339Y85808D01*
X244203Y85833D01*
X244057Y85850D01*
X243900Y85861D01*
X243733Y85864D01*
Y87364D01*
X243900Y87368D01*
X244203Y87396D01*
X244339Y87421D01*
X244464Y87452D01*
X244580Y87491D01*
X244685Y87537D01*
X244780Y87590D01*
X244864Y87650D01*
X244938Y87717D01*
Y85512D01*
D02*
G37*
G36*
X170439Y76966D02*
X170467Y76663D01*
X170491Y76527D01*
X170523Y76402D01*
X170562Y76286D01*
X170608Y76181D01*
X170660Y76086D01*
X170721Y76002D01*
X170787Y75928D01*
X168583D01*
X168650Y76002D01*
X168710Y76086D01*
X168762Y76181D01*
X168808Y76286D01*
X168847Y76402D01*
X168879Y76527D01*
X168903Y76663D01*
X168921Y76810D01*
X168931Y76966D01*
X168935Y77133D01*
X170435D01*
X170439Y76966D01*
D02*
G37*
G36*
X164139D02*
X164167Y76663D01*
X164192Y76527D01*
X164224Y76402D01*
X164263Y76286D01*
X164309Y76181D01*
X164361Y76086D01*
X164421Y76002D01*
X164488Y75928D01*
X162284D01*
X162350Y76002D01*
X162410Y76086D01*
X162463Y76181D01*
X162509Y76286D01*
X162548Y76402D01*
X162579Y76527D01*
X162604Y76663D01*
X162622Y76810D01*
X162632Y76966D01*
X162636Y77133D01*
X164136D01*
X164139Y76966D01*
D02*
G37*
G36*
X167289Y73029D02*
X167317Y72726D01*
X167342Y72590D01*
X167374Y72465D01*
X167412Y72349D01*
X167458Y72244D01*
X167511Y72149D01*
X167571Y72065D01*
X167638Y71991D01*
X165433D01*
X165500Y72065D01*
X165560Y72149D01*
X165613Y72244D01*
X165659Y72349D01*
X165697Y72465D01*
X165729Y72590D01*
X165754Y72726D01*
X165771Y72873D01*
X165782Y73029D01*
X165785Y73196D01*
X167285D01*
X167289Y73029D01*
D02*
G37*
G36*
X12217Y91997D02*
X11575Y91252D01*
X11315Y90895D01*
X11094Y90548D01*
X10914Y90212D01*
X10907Y90197D01*
X10914Y90182D01*
X11094Y89845D01*
X11315Y89499D01*
X11575Y89142D01*
X11876Y88774D01*
X12598Y88008D01*
X7087D01*
X7468Y88397D01*
X8110Y89142D01*
X8370Y89499D01*
X8591Y89845D01*
X8772Y90182D01*
X8778Y90197D01*
X8772Y90212D01*
X8591Y90548D01*
X8370Y90895D01*
X8110Y91252D01*
X7809Y91619D01*
X7087Y92385D01*
X12598D01*
X12217Y91997D01*
D02*
G37*
G36*
X87008Y84815D02*
X87079Y84614D01*
X87198Y84437D01*
X87364Y84284D01*
X87577Y84153D01*
X87839Y84047D01*
X88147Y83965D01*
X88503Y83906D01*
X88907Y83870D01*
X89358Y83858D01*
Y81496D01*
X88907Y81484D01*
X88503Y81449D01*
X88147Y81390D01*
X87839Y81307D01*
X87577Y81201D01*
X87364Y81071D01*
X87198Y80917D01*
X87079Y80740D01*
X87008Y80539D01*
X86984Y80315D01*
Y85039D01*
X87008Y84815D01*
D02*
G37*
G36*
X86774Y79713D02*
X86575Y79642D01*
X86400Y79524D01*
X86248Y79359D01*
X86119Y79146D01*
X86014Y78886D01*
X85932Y78579D01*
X85874Y78225D01*
X85839Y77823D01*
X85827Y77374D01*
X83465D01*
X83453Y77823D01*
X83418Y78225D01*
X83359Y78579D01*
X83277Y78886D01*
X83172Y79146D01*
X83044Y79359D01*
X82892Y79524D01*
X82716Y79642D01*
X82518Y79713D01*
X82296Y79736D01*
X86996D01*
X86774Y79713D01*
D02*
G37*
G36*
X85839Y56035D02*
X85874Y55634D01*
X85932Y55279D01*
X86014Y54972D01*
X86119Y54712D01*
X86248Y54500D01*
X86400Y54334D01*
X86575Y54216D01*
X86774Y54145D01*
X86996Y54122D01*
X82296D01*
X82518Y54145D01*
X82716Y54216D01*
X82892Y54334D01*
X83044Y54500D01*
X83172Y54712D01*
X83277Y54972D01*
X83359Y55279D01*
X83418Y55634D01*
X83453Y56035D01*
X83465Y56484D01*
X85827D01*
X85839Y56035D01*
D02*
G37*
D25*
X32480Y102362D02*
D03*
Y105118D02*
D03*
X24606Y102362D02*
D03*
Y105118D02*
D03*
D26*
X256890Y226378D02*
D03*
X239173D02*
D03*
X256890Y190945D02*
D03*
X239173D02*
D03*
D27*
X163386Y74803D02*
Y87598D01*
X174213Y98425D01*
X234252D01*
X9843Y85197D02*
Y95197D01*
X166535Y70866D02*
Y85827D01*
X173228Y92520D02*
X240158D01*
X166535Y85827D02*
X173228Y92520D01*
X169685Y84055D02*
X172244Y86614D01*
X169685Y74803D02*
Y84055D01*
X172244Y86614D02*
X246063D01*
X51181Y187008D02*
X120079D01*
X125984Y181102D01*
X35433Y96457D02*
X108268D01*
X24606Y99410D02*
Y102362D01*
X30512Y93504D02*
X103347D01*
X24606Y99410D02*
X30512Y93504D01*
X32480Y99410D02*
Y102128D01*
Y99410D02*
X35433Y96457D01*
X32480Y102128D02*
Y102362D01*
X32480Y102128D02*
X32480Y102128D01*
X106299Y104331D02*
X122047Y120079D01*
Y137802D01*
X52165Y104331D02*
X106299D01*
X125984Y125984D02*
Y181102D01*
X51181Y155512D02*
Y157480D01*
X57087Y163386D01*
X112205D01*
X51181Y127953D02*
X57280Y134052D01*
X51181Y124016D02*
Y127953D01*
X57280Y134052D02*
X116137D01*
X169685Y127953D02*
X179134D01*
X196850Y145669D02*
X228346D01*
X179134Y127953D02*
X196850Y145669D01*
X151575Y127953D02*
X169685D01*
X320866Y135827D02*
X340394Y155354D01*
X194882Y135827D02*
X320866D01*
X340394Y155354D02*
X348425D01*
X194882Y129921D02*
X322835D01*
X338268Y145354D02*
X348425D01*
X322835Y129921D02*
X338268Y145354D01*
X336142Y135354D02*
X348425D01*
X194882Y124016D02*
X324803D01*
X336142Y135354D01*
X334016Y125354D02*
X348425D01*
X194882Y118110D02*
X326772D01*
X334016Y125354D01*
X328740Y112205D02*
X331890Y115354D01*
X194882Y112205D02*
X328740D01*
X331890Y115354D02*
X348425D01*
X228346Y145669D02*
X256890Y174213D01*
X289370Y76772D02*
X317953Y105354D01*
X348425D01*
X187008Y76772D02*
X289370D01*
X125984Y125984D02*
X129921Y122047D01*
X137795D01*
X98425Y147638D02*
X114173D01*
X118110Y143701D01*
X133858Y110236D02*
X151575Y127953D01*
X133858Y78740D02*
Y110236D01*
X24606Y105118D02*
X32480D01*
X9843Y105197D02*
X24528D01*
X256890Y190945D02*
Y226378D01*
Y174213D02*
Y190945D01*
D28*
X84646Y82677D02*
X113189D01*
X9843Y175197D02*
X26575D01*
X43307Y191929D02*
X84646D01*
X26575Y175197D02*
X43307Y191929D01*
X84646Y51181D02*
Y82677D01*
D29*
X13780Y246063D02*
D03*
Y13780D02*
D03*
X344488D02*
D03*
D30*
X297638Y39370D02*
D03*
X267717D02*
D03*
D31*
X123701Y41496D02*
D03*
X133701D02*
D03*
X143701D02*
D03*
X133701Y31496D02*
D03*
X123701D02*
D03*
X143701D02*
D03*
D32*
X348425Y95354D02*
D03*
Y115354D02*
D03*
Y145354D02*
D03*
Y155354D02*
D03*
Y135354D02*
D03*
Y125354D02*
D03*
Y105354D02*
D03*
X9843Y115197D02*
D03*
Y135197D02*
D03*
Y145197D02*
D03*
Y165197D02*
D03*
Y155197D02*
D03*
Y125197D02*
D03*
Y105197D02*
D03*
Y85197D02*
D03*
Y95197D02*
D03*
D33*
X348425Y165354D02*
D03*
X9843Y175197D02*
D03*
D34*
X74646Y208661D02*
D03*
X133858D02*
D03*
X74646Y177165D02*
D03*
X133858Y177165D02*
D03*
X74646Y145669D02*
D03*
X133858Y145669D02*
D03*
X74646Y114173D02*
D03*
Y82677D02*
D03*
Y51181D02*
D03*
D35*
X84646Y208661D02*
D03*
X143858D02*
D03*
X84646Y177165D02*
D03*
X143858Y177165D02*
D03*
X84646Y145669D02*
D03*
X143858Y145669D02*
D03*
X84646Y114173D02*
D03*
Y82677D02*
D03*
Y51181D02*
D03*
D36*
X280512Y203740D02*
D03*
D37*
Y213740D02*
D03*
D38*
X7874Y236221D02*
D03*
Y230315D02*
D03*
Y224410D02*
D03*
X350394D02*
D03*
Y230315D02*
D03*
Y236221D02*
D03*
X27559Y110236D02*
D03*
X23622D02*
D03*
X19685D02*
D03*
X27559Y120079D02*
D03*
X23622D02*
D03*
X19685D02*
D03*
X27559Y129921D02*
D03*
X23622D02*
D03*
X19685D02*
D03*
X23622Y169291D02*
D03*
X19685D02*
D03*
X27559Y159449D02*
D03*
X23622D02*
D03*
X19685D02*
D03*
X27559Y149606D02*
D03*
X23622D02*
D03*
X19685D02*
D03*
X27559Y139764D02*
D03*
X23622D02*
D03*
X19685D02*
D03*
X263779Y100394D02*
D03*
X267717D02*
D03*
Y96457D02*
D03*
X263779D02*
D03*
X259842D02*
D03*
Y100394D02*
D03*
X267717Y104331D02*
D03*
X263779D02*
D03*
X259842D02*
D03*
X267717Y151575D02*
D03*
X263779D02*
D03*
X259842D02*
D03*
Y147638D02*
D03*
X263779D02*
D03*
X267717D02*
D03*
Y143701D02*
D03*
X263779D02*
D03*
X259842D02*
D03*
X112205Y33465D02*
D03*
Y37402D02*
D03*
Y41339D02*
D03*
Y45276D02*
D03*
X206693Y31496D02*
D03*
X202756D02*
D03*
X198819D02*
D03*
X194882D02*
D03*
X190945D02*
D03*
X187008D02*
D03*
X159449Y88583D02*
D03*
X147638Y76772D02*
D03*
Y80709D02*
D03*
Y84646D02*
D03*
X291339Y7874D02*
D03*
X297244D02*
D03*
X303150D02*
D03*
X309055D02*
D03*
X314961D02*
D03*
X320866D02*
D03*
X7874Y35433D02*
D03*
Y43307D02*
D03*
Y51181D02*
D03*
Y59055D02*
D03*
Y66929D02*
D03*
Y74803D02*
D03*
X62992Y7874D02*
D03*
X57087D02*
D03*
X51181D02*
D03*
X45276D02*
D03*
X39370D02*
D03*
X33465D02*
D03*
X53150Y251969D02*
D03*
X47244D02*
D03*
X41339D02*
D03*
X35433D02*
D03*
X29528D02*
D03*
X23622D02*
D03*
X305118D02*
D03*
X311024D02*
D03*
X316929D02*
D03*
X322835D02*
D03*
X328740D02*
D03*
X334646D02*
D03*
X350394Y35433D02*
D03*
Y41339D02*
D03*
Y47244D02*
D03*
Y53150D02*
D03*
Y59055D02*
D03*
Y64961D02*
D03*
X133858Y78740D02*
D03*
X113189Y82677D02*
D03*
X84646Y191929D02*
D03*
X108268Y96457D02*
D03*
X103347Y93504D02*
D03*
X52165Y104331D02*
D03*
X51181Y187008D02*
D03*
Y155512D02*
D03*
X112205Y163386D02*
D03*
X51181Y124016D02*
D03*
X240158Y92520D02*
D03*
X234252Y98425D02*
D03*
X246063Y86614D02*
D03*
X163386Y74803D02*
D03*
X169685D02*
D03*
X166535Y70866D02*
D03*
X194882Y135827D02*
D03*
Y129921D02*
D03*
Y124016D02*
D03*
Y118110D02*
D03*
Y112205D02*
D03*
X187008Y76772D02*
D03*
X118110Y143701D02*
D03*
X98425Y147638D02*
D03*
X122047Y137802D02*
D03*
X116137Y134052D02*
D03*
X137795Y122047D02*
D03*
X169685Y127953D02*
D03*
D39*
X116142Y125984D02*
D03*
X112205D02*
D03*
X139764D02*
D03*
X143701D02*
D03*
X175197Y139764D02*
D03*
X171260D02*
D03*
X167323D02*
D03*
X287402Y230315D02*
D03*
X291339D02*
D03*
X265748D02*
D03*
X269685D02*
D03*
X273622D02*
D03*
X114173D02*
D03*
X110236D02*
D03*
X106299D02*
D03*
X102362D02*
D03*
X98425D02*
D03*
X94488D02*
D03*
X55118D02*
D03*
X51181D02*
D03*
X47244D02*
D03*
X43307D02*
D03*
X39370D02*
D03*
X35433D02*
D03*
X64961Y100394D02*
D03*
X61024D02*
D03*
X57087D02*
D03*
X122047Y114173D02*
D03*
X120079Y112205D02*
D03*
X118110Y110236D02*
D03*
X106299D02*
D03*
X108268Y112205D02*
D03*
X110236Y114173D02*
D03*
X129921Y157480D02*
D03*
Y161417D02*
D03*
Y165354D02*
D03*
X90551Y129921D02*
D03*
X100394D02*
D03*
X104331D02*
D03*
X120079Y171260D02*
D03*
Y175197D02*
D03*
Y179134D02*
D03*
X98425Y167323D02*
D03*
X94488D02*
D03*
X90551D02*
D03*
X198819Y82677D02*
D03*
X194882D02*
D03*
X190945D02*
D03*
X206693Y108268D02*
D03*
X202756D02*
D03*
X198819D02*
D03*
X242126Y139764D02*
D03*
X238189D02*
D03*
X226378D02*
D03*
X222441D02*
D03*
X206693D02*
D03*
X202756D02*
D03*
X198819D02*
D03*
X177165Y102362D02*
D03*
Y106299D02*
D03*
X161417Y98425D02*
D03*
Y102362D02*
D03*
Y106299D02*
D03*
X114173Y102362D02*
D03*
X118110D02*
D03*
X122047D02*
D03*
M02*
