G04*
G04 #@! TF.GenerationSoftware,Altium Limited,Altium Designer,21.9.2 (33)*
G04*
G04 Layer_Color=8388736*
%FSLAX25Y25*%
%MOIN*%
G70*
G04*
G04 #@! TF.SameCoordinates,17C33EC5-3FD8-4D5E-BF76-7BF67F947422*
G04*
G04*
G04 #@! TF.FilePolarity,Positive*
G04*
G01*
G75*
%ADD12C,0.01968*%
%ADD59C,0.00394*%
D12*
X303937Y39370D02*
D03*
X225590Y38780D02*
D03*
X183858Y115354D02*
D03*
D59*
X306299Y39370D02*
X306278Y40373D01*
X306214Y41373D01*
X306108Y42371D01*
X305959Y43362D01*
X305769Y44347D01*
X305537Y45322D01*
X305264Y46287D01*
X304950Y47240D01*
X304596Y48178D01*
X304202Y49100D01*
X303770Y50005D01*
X303299Y50890D01*
X302792Y51755D01*
X302248Y52598D01*
X301669Y53417D01*
X301056Y54210D01*
X300410Y54977D01*
X299731Y55715D01*
X299022Y56424D01*
X298284Y57103D01*
X297517Y57749D01*
X296724Y58362D01*
X295905Y58941D01*
X295062Y59485D01*
X294198Y59992D01*
X293312Y60463D01*
X292407Y60895D01*
X291485Y61289D01*
X290547Y61643D01*
X289594Y61957D01*
X288629Y62230D01*
X287654Y62462D01*
X286669Y62652D01*
X285678Y62801D01*
X284681Y62907D01*
X283680Y62971D01*
X282677Y62992D01*
X281675Y62971D01*
X280674Y62907D01*
X279677Y62801D01*
X278685Y62652D01*
X277700Y62462D01*
X276725Y62230D01*
X275760Y61957D01*
X274808Y61643D01*
X273869Y61289D01*
X272947Y60895D01*
X272042Y60463D01*
X271157Y59992D01*
X270292Y59485D01*
X269449Y58941D01*
X268631Y58362D01*
X267837Y57749D01*
X267071Y57103D01*
X266332Y56424D01*
X265623Y55715D01*
X264945Y54976D01*
X264298Y54210D01*
X263685Y53417D01*
X263106Y52598D01*
X262562Y51755D01*
X262055Y50890D01*
X261584Y50005D01*
X261152Y49100D01*
X260758Y48178D01*
X260404Y47240D01*
X260090Y46287D01*
X259817Y45322D01*
X259585Y44347D01*
X259395Y43362D01*
X259246Y42371D01*
X259140Y41373D01*
X259076Y40373D01*
X259055Y39370D01*
X259076Y38368D01*
X259140Y37367D01*
X259246Y36370D01*
X259395Y35378D01*
X259585Y34393D01*
X259817Y33418D01*
X260091Y32453D01*
X260404Y31501D01*
X260759Y30562D01*
X261152Y29640D01*
X261584Y28735D01*
X262055Y27850D01*
X262562Y26985D01*
X263106Y26142D01*
X263685Y25324D01*
X264298Y24530D01*
X264945Y23764D01*
X265623Y23025D01*
X266332Y22316D01*
X267071Y21638D01*
X267837Y20991D01*
X268631Y20378D01*
X269449Y19799D01*
X270292Y19255D01*
X271157Y18748D01*
X272042Y18277D01*
X272947Y17845D01*
X273870Y17451D01*
X274808Y17097D01*
X275760Y16783D01*
X276725Y16510D01*
X277701Y16278D01*
X278685Y16088D01*
X279677Y15939D01*
X280674Y15833D01*
X281675Y15769D01*
X282677Y15748D01*
X283680Y15769D01*
X284681Y15833D01*
X285678Y15939D01*
X286669Y16088D01*
X287654Y16278D01*
X288630Y16510D01*
X289594Y16783D01*
X290547Y17097D01*
X291485Y17451D01*
X292407Y17845D01*
X293312Y18277D01*
X294198Y18748D01*
X295062Y19255D01*
X295905Y19799D01*
X296724Y20378D01*
X297517Y20991D01*
X298284Y21638D01*
X299022Y22316D01*
X299731Y23025D01*
X300410Y23764D01*
X301056Y24530D01*
X301669Y25324D01*
X302248Y26142D01*
X302792Y26985D01*
X303300Y27850D01*
X303770Y28735D01*
X304202Y29640D01*
X304596Y30562D01*
X304950Y31501D01*
X305264Y32453D01*
X305537Y33418D01*
X305769Y34394D01*
X305960Y35378D01*
X306108Y36370D01*
X306214Y37367D01*
X306278Y38368D01*
X306299Y39370D01*
X74019Y100787D02*
X81890D01*
X74019Y96063D02*
X81890D01*
Y100787D01*
X74019Y96063D02*
Y100787D01*
X113389Y67520D02*
Y72244D01*
X121260Y67520D02*
Y72244D01*
X113389Y67520D02*
X121260D01*
X113389Y72244D02*
X121260D01*
X129137Y67520D02*
Y72244D01*
X137008Y67520D02*
Y72244D01*
X129137Y67520D02*
X137008D01*
X129137Y72244D02*
X137008D01*
X76972Y164764D02*
X84842D01*
X76972Y160039D02*
X84842D01*
Y164764D01*
X76972Y160039D02*
Y164764D01*
X155118Y23822D02*
X159843D01*
X155118Y31693D02*
X159843D01*
Y23822D02*
Y31693D01*
X155118Y23822D02*
Y31693D01*
X51381Y48819D02*
Y53543D01*
X59252Y48819D02*
Y53543D01*
X51381Y48819D02*
X59252D01*
X51381Y53543D02*
X59252D01*
X51381Y111811D02*
Y116535D01*
X59252Y111811D02*
Y116535D01*
X51381Y111811D02*
X59252D01*
X51381Y116535D02*
X59252D01*
X51381Y143307D02*
Y148031D01*
X59252Y143307D02*
Y148031D01*
X51381Y143307D02*
X59252D01*
X51381Y148031D02*
X59252D01*
X51381Y174803D02*
Y179528D01*
X59252Y174803D02*
Y179528D01*
X51381Y174803D02*
X59252D01*
X51381Y179528D02*
X59252D01*
X51381Y206299D02*
Y211024D01*
X59252Y206299D02*
Y211024D01*
X51381Y206299D02*
X59252D01*
X51381Y211024D02*
X59252D01*
X51381Y80315D02*
Y85039D01*
X59252Y80315D02*
Y85039D01*
X51381Y80315D02*
X59252D01*
X51381Y85039D02*
X59252D01*
X334842Y186871D02*
X349409D01*
X334842Y175335D02*
X349409D01*
X334842D02*
Y186871D01*
X344882Y175335D02*
Y186871D01*
X349409Y175335D02*
Y186871D01*
X8859Y189507D02*
X23426D01*
X8859Y201043D02*
X23426D01*
Y189507D02*
Y201043D01*
X13386Y189507D02*
Y201043D01*
X8859Y189507D02*
Y201043D01*
X278150Y225594D02*
Y233465D01*
X282874Y225594D02*
Y233465D01*
X278150D02*
X282874D01*
X278150Y225594D02*
X282874D01*
X155315Y206299D02*
X163186D01*
X155315Y211024D02*
X163186D01*
X155315Y206299D02*
Y211024D01*
X163186Y206299D02*
Y211024D01*
X155315Y174803D02*
X163186D01*
X155315Y179527D02*
X163186D01*
X155315Y174803D02*
Y179527D01*
X163186Y174803D02*
Y179527D01*
X155315Y143307D02*
X163186D01*
X155315Y148031D02*
X163186D01*
X155315Y143307D02*
Y148031D01*
X163186Y143307D02*
Y148031D01*
X239961Y52756D02*
X247831D01*
X239961Y57480D02*
X247831D01*
X239961Y52756D02*
Y57480D01*
X247831Y52756D02*
Y57480D01*
X223937Y37126D02*
X234331D01*
Y49095D01*
X223937D02*
X234331D01*
X223937Y37126D02*
Y49095D01*
X192717Y37008D02*
X200587D01*
X192717Y41732D02*
X200587D01*
X192717Y37008D02*
Y41732D01*
X200587Y37008D02*
Y41732D01*
X137402Y83862D02*
Y91732D01*
X142126Y83862D02*
Y91732D01*
X137402D02*
X142126D01*
X137402Y83862D02*
X142126D01*
X129331Y92323D02*
Y100194D01*
X124606Y92323D02*
Y100194D01*
Y92323D02*
X129331D01*
X124606Y100194D02*
X129331D01*
X244980Y29528D02*
X251083D01*
X244980Y39080D02*
X251083D01*
X244980Y25886D02*
Y39080D01*
Y25886D02*
X251083D01*
Y39080D01*
X196457Y103737D02*
X201181D01*
X196457Y95866D02*
X201181D01*
X196457D02*
Y103737D01*
X201181Y95866D02*
Y103737D01*
X212799Y105905D02*
Y110630D01*
X220669Y105905D02*
Y110630D01*
X212799Y105905D02*
X220669D01*
X212799Y110630D02*
X220669D01*
X212799Y68504D02*
Y73228D01*
X220669Y68504D02*
Y73228D01*
X212799Y68504D02*
X220669D01*
X212799Y73228D02*
X220669D01*
X206298Y99416D02*
X218798D01*
Y79816D02*
Y99416D01*
X206298Y79816D02*
X218798D01*
X206298D02*
Y99416D01*
X150112Y117605D02*
X186109D01*
X150112Y81607D02*
Y117605D01*
Y81607D02*
X186109D01*
Y117605D01*
M02*
