G04*
G04 #@! TF.GenerationSoftware,Altium Limited,Altium Designer,21.9.2 (33)*
G04*
G04 Layer_Color=8388736*
%FSLAX25Y25*%
%MOIN*%
G70*
G04*
G04 #@! TF.SameCoordinates,17C33EC5-3FD8-4D5E-BF76-7BF67F947422*
G04*
G04*
G04 #@! TF.FilePolarity,Negative*
G04*
G01*
G75*
%ADD14R,0.04737X0.02769*%
%ADD15R,0.06312X0.09068*%
G04:AMPARAMS|DCode=16|XSize=98.43mil|YSize=98.43mil|CornerRadius=49.21mil|HoleSize=0mil|Usage=FLASHONLY|Rotation=0.000|XOffset=0mil|YOffset=0mil|HoleType=Round|Shape=RoundedRectangle|*
%AMROUNDEDRECTD16*
21,1,0.09843,0.00000,0,0,0.0*
21,1,0.00000,0.09843,0,0,0.0*
1,1,0.09843,0.00000,0.00000*
1,1,0.09843,0.00000,0.00000*
1,1,0.09843,0.00000,0.00000*
1,1,0.09843,0.00000,0.00000*
%
%ADD16ROUNDEDRECTD16*%
%ADD17C,0.07099*%
%ADD18C,0.07887*%
%ADD19C,0.08674*%
%ADD20R,0.08674X0.08674*%
%ADD21O,0.05524X0.06706*%
%ADD22R,0.05524X0.06706*%
%ADD23O,0.06706X0.05524*%
%ADD24R,0.06706X0.05524*%
D14*
X32480Y102362D02*
D03*
Y105118D02*
D03*
X24606Y102362D02*
D03*
Y105118D02*
D03*
D15*
X256890Y226378D02*
D03*
X239173D02*
D03*
X256890Y190945D02*
D03*
X239173D02*
D03*
D16*
X13780Y246063D02*
D03*
Y13780D02*
D03*
X344488D02*
D03*
D17*
X297638Y39370D02*
D03*
X267717D02*
D03*
D18*
X123701Y41496D02*
D03*
X133701D02*
D03*
X143701D02*
D03*
X133701Y31496D02*
D03*
X123701D02*
D03*
X143701D02*
D03*
D19*
X348425Y95354D02*
D03*
Y115354D02*
D03*
Y145354D02*
D03*
Y155354D02*
D03*
Y135354D02*
D03*
Y125354D02*
D03*
Y105354D02*
D03*
X9843Y115197D02*
D03*
Y135197D02*
D03*
Y145197D02*
D03*
Y165197D02*
D03*
Y155197D02*
D03*
Y125197D02*
D03*
Y105197D02*
D03*
Y85197D02*
D03*
Y95197D02*
D03*
D20*
X348425Y165354D02*
D03*
X9843Y175197D02*
D03*
D21*
X74646Y208661D02*
D03*
X133858D02*
D03*
X74646Y177165D02*
D03*
X133858Y177165D02*
D03*
X74646Y145669D02*
D03*
X133858Y145669D02*
D03*
X74646Y114173D02*
D03*
Y82677D02*
D03*
Y51181D02*
D03*
D22*
X84646Y208661D02*
D03*
X143858D02*
D03*
X84646Y177165D02*
D03*
X143858Y177165D02*
D03*
X84646Y145669D02*
D03*
X143858Y145669D02*
D03*
X84646Y114173D02*
D03*
Y82677D02*
D03*
Y51181D02*
D03*
D23*
X280512Y203740D02*
D03*
D24*
Y213740D02*
D03*
M02*
