M48
;Layer_Color=9474304
;FILE_FORMAT=2:4
INCH,TZ
;TYPE=PLATED
T1F00S00C0.0118
T2F00S00C0.0157
T3F00S00C0.0236
T4F00S00C0.0354
T5F00S00C0.0433
T6F00S00C0.0551
%
T01
X29921Y3740
X30315
X30709
Y4134
X30315
X29921
X31890
Y3740
X32283
X32677
X32480Y9252
X32874
Y9646
Y10039
X33268
Y9646
Y9252
X33661Y9547
X32087Y9252
X31693
Y9646
X31299
Y9252
X30906
Y9646
Y10039
X31299
X31693
X30512
Y9646
Y9252
X30179Y9547
X29626Y9547
X29331
X29035
Y9154
X29331
X29626
Y9941
X29331
X29035
X29419Y11309
X29160Y11570
X29931Y11564
X29700Y11900
X31693Y13189
X35433Y12598
Y12205
Y11811
Y11417
Y11024
Y10630
Y10236
Y9843
Y9449
Y9055
X28740Y9154
X28445
Y9547
X28740
Y9941
X28445
X27953Y9646
X27480Y9528
X27165Y9547
X26772Y9646
Y9252
X26378
Y9646
Y10039
X26772
X25984Y9252
X25591
X25197
X24803
Y9646
X25197
Y10039
X24803
X24409
Y9646
Y9252
X24016
Y9646
Y10039
X23687Y9544
X23130Y9547
X22835
X22539
X22244
X21949
Y9154
X22244
X22539
X22835
X23130
Y9941
X22835
X22539
X22244
X21949
X21457Y9646
Y9252
X20906Y9370
X20600Y9600
X20079Y9646
Y9252
X19685
X19291
X18898
X18504
Y9646
Y10039
X18110
Y9646
Y9252
X17717
Y9646
Y10039
X17202Y9545
X16644Y9528
X16348
X16053
X15758
X15463
Y9134
X15758
X16053
X16348
X16644
Y9921
X16348
X16053
X15758
X15463
X14961Y10039
X14567
X14173
X13780Y9646
Y9252
X14173
X14567Y9646
X14961
Y9252
X14901Y11212
X15415Y11310
X15929Y11317
X16437Y11319
X16177Y11612
X16732Y11909
X16956Y11516
X18701Y13189
X19685Y12992
Y12598
X20079Y10039
X20571Y7874
X20866
X21161
X19882Y6890
X19685Y4921
Y4134
X19291
Y3740
X19685
X18898
Y4134
X17717
X17323
Y3740
X17717
X16929
Y4134
X15157
X14764
X14370
Y3740
X14764
X15157
X20866
X21260
X21654
Y4134
X21260
X20866
X23425
Y3740
X23819
X24213
Y4134
X23819
X25394
Y3740
X25787
X26181
Y4134
X25787
X26181Y4921
X27362Y4134
Y3740
X27756
X28150
Y4134
X27756
X27657Y7972
X27362
X27067
X26378Y6890
X26181Y12402
Y12795
Y13189
X25197
X23130Y11909
X23425Y11516
X22903Y11327
X22410Y11323
X21903Y11310
X22676Y11608
X28396Y11299
X28907
X13386Y11417
Y11811
Y11024
Y10630
X11811Y8268
X9843
X6496Y10782
Y11176
Y11569
X6045
Y11176
Y10782
X4528Y9843
Y9449
X4134
Y9843
X3740
X3346
Y9449
X3740
X984
Y9055
Y8661
Y8268
Y7874
Y9843
Y10236
Y10630
Y11024
Y11417
X6496Y3740
X7087
X7677
Y3150
X7087
X6496
Y2559
X7087
X7677
X12402Y3740
X12795
X13189
Y4134
X12795
X12402
X11417Y14567
X10630Y14173
X8071
Y13780
X7677
Y14173
Y13386
X8071
X5118
Y13780
X4724
X4331
Y13386
X4724
X3937
Y13780
X4331Y15551
X4724
X5118
X5512
X4331Y17323
Y17717
X3937
Y17323
Y18110
X4331
Y18504
X3937
X984Y23031
Y23425
Y23819
Y24213
Y24606
Y25000
Y25394
Y25787
Y26181
Y26575
X9055Y22638
X9449
Y22244
Y21850
X9843
Y22244
X10236
Y21850
X10630
Y22244
Y22638
X10236
X9843
X9055Y22244
Y21850
X11811Y17520
Y17126
Y16732
Y16339
X14882Y14044
X16142Y13780
X18701Y13976
X19685Y13386
X21378Y13937
X22638Y13780
X25197Y13976
X27480
X28642Y16043
X28189Y17323
X28740Y17717
Y20276
X28189Y19882
X25945Y20669
X25394Y20276
X24843Y19882
Y17323
X25394Y17717
X25945Y18110
X22598
X22047Y17717
X21496Y17323
X21211Y18110
X20669Y17717
X20276
X19882
X22677Y16929
X22598Y20669
X22047Y20276
X21496Y19882
X21457Y22638
X21850
X22244
X22638
X23031
X21063
X20669
X17913
X17520
X17126
X16732
X16339
X15945
X15551
Y21260
X15945
X16339
X16732
X17126
X17520
X17913
X29291Y20669
X30315Y21063
X30709
X31102
X31496
Y22441
X31102
X30709
X30315
Y19291
X30709
X31102
X31496
Y18504
X31102
X30709
X30315
X29291Y18110
X29646Y16024
X29134Y13780
X31693Y13976
X34252Y15157
X34646
Y16339
X34252
X33858
X33465
Y17323
X33071
X33858
X34252
X35433Y22047
Y22441
Y22835
Y23228
Y23622
Y24016
Y24409
Y24803
Y25197
Y25591
X29724Y30709
X29331
Y31102
X29724
Y31496
X29331
X28937
Y31102
Y30709
X24803
X24409
Y31102
Y31496
X24016
Y31102
Y30709
X24803Y31102
Y31496
X19882
X19488
Y31102
X19094
Y31496
Y30709
X19488
X19882
Y31102
X14961
X14567
Y31496
X14173
Y31102
Y30709
X14567
X14961
Y31496
X10039
X9646
X9252
Y31102
X9646
Y30709
X9252
X10039
Y31102
X5118
Y30709
X4724
X4331
Y31102
Y31496
X4724
X5118
X4724Y31102
T02
X15157Y11614
X21654
X28150
T03
X29855Y7480
X32283Y6890
X28216Y7480
X25787Y6890
X23392Y7447
X21687Y7447
X19291Y6890
X16831Y7480
X15256
X4626Y8169
X12795Y14961
X12205Y23819
X7283
X8300Y21100
X10039Y27264
X5118
X14961
X19882
X24803
X26969Y23819
X22047
X17126
X16929Y13878
X19390Y14961
X23425Y13878
X25886Y14961
X29921Y13878
X32480Y14961
X31693Y23819
Y25827
X29724Y27264
T04
X15157Y15551
X16157
X17157
X21654
X22654
X23654
X28134
X29134
X30134
T05
X984Y12654
X9827Y5807
X10827
X11827
X984Y13654
Y14654
Y15654
Y16654
Y17654
Y18654
Y19654
Y20654
Y21654
X35433Y20669
Y19669
Y18669
Y17669
Y16669
Y15669
Y14669
Y13669
T06
X29724Y1181
X31102
X28346
X26969
X24606
X23228
X21850
X20472
X18110
X16732
X15354
X13976
X11614
X10236
X8858
X6496
X5118
X29724Y32874
X31102
X27559
X26181
X24803
X22638
X21260
X19882
X17717
X16339
X14961
X12795
X11417
X10039
X7874
X6496
X5118
M30
