G04*
G04 #@! TF.GenerationSoftware,Altium Limited,Altium Designer,21.9.2 (33)*
G04*
G04 Layer_Color=8388736*
%FSLAX25Y25*%
%MOIN*%
G70*
G04*
G04 #@! TF.SameCoordinates,034F36C6-47A8-4C4D-BE73-3EC9485E6904*
G04*
G04*
G04 #@! TF.FilePolarity,Negative*
G04*
G01*
G75*
%ADD16R,0.06706X0.06706*%
%ADD17R,0.04383X0.05603*%
%ADD18R,0.07493X0.10642*%
%ADD19R,0.03950X0.05524*%
%ADD20R,0.05721X0.04737*%
%ADD21R,0.11430X0.06312*%
%ADD22R,0.04737X0.05721*%
%ADD23R,0.22453X0.10642*%
%ADD24R,0.02769X0.04737*%
%ADD25R,0.04737X0.02769*%
%ADD26R,0.07808X0.14580*%
%ADD27O,0.01981X0.06312*%
G04:AMPARAMS|DCode=28|XSize=63.12mil|YSize=19.81mil|CornerRadius=9.91mil|HoleSize=0mil|Usage=FLASHONLY|Rotation=270.000|XOffset=0mil|YOffset=0mil|HoleType=Round|Shape=RoundedRectangle|*
%AMROUNDEDRECTD28*
21,1,0.06312,0.00000,0,0,270.0*
21,1,0.04331,0.01981,0,0,270.0*
1,1,0.01981,0.00000,-0.02165*
1,1,0.01981,0.00000,0.02165*
1,1,0.01981,0.00000,0.02165*
1,1,0.01981,0.00000,-0.02165*
%
%ADD28ROUNDEDRECTD28*%
%ADD29R,0.13792X0.10249*%
%ADD30R,0.04737X0.10249*%
%ADD31O,0.06706X0.02769*%
%ADD32R,0.06706X0.02769*%
%ADD33R,0.06890X0.12402*%
%ADD34R,0.17729X0.08674*%
%ADD35R,0.05524X0.14580*%
%ADD36R,0.08674X0.17729*%
G04:AMPARAMS|DCode=37|XSize=98.43mil|YSize=98.43mil|CornerRadius=49.21mil|HoleSize=0mil|Usage=FLASHONLY|Rotation=0.000|XOffset=0mil|YOffset=0mil|HoleType=Round|Shape=RoundedRectangle|*
%AMROUNDEDRECTD37*
21,1,0.09843,0.00000,0,0,0.0*
21,1,0.00000,0.09843,0,0,0.0*
1,1,0.09843,0.00000,0.00000*
1,1,0.09843,0.00000,0.00000*
1,1,0.09843,0.00000,0.00000*
1,1,0.09843,0.00000,0.00000*
%
%ADD37ROUNDEDRECTD37*%
%ADD38C,0.08674*%
%ADD39R,0.08674X0.08674*%
%ADD40C,0.09068*%
%ADD41C,0.07887*%
%ADD42R,0.08674X0.08674*%
%ADD43R,0.17808X0.12611*%
%ADD44R,0.10249X0.13005*%
G04:AMPARAMS|DCode=45|XSize=165.48mil|YSize=263.91mil|CornerRadius=82.74mil|HoleSize=0mil|Usage=FLASHONLY|Rotation=180.000|XOffset=0mil|YOffset=0mil|HoleType=Round|Shape=RoundedRectangle|*
%AMROUNDEDRECTD45*
21,1,0.16548,0.09843,0,0,180.0*
21,1,0.00000,0.26391,0,0,180.0*
1,1,0.16548,0.00000,0.04921*
1,1,0.16548,0.00000,0.04921*
1,1,0.16548,0.00000,-0.04921*
1,1,0.16548,0.00000,-0.04921*
%
%ADD45ROUNDEDRECTD45*%
%ADD46C,0.03162*%
D16*
X114173Y126969D02*
D03*
X127953D02*
D03*
X114173Y137795D02*
D03*
X127953D02*
D03*
D17*
X73917Y93504D02*
D03*
X61024D02*
D03*
X72264Y169354D02*
D03*
X59370D02*
D03*
X98000Y177000D02*
D03*
X110894D02*
D03*
D18*
X71850Y80709D02*
D03*
X56102D02*
D03*
D19*
X53150Y262795D02*
D03*
X43307D02*
D03*
X43150Y237992D02*
D03*
X53150D02*
D03*
X102362Y262795D02*
D03*
X92520D02*
D03*
X92362Y237992D02*
D03*
X102362D02*
D03*
X151575Y262795D02*
D03*
X141732D02*
D03*
X141575Y237992D02*
D03*
X151575D02*
D03*
X200787Y262795D02*
D03*
X190945D02*
D03*
X190787Y237992D02*
D03*
X200787D02*
D03*
X250000Y262795D02*
D03*
X240158D02*
D03*
X240000Y237992D02*
D03*
X250000D02*
D03*
X299213Y262795D02*
D03*
X289370D02*
D03*
X289213Y237992D02*
D03*
X299213D02*
D03*
D20*
X62992Y238189D02*
D03*
Y246063D02*
D03*
X112205Y238189D02*
D03*
Y246063D02*
D03*
X161417Y238189D02*
D03*
Y246063D02*
D03*
X210630Y238189D02*
D03*
Y246063D02*
D03*
X259842Y238189D02*
D03*
Y246063D02*
D03*
X307087Y238189D02*
D03*
Y246063D02*
D03*
X113189Y109252D02*
D03*
Y117126D02*
D03*
Y91535D02*
D03*
Y99410D02*
D03*
X130905Y91535D02*
D03*
Y99410D02*
D03*
X43307Y280512D02*
D03*
Y272638D02*
D03*
X82677Y280512D02*
D03*
Y272638D02*
D03*
X92520Y280512D02*
D03*
Y272638D02*
D03*
X131890Y280512D02*
D03*
Y272638D02*
D03*
X141732Y280512D02*
D03*
Y272638D02*
D03*
X181102Y280512D02*
D03*
Y272638D02*
D03*
X190945Y280512D02*
D03*
Y272638D02*
D03*
X230315Y280512D02*
D03*
Y272638D02*
D03*
X240158Y280512D02*
D03*
Y272638D02*
D03*
X279528Y280512D02*
D03*
Y272638D02*
D03*
X289370Y280512D02*
D03*
Y272638D02*
D03*
X312992Y280512D02*
D03*
Y272638D02*
D03*
X265748Y157480D02*
D03*
Y149606D02*
D03*
X200787Y157480D02*
D03*
Y149606D02*
D03*
X135827Y157480D02*
D03*
Y149606D02*
D03*
X59055Y272638D02*
D03*
Y280512D02*
D03*
X108268Y272638D02*
D03*
Y280512D02*
D03*
X157480Y272638D02*
D03*
Y280512D02*
D03*
X277559Y230315D02*
D03*
Y222441D02*
D03*
X255906Y272638D02*
D03*
Y280512D02*
D03*
X122047Y91535D02*
D03*
Y99410D02*
D03*
X318898Y55118D02*
D03*
Y62992D02*
D03*
X326772Y55118D02*
D03*
Y62992D02*
D03*
X316929Y149606D02*
D03*
Y157480D02*
D03*
X253937Y55118D02*
D03*
Y62992D02*
D03*
X188976Y55118D02*
D03*
Y62992D02*
D03*
X261811Y55118D02*
D03*
Y62992D02*
D03*
X196850Y55118D02*
D03*
Y62992D02*
D03*
X251969Y149606D02*
D03*
Y157480D02*
D03*
X43307Y218504D02*
D03*
Y226378D02*
D03*
X206693Y272638D02*
D03*
Y280512D02*
D03*
X129921Y230315D02*
D03*
Y222441D02*
D03*
X187008Y157480D02*
D03*
Y149606D02*
D03*
X277559Y238189D02*
D03*
Y246063D02*
D03*
X129921Y238189D02*
D03*
Y246063D02*
D03*
X85000Y179063D02*
D03*
Y186937D02*
D03*
D21*
X303150Y66929D02*
D03*
Y48819D02*
D03*
X277559Y66929D02*
D03*
Y48819D02*
D03*
X238189Y66929D02*
D03*
Y48819D02*
D03*
X212598Y66929D02*
D03*
Y48819D02*
D03*
X173228Y66929D02*
D03*
Y48819D02*
D03*
X147638Y66929D02*
D03*
Y48819D02*
D03*
D22*
X275590Y124016D02*
D03*
X283465D02*
D03*
X299213D02*
D03*
X291339D02*
D03*
X299213Y131890D02*
D03*
X291339D02*
D03*
X210630Y124016D02*
D03*
X218504D02*
D03*
X145669D02*
D03*
X153543D02*
D03*
X234252D02*
D03*
X226378D02*
D03*
X234252Y131890D02*
D03*
X226378D02*
D03*
X169291Y124016D02*
D03*
X161417D02*
D03*
X169291Y131890D02*
D03*
X161417D02*
D03*
X41339Y113189D02*
D03*
X33465D02*
D03*
Y123031D02*
D03*
X41339D02*
D03*
X58071Y146653D02*
D03*
X65945D02*
D03*
X275590Y131890D02*
D03*
X283465D02*
D03*
X307087Y124016D02*
D03*
X314961D02*
D03*
X210630Y131890D02*
D03*
X218504D02*
D03*
X242126Y124016D02*
D03*
X250000D02*
D03*
X145669Y131890D02*
D03*
X153543D02*
D03*
X177165Y124016D02*
D03*
X185039D02*
D03*
X58071Y137795D02*
D03*
X65945D02*
D03*
Y128937D02*
D03*
X58071D02*
D03*
X17717Y104331D02*
D03*
X25591D02*
D03*
D23*
X94488Y120705D02*
D03*
Y103705D02*
D03*
D24*
X308858Y139764D02*
D03*
X306102D02*
D03*
X308858Y131890D02*
D03*
X306102D02*
D03*
X243898Y139764D02*
D03*
X241142D02*
D03*
X243898Y131890D02*
D03*
X241142D02*
D03*
X178937Y139764D02*
D03*
X176181D02*
D03*
X178937Y131890D02*
D03*
X176181D02*
D03*
D25*
X225984Y188386D02*
D03*
Y185630D02*
D03*
X220472Y188386D02*
D03*
Y185630D02*
D03*
X214961Y188386D02*
D03*
Y185630D02*
D03*
X259449Y188386D02*
D03*
Y185630D02*
D03*
X253937Y188386D02*
D03*
Y185630D02*
D03*
X248425Y188386D02*
D03*
Y185630D02*
D03*
X292913Y188386D02*
D03*
Y185630D02*
D03*
X287402Y188386D02*
D03*
Y185630D02*
D03*
X281890Y188386D02*
D03*
Y185630D02*
D03*
X225984Y213976D02*
D03*
Y211221D02*
D03*
X220472Y213976D02*
D03*
Y211221D02*
D03*
X214961Y213976D02*
D03*
Y211221D02*
D03*
X259449Y213976D02*
D03*
Y211221D02*
D03*
X253937Y213976D02*
D03*
Y211221D02*
D03*
X248425Y213976D02*
D03*
Y211221D02*
D03*
X292913Y213976D02*
D03*
Y211221D02*
D03*
X287402Y213976D02*
D03*
Y211221D02*
D03*
X281890Y213976D02*
D03*
Y211221D02*
D03*
D26*
X71850Y62008D02*
D03*
X51378D02*
D03*
D27*
X276279Y84055D02*
D03*
X278839D02*
D03*
X281398D02*
D03*
X283957D02*
D03*
X286516D02*
D03*
X289075D02*
D03*
X291634D02*
D03*
X294193D02*
D03*
X296752D02*
D03*
X299311D02*
D03*
X301870D02*
D03*
X304429D02*
D03*
X276279Y106890D02*
D03*
X278839D02*
D03*
X281398D02*
D03*
X283957D02*
D03*
X286516D02*
D03*
X289075D02*
D03*
X291634D02*
D03*
X294193D02*
D03*
X296752D02*
D03*
X299311D02*
D03*
X301870D02*
D03*
X211319Y84055D02*
D03*
X213878D02*
D03*
X216437D02*
D03*
X218996D02*
D03*
X221555D02*
D03*
X224114D02*
D03*
X226673D02*
D03*
X229232D02*
D03*
X231791D02*
D03*
X234350D02*
D03*
X236910D02*
D03*
X239469D02*
D03*
X211319Y106890D02*
D03*
X213878D02*
D03*
X216437D02*
D03*
X218996D02*
D03*
X221555D02*
D03*
X224114D02*
D03*
X226673D02*
D03*
X229232D02*
D03*
X231791D02*
D03*
X234350D02*
D03*
X236910D02*
D03*
X146457Y83858D02*
D03*
X149016D02*
D03*
X151575D02*
D03*
X154134D02*
D03*
X156693D02*
D03*
X159252D02*
D03*
X161811D02*
D03*
X164370D02*
D03*
X166929D02*
D03*
X169488D02*
D03*
X172047D02*
D03*
X174606D02*
D03*
X146457Y106693D02*
D03*
X149016D02*
D03*
X151575D02*
D03*
X154134D02*
D03*
X156693D02*
D03*
X159252D02*
D03*
X161811D02*
D03*
X164370D02*
D03*
X166929D02*
D03*
X169488D02*
D03*
X172047D02*
D03*
D28*
X304429Y106890D02*
D03*
X239469Y106890D02*
D03*
X174606Y106693D02*
D03*
D29*
X63000Y216417D02*
D03*
D30*
X72055Y193583D02*
D03*
X63000D02*
D03*
X53945D02*
D03*
D31*
X51591Y119256D02*
D03*
Y114256D02*
D03*
Y109256D02*
D03*
Y104256D02*
D03*
X73244Y119256D02*
D03*
Y114256D02*
D03*
Y109256D02*
D03*
D32*
Y104256D02*
D03*
D33*
X322835Y101181D02*
D03*
Y80709D02*
D03*
X257874Y101181D02*
D03*
Y80709D02*
D03*
X192913Y101181D02*
D03*
Y80709D02*
D03*
D34*
X94488Y134843D02*
D03*
Y161614D02*
D03*
X21654Y246063D02*
D03*
Y272835D02*
D03*
D35*
X25591Y53543D02*
D03*
Y84252D02*
D03*
D36*
X98000Y196000D02*
D03*
X124772D02*
D03*
D37*
X324803Y45276D02*
D03*
X39370D02*
D03*
Y295276D02*
D03*
D38*
X9843Y156535D02*
D03*
Y176535D02*
D03*
Y186535D02*
D03*
Y206535D02*
D03*
Y196535D02*
D03*
Y166535D02*
D03*
Y146535D02*
D03*
Y126535D02*
D03*
Y136535D02*
D03*
X354331Y136693D02*
D03*
Y156693D02*
D03*
Y186693D02*
D03*
Y196693D02*
D03*
Y176693D02*
D03*
Y166693D02*
D03*
Y146693D02*
D03*
X108268Y58071D02*
D03*
X118268D02*
D03*
D39*
X9843Y216535D02*
D03*
X354331Y206693D02*
D03*
D40*
X88583Y11811D02*
D03*
X102362D02*
D03*
X116142D02*
D03*
X78740Y328740D02*
D03*
X64961D02*
D03*
X51181D02*
D03*
X127953D02*
D03*
X114173D02*
D03*
X100394D02*
D03*
X177165D02*
D03*
X163386D02*
D03*
X149606D02*
D03*
X226378D02*
D03*
X212598D02*
D03*
X198819D02*
D03*
X275590D02*
D03*
X261811D02*
D03*
X248031D02*
D03*
X311024D02*
D03*
X297244D02*
D03*
X269685Y11811D02*
D03*
X311024D02*
D03*
X283465D02*
D03*
X297244D02*
D03*
X204724D02*
D03*
X246063D02*
D03*
X218504D02*
D03*
X232283D02*
D03*
X139764D02*
D03*
X181102D02*
D03*
X153543D02*
D03*
X167323D02*
D03*
X51181D02*
D03*
X64961D02*
D03*
D41*
X301339Y155512D02*
D03*
X291339D02*
D03*
X281339D02*
D03*
X236535D02*
D03*
X226535D02*
D03*
X216535D02*
D03*
X171575D02*
D03*
X161575D02*
D03*
X151575D02*
D03*
D42*
X98268Y58071D02*
D03*
D43*
X290354Y95473D02*
D03*
X225394Y95472D02*
D03*
X160531Y95276D02*
D03*
D44*
X62417Y111756D02*
D03*
D45*
X348425Y20669D02*
D03*
X15748D02*
D03*
X348425Y319882D02*
D03*
X15748D02*
D03*
D46*
X284449Y91536D02*
D03*
Y95473D02*
D03*
Y99410D02*
D03*
X287402Y91536D02*
D03*
Y95473D02*
D03*
Y99410D02*
D03*
X290354Y91536D02*
D03*
Y95473D02*
D03*
Y99410D02*
D03*
X293307Y91536D02*
D03*
Y95473D02*
D03*
Y99410D02*
D03*
X296260Y91536D02*
D03*
Y95473D02*
D03*
Y99410D02*
D03*
X219488Y91535D02*
D03*
Y95472D02*
D03*
Y99409D02*
D03*
X222441Y91535D02*
D03*
Y95472D02*
D03*
Y99409D02*
D03*
X225394Y91535D02*
D03*
Y95472D02*
D03*
Y99409D02*
D03*
X228346Y91535D02*
D03*
Y95472D02*
D03*
Y99409D02*
D03*
X231299Y91535D02*
D03*
Y95472D02*
D03*
Y99409D02*
D03*
X154626Y91339D02*
D03*
Y95276D02*
D03*
Y99213D02*
D03*
X157579Y91339D02*
D03*
Y95276D02*
D03*
Y99213D02*
D03*
X160531Y91339D02*
D03*
Y95276D02*
D03*
Y99213D02*
D03*
X163484Y91339D02*
D03*
Y95276D02*
D03*
Y99213D02*
D03*
X166437Y91339D02*
D03*
Y95276D02*
D03*
Y99213D02*
D03*
M02*
