G04*
G04 #@! TF.GenerationSoftware,Altium Limited,Altium Designer,21.9.2 (33)*
G04*
G04 Layer_Color=32896*
%FSLAX25Y25*%
%MOIN*%
G70*
G04*
G04 #@! TF.SameCoordinates,034F36C6-47A8-4C4D-BE73-3EC9485E6904*
G04*
G04*
G04 #@! TF.FilePolarity,Positive*
G04*
G01*
G75*
%ADD10C,0.01000*%
D10*
X337598Y15748D02*
G03*
X359252Y15748I10827J0D01*
G01*
Y25591D02*
G03*
X337598Y25591I-10827J0D01*
G01*
X4921Y15748D02*
G03*
X26575Y15748I10827J0D01*
G01*
Y25591D02*
G03*
X4921Y25591I-10827J0D01*
G01*
X359252Y324803D02*
G03*
X337598Y324803I-10827J0D01*
G01*
Y314961D02*
G03*
X359252Y314961I10827J0D01*
G01*
X4921D02*
G03*
X26575Y314961I10827J0D01*
G01*
Y324803D02*
G03*
X4921Y324803I-10827J0D01*
G01*
X338583Y45276D02*
X362205D01*
X324803Y31496D02*
X338583Y45276D01*
X324803Y1969D02*
Y31496D01*
X1969Y45276D02*
X25591D01*
X39370Y31496D01*
Y1969D02*
Y31496D01*
X1969Y295276D02*
X25591D01*
X39370Y309055D01*
Y338583D01*
X338583Y295276D02*
X362205D01*
X324803Y309055D02*
X338583Y295276D01*
X324803Y309055D02*
Y338583D01*
X337598Y15748D02*
Y25591D01*
X359252Y15748D02*
Y25591D01*
X4921Y15748D02*
Y25591D01*
X26575Y15748D02*
Y25591D01*
X359252Y314961D02*
Y324803D01*
X337598Y314961D02*
Y324803D01*
X4921Y314961D02*
Y324803D01*
X26575Y314961D02*
Y324803D01*
M02*
