G04*
G04 #@! TF.GenerationSoftware,Altium Limited,Altium Designer,21.9.2 (33)*
G04*
G04 Layer_Color=16711935*
%FSLAX25Y25*%
%MOIN*%
G70*
G04*
G04 #@! TF.SameCoordinates,034F36C6-47A8-4C4D-BE73-3EC9485E6904*
G04*
G04*
G04 #@! TF.FilePolarity,Negative*
G04*
G01*
G75*
G04:AMPARAMS|DCode=37|XSize=98.43mil|YSize=98.43mil|CornerRadius=49.21mil|HoleSize=0mil|Usage=FLASHONLY|Rotation=0.000|XOffset=0mil|YOffset=0mil|HoleType=Round|Shape=RoundedRectangle|*
%AMROUNDEDRECTD37*
21,1,0.09843,0.00000,0,0,0.0*
21,1,0.00000,0.09843,0,0,0.0*
1,1,0.09843,0.00000,0.00000*
1,1,0.09843,0.00000,0.00000*
1,1,0.09843,0.00000,0.00000*
1,1,0.09843,0.00000,0.00000*
%
%ADD37ROUNDEDRECTD37*%
%ADD38C,0.08674*%
%ADD39R,0.08674X0.08674*%
%ADD40C,0.09068*%
%ADD41C,0.07887*%
%ADD42R,0.08674X0.08674*%
%ADD43R,0.17808X0.12611*%
%ADD44R,0.10249X0.13005*%
G04:AMPARAMS|DCode=45|XSize=165.48mil|YSize=263.91mil|CornerRadius=82.74mil|HoleSize=0mil|Usage=FLASHONLY|Rotation=180.000|XOffset=0mil|YOffset=0mil|HoleType=Round|Shape=RoundedRectangle|*
%AMROUNDEDRECTD45*
21,1,0.16548,0.09843,0,0,180.0*
21,1,0.00000,0.26391,0,0,180.0*
1,1,0.16548,0.00000,0.04921*
1,1,0.16548,0.00000,0.04921*
1,1,0.16548,0.00000,-0.04921*
1,1,0.16548,0.00000,-0.04921*
%
%ADD45ROUNDEDRECTD45*%
%ADD46C,0.03162*%
D37*
X324803Y45276D02*
D03*
X39370D02*
D03*
Y295276D02*
D03*
D38*
X9843Y156535D02*
D03*
Y176535D02*
D03*
Y186535D02*
D03*
Y206535D02*
D03*
Y196535D02*
D03*
Y166535D02*
D03*
Y146535D02*
D03*
Y126535D02*
D03*
Y136535D02*
D03*
X354331Y136693D02*
D03*
Y156693D02*
D03*
Y186693D02*
D03*
Y196693D02*
D03*
Y176693D02*
D03*
Y166693D02*
D03*
Y146693D02*
D03*
X108268Y58071D02*
D03*
X118268D02*
D03*
D39*
X9843Y216535D02*
D03*
X354331Y206693D02*
D03*
D40*
X88583Y11811D02*
D03*
X102362D02*
D03*
X116142D02*
D03*
X78740Y328740D02*
D03*
X64961D02*
D03*
X51181D02*
D03*
X127953D02*
D03*
X114173D02*
D03*
X100394D02*
D03*
X177165D02*
D03*
X163386D02*
D03*
X149606D02*
D03*
X226378D02*
D03*
X212598D02*
D03*
X198819D02*
D03*
X275590D02*
D03*
X261811D02*
D03*
X248031D02*
D03*
X311024D02*
D03*
X297244D02*
D03*
X269685Y11811D02*
D03*
X311024D02*
D03*
X283465D02*
D03*
X297244D02*
D03*
X204724D02*
D03*
X246063D02*
D03*
X218504D02*
D03*
X232283D02*
D03*
X139764D02*
D03*
X181102D02*
D03*
X153543D02*
D03*
X167323D02*
D03*
X51181D02*
D03*
X64961D02*
D03*
D41*
X301339Y155512D02*
D03*
X291339D02*
D03*
X281339D02*
D03*
X236535D02*
D03*
X226535D02*
D03*
X216535D02*
D03*
X171575D02*
D03*
X161575D02*
D03*
X151575D02*
D03*
D42*
X98268Y58071D02*
D03*
D43*
X290354Y95473D02*
D03*
X225394Y95472D02*
D03*
X160531Y95276D02*
D03*
D44*
X62417Y111756D02*
D03*
D45*
X348425Y20669D02*
D03*
X15748D02*
D03*
X348425Y319882D02*
D03*
X15748D02*
D03*
D46*
X284449Y91536D02*
D03*
Y95473D02*
D03*
Y99410D02*
D03*
X287402Y91536D02*
D03*
Y95473D02*
D03*
Y99410D02*
D03*
X290354Y91536D02*
D03*
Y95473D02*
D03*
Y99410D02*
D03*
X293307Y91536D02*
D03*
Y95473D02*
D03*
Y99410D02*
D03*
X296260Y91536D02*
D03*
Y95473D02*
D03*
Y99410D02*
D03*
X219488Y91535D02*
D03*
Y95472D02*
D03*
Y99409D02*
D03*
X222441Y91535D02*
D03*
Y95472D02*
D03*
Y99409D02*
D03*
X225394Y91535D02*
D03*
Y95472D02*
D03*
Y99409D02*
D03*
X228346Y91535D02*
D03*
Y95472D02*
D03*
Y99409D02*
D03*
X231299Y91535D02*
D03*
Y95472D02*
D03*
Y99409D02*
D03*
X154626Y91339D02*
D03*
Y95276D02*
D03*
Y99213D02*
D03*
X157579Y91339D02*
D03*
Y95276D02*
D03*
Y99213D02*
D03*
X160531Y91339D02*
D03*
Y95276D02*
D03*
Y99213D02*
D03*
X163484Y91339D02*
D03*
Y95276D02*
D03*
Y99213D02*
D03*
X166437Y91339D02*
D03*
Y95276D02*
D03*
Y99213D02*
D03*
M02*
